Amiamie-BlackRound.ufo
<glyph name="exclam" format="2">
	<advance width="280"/>
	<unicode hex="0021"/>
	<note>
		exclam
	</note>
	<outline>
		<contour>
			<point x="209" y="231"/>
			<point x="210" y="270" type="curve" smooth="yes"/>
			<point x="219" y="618" type="line" smooth="yes"/>
			<point x="220" y="658"/>
			<point x="188" y="699"/>
			<point x="140" y="699" type="curve" smooth="yes"/>
			<point x="92" y="699"/>
			<point x="60" y="658"/>
			<point x="61" y="618" type="curve" smooth="yes"/>
			<point x="70" y="270" type="line" smooth="yes"/>
			<point x="71" y="231"/>
			<point x="102" y="201"/>
			<point x="140" y="201" type="curve" smooth="yes"/>
			<point x="178" y="201"/>
		</contour>
		<contour>
			<point x="91" y="-8"/>
			<point x="135" y="-21" type="curve" smooth="yes"/>
			<point x="140" y="-22"/>
			<point x="147" y="-23"/>
			<point x="153" y="-23" type="curve" smooth="yes"/>
			<point x="190" y="-23"/>
			<point x="219" y="7"/>
			<point x="219" y="43" type="curve" smooth="yes"/>
			<point x="219" y="107" type="line" smooth="yes"/>
			<point x="219" y="143"/>
			<point x="190" y="173"/>
			<point x="153" y="173" type="curve" smooth="yes"/>
			<point x="147" y="173"/>
			<point x="140" y="172"/>
			<point x="135" y="171" type="curve" smooth="yes"/>
			<point x="91" y="158"/>
			<point x="57" y="120"/>
			<point x="57" y="75" type="curve" smooth="yes"/>
			<point x="57" y="30"/>
		</contour>
	</outline>
</glyph>
<glyph name="quotedbl" format="2">
	<advance width="410"/>
	<unicode hex="0022"/>
	<note>
		quotedbl
	</note>
	<outline>
		<contour>
			<point x="164" y="456"/>
			<point x="166" y="488" type="curve" smooth="yes"/>
			<point x="176" y="669" type="line" smooth="yes"/>
			<point x="178" y="706"/>
			<point x="148" y="744"/>
			<point x="104" y="744" type="curve" smooth="yes"/>
			<point x="60" y="744"/>
			<point x="30" y="706"/>
			<point x="32" y="669" type="curve" smooth="yes"/>
			<point x="42" y="488" type="line" smooth="yes"/>
			<point x="44" y="456"/>
			<point x="71" y="430"/>
			<point x="104" y="430" type="curve" smooth="yes"/>
			<point x="137" y="430"/>
		</contour>
		<contour>
			<point x="354" y="456"/>
			<point x="356" y="488" type="curve" smooth="yes"/>
			<point x="366" y="669" type="line" smooth="yes"/>
			<point x="368" y="706"/>
			<point x="338" y="744"/>
			<point x="294" y="744" type="curve" smooth="yes"/>
			<point x="250" y="744"/>
			<point x="220" y="706"/>
			<point x="222" y="669" type="curve" smooth="yes"/>
			<point x="232" y="488" type="line" smooth="yes"/>
			<point x="234" y="456"/>
			<point x="261" y="430"/>
			<point x="294" y="430" type="curve" smooth="yes"/>
			<point x="327" y="430"/>
		</contour>
	</outline>
</glyph>
<glyph name="dollar" format="2">
	<advance width="662"/>
	<unicode hex="0024"/>
	<note>
		dollar
	</note>
	<outline>
		<contour>
			<point x="619" y="188" type="curve" smooth="yes"/>
			<point x="619" y="307"/>
			<point x="549" y="368"/>
			<point x="386" y="419" type="curve"/>
			<point x="386" y="573" type="line"/>
			<point x="410" y="564"/>
			<point x="426" y="548"/>
			<point x="435" y="525" type="curve" smooth="yes"/>
			<point x="447" y="496"/>
			<point x="475" y="477"/>
			<point x="508" y="477" type="curve" smooth="yes"/>
			<point x="552" y="477"/>
			<point x="587" y="512"/>
			<point x="587" y="556" type="curve" smooth="yes"/>
			<point x="587" y="573"/>
			<point x="583" y="590"/>
			<point x="575" y="602" type="curve" smooth="yes"/>
			<point x="538" y="656"/>
			<point x="477" y="692"/>
			<point x="386" y="701" type="curve"/>
			<point x="386" y="739" type="line" smooth="yes"/>
			<point x="386" y="766"/>
			<point x="364" y="789"/>
			<point x="336" y="789" type="curve" smooth="yes"/>
			<point x="308" y="789"/>
			<point x="286" y="766"/>
			<point x="286" y="739" type="curve" smooth="yes"/>
			<point x="286" y="701" type="line"/>
			<point x="173" y="687"/>
			<point x="71" y="622"/>
			<point x="71" y="491" type="curve" smooth="yes"/>
			<point x="71" y="378"/>
			<point x="149" y="323"/>
			<point x="286" y="275" type="curve"/>
			<point x="286" y="115" type="line"/>
			<point x="260" y="124"/>
			<point x="238" y="140"/>
			<point x="225" y="167" type="curve" smooth="yes"/>
			<point x="212" y="194"/>
			<point x="185" y="211"/>
			<point x="153" y="211" type="curve" smooth="yes"/>
			<point x="109" y="211"/>
			<point x="73" y="175"/>
			<point x="73" y="131" type="curve" smooth="yes"/>
			<point x="73" y="113"/>
			<point x="77" y="96"/>
			<point x="87" y="82" type="curve" smooth="yes"/>
			<point x="129" y="24"/>
			<point x="199" y="-4"/>
			<point x="286" y="-12" type="curve"/>
			<point x="286" y="-49" type="line" smooth="yes"/>
			<point x="286" y="-76"/>
			<point x="308" y="-99"/>
			<point x="336" y="-99" type="curve" smooth="yes"/>
			<point x="364" y="-99"/>
			<point x="386" y="-76"/>
			<point x="386" y="-49" type="curve" smooth="yes"/>
			<point x="386" y="-12" type="line"/>
			<point x="521" y="1"/>
			<point x="619" y="69"/>
		</contour>
		<contour>
			<point x="234" y="509" type="curve" smooth="yes"/>
			<point x="234" y="543"/>
			<point x="254" y="566"/>
			<point x="286" y="576" type="curve"/>
			<point x="286" y="440" type="line"/>
			<point x="252" y="453"/>
			<point x="234" y="472"/>
		</contour>
		<contour>
			<point x="386" y="112" type="curve"/>
			<point x="386" y="251" type="line"/>
			<point x="433" y="232"/>
			<point x="447" y="209"/>
			<point x="447" y="179" type="curve" smooth="yes"/>
			<point x="447" y="140"/>
			<point x="426" y="120"/>
		</contour>
	</outline>
</glyph>
<glyph name="quotesingle" format="2">
	<advance width="220"/>
	<unicode hex="0027"/>
	<note>
		quotesingle
	</note>
	<outline>
		<contour>
			<point x="164" y="456"/>
			<point x="166" y="488" type="curve" smooth="yes"/>
			<point x="176" y="669" type="line" smooth="yes"/>
			<point x="178" y="706"/>
			<point x="148" y="744"/>
			<point x="104" y="744" type="curve" smooth="yes"/>
			<point x="60" y="744"/>
			<point x="30" y="706"/>
			<point x="32" y="669" type="curve" smooth="yes"/>
			<point x="42" y="488" type="line" smooth="yes"/>
			<point x="44" y="456"/>
			<point x="71" y="430"/>
			<point x="104" y="430" type="curve" smooth="yes"/>
			<point x="137" y="430"/>
		</contour>
	</outline>
</glyph>
<glyph name="parenright" format="2">
	<advance width="400"/>
	<unicode hex="0029"/>
	<note>
		parenright
	</note>
	<outline>
		<contour>
			<point x="69" y="735"/>
			<point x="72" y="730" type="curve" smooth="yes"/>
			<point x="139" y="613"/>
			<point x="173" y="495"/>
			<point x="173" y="350" type="curve" smooth="yes"/>
			<point x="173" y="205"/>
			<point x="139" y="87"/>
			<point x="72" y="-30" type="curve" smooth="yes"/>
			<point x="69" y="-35"/>
			<point x="67" y="-42"/>
			<point x="67" y="-49" type="curve" smooth="yes"/>
			<point x="67" y="-71"/>
			<point x="85" y="-89"/>
			<point x="107" y="-89" type="curve" smooth="yes"/>
			<point x="119" y="-89"/>
			<point x="130" y="-84"/>
			<point x="137" y="-75" type="curve" smooth="yes"/>
			<point x="230" y="37"/>
			<point x="281" y="170"/>
			<point x="281" y="350" type="curve" smooth="yes"/>
			<point x="281" y="530"/>
			<point x="230" y="663"/>
			<point x="137" y="775" type="curve" smooth="yes"/>
			<point x="130" y="784"/>
			<point x="119" y="789"/>
			<point x="107" y="789" type="curve" smooth="yes"/>
			<point x="85" y="789"/>
			<point x="67" y="771"/>
			<point x="67" y="749" type="curve" smooth="yes"/>
			<point x="67" y="742"/>
		</contour>
	</outline>
</glyph>
<glyph name="asterisk" format="2">
	<advance width="630"/>
	<unicode hex="002A"/>
	<note>
		asterisk
	</note>
	<outline>
		<contour>
			<point x="436" y="365" type="curve" smooth="yes"/>
			<point x="359" y="331" type="line"/>
			<point x="368" y="425" type="line" smooth="yes"/>
			<point x="371" y="457"/>
			<point x="346" y="484"/>
			<point x="315" y="484" type="curve" smooth="yes"/>
			<point x="284" y="484"/>
			<point x="259" y="457"/>
			<point x="262" y="425" type="curve" smooth="yes"/>
			<point x="271" y="331" type="line"/>
			<point x="194" y="365" type="line" smooth="yes"/>
			<point x="188" y="368"/>
			<point x="180" y="370"/>
			<point x="173" y="370" type="curve" smooth="yes"/>
			<point x="143" y="370"/>
			<point x="119" y="346"/>
			<point x="119" y="317" type="curve" smooth="yes"/>
			<point x="119" y="291"/>
			<point x="137" y="269"/>
			<point x="161" y="264" type="curve" smooth="yes"/>
			<point x="246" y="246" type="line"/>
			<point x="180" y="171" type="line" smooth="yes"/>
			<point x="172" y="162"/>
			<point x="167" y="150"/>
			<point x="167" y="136" type="curve" smooth="yes"/>
			<point x="167" y="106"/>
			<point x="191" y="82"/>
			<point x="220" y="82" type="curve" smooth="yes"/>
			<point x="240" y="82"/>
			<point x="257" y="93"/>
			<point x="266" y="109" type="curve" smooth="yes"/>
			<point x="315" y="191" type="line"/>
			<point x="364" y="109" type="line" smooth="yes"/>
			<point x="373" y="93"/>
			<point x="390" y="82"/>
			<point x="410" y="82" type="curve" smooth="yes"/>
			<point x="439" y="82"/>
			<point x="463" y="106"/>
			<point x="463" y="136" type="curve" smooth="yes"/>
			<point x="463" y="150"/>
			<point x="458" y="162"/>
			<point x="450" y="171" type="curve" smooth="yes"/>
			<point x="384" y="246" type="line"/>
			<point x="469" y="264" type="line" smooth="yes"/>
			<point x="493" y="269"/>
			<point x="511" y="291"/>
			<point x="511" y="317" type="curve" smooth="yes"/>
			<point x="511" y="346"/>
			<point x="487" y="370"/>
			<point x="457" y="370" type="curve" smooth="yes"/>
			<point x="450" y="370"/>
			<point x="442" y="368"/>
		</contour>
	</outline>
</glyph>
<glyph name="hyphen" format="2">
	<advance width="314"/>
	<unicode hex="002D"/>
	<note>
		hyphen
	</note>
	<outline>
		<contour>
			<point x="184" y="226"/>
			<point x="197" y="230" type="curve" smooth="yes"/>
			<point x="271" y="256"/>
			<point x="227" y="331"/>
			<point x="157" y="331" type="curve" smooth="yes"/>
			<point x="87" y="331"/>
			<point x="43" y="256"/>
			<point x="117" y="230" type="curve" smooth="yes"/>
			<point x="130" y="226"/>
			<point x="143" y="224"/>
			<point x="157" y="224" type="curve" smooth="yes"/>
			<point x="171" y="224"/>
		</contour>
	</outline>
</glyph>
<glyph name="period" format="2">
	<advance width="266"/>
	<unicode hex="002E"/>
	<note>
		period
	</note>
	<outline>
		<contour>
			<point x="63" y="7"/>
			<point x="103" y="-11" type="curve" smooth="yes"/>
			<point x="116" y="-17"/>
			<point x="129" y="-19"/>
			<point x="143" y="-19" type="curve" smooth="yes"/>
			<point x="197" y="-19"/>
			<point x="242" y="25"/>
			<point x="242" y="79" type="curve" smooth="yes"/>
			<point x="242" y="101" type="line" smooth="yes"/>
			<point x="242" y="155"/>
			<point x="198" y="200"/>
			<point x="143" y="200" type="curve" smooth="yes"/>
			<point x="129" y="200"/>
			<point x="116" y="197"/>
			<point x="103" y="191" type="curve" smooth="yes"/>
			<point x="63" y="173"/>
			<point x="33" y="135"/>
			<point x="33" y="90" type="curve" smooth="yes"/>
			<point x="33" y="45"/>
		</contour>
	</outline>
</glyph>
<glyph name="one" format="2">
	<advance width="662"/>
	<unicode hex="0031"/>
	<note>
		one
	</note>
	<outline>
		<contour>
			<point x="508" y="81" type="curve" smooth="yes"/>
			<point x="508" y="627" type="line" smooth="yes"/>
			<point x="508" y="674"/>
			<point x="464" y="706"/>
			<point x="423" y="698" type="curve" smooth="yes"/>
			<point x="375" y="689"/>
			<point x="331" y="675"/>
			<point x="289" y="651" type="curve" smooth="yes"/>
			<point x="145" y="569" type="line" smooth="yes"/>
			<point x="123" y="556"/>
			<point x="109" y="533"/>
			<point x="109" y="506" type="curve" smooth="yes"/>
			<point x="109" y="466"/>
			<point x="141" y="434"/>
			<point x="181" y="434" type="curve" smooth="yes"/>
			<point x="193" y="434"/>
			<point x="204" y="437"/>
			<point x="214" y="442" type="curve" smooth="yes"/>
			<point x="328" y="502" type="line"/>
			<point x="328" y="81" type="line" smooth="yes"/>
			<point x="328" y="32"/>
			<point x="368" y="-9"/>
			<point x="418" y="-9" type="curve" smooth="yes"/>
			<point x="468" y="-9"/>
			<point x="508" y="32"/>
		</contour>
	</outline>
</glyph>
<glyph name="eight" format="2">
	<advance width="662"/>
	<unicode hex="0038"/>
	<note>
		eight
	</note>
	<outline>
		<contour>
			<point x="480" y="366" type="curve"/>
			<point x="540" y="385"/>
			<point x="595" y="425"/>
			<point x="595" y="509" type="curve" smooth="yes"/>
			<point x="595" y="623"/>
			<point x="506" y="704"/>
			<point x="341" y="704" type="curve" smooth="yes"/>
			<point x="176" y="704"/>
			<point x="85" y="623"/>
			<point x="85" y="509" type="curve" smooth="yes"/>
			<point x="85" y="426"/>
			<point x="128" y="385"/>
			<point x="183" y="366" type="curve"/>
			<point x="115" y="342"/>
			<point x="51" y="289"/>
			<point x="51" y="196" type="curve" smooth="yes"/>
			<point x="51" y="46"/>
			<point x="158" y="-15"/>
			<point x="329" y="-15" type="curve" smooth="yes"/>
			<point x="490" y="-15"/>
			<point x="611" y="46"/>
			<point x="611" y="196" type="curve" smooth="yes"/>
			<point x="611" y="290"/>
			<point x="548" y="343"/>
		</contour>
		<contour>
			<point x="338" y="572" type="curve" smooth="yes"/>
			<point x="382" y="572"/>
			<point x="412" y="547"/>
			<point x="412" y="501" type="curve" smooth="yes"/>
			<point x="412" y="451"/>
			<point x="379" y="426"/>
			<point x="337" y="426" type="curve" smooth="yes"/>
			<point x="296" y="426"/>
			<point x="268" y="451"/>
			<point x="268" y="501" type="curve" smooth="yes"/>
			<point x="268" y="547"/>
			<point x="299" y="572"/>
		</contour>
		<contour>
			<point x="331" y="117" type="curve" smooth="yes"/>
			<point x="272" y="117"/>
			<point x="237" y="149"/>
			<point x="237" y="206" type="curve" smooth="yes"/>
			<point x="237" y="264"/>
			<point x="279" y="297"/>
			<point x="330" y="297" type="curve" smooth="yes"/>
			<point x="390" y="297"/>
			<point x="425" y="261"/>
			<point x="425" y="203" type="curve" smooth="yes"/>
			<point x="425" y="150"/>
			<point x="397" y="117"/>
		</contour>
	</outline>
</glyph>
<glyph name="nine" format="2">
	<advance width="662"/>
	<unicode hex="0039"/>
	<note>
		nine
	</note>
	<outline>
		<contour>
			<point x="326" y="704" type="curve" smooth="yes"/>
			<point x="182" y="704"/>
			<point x="49" y="617"/>
			<point x="49" y="447" type="curve" smooth="yes"/>
			<point x="49" y="329"/>
			<point x="117" y="228"/>
			<point x="274" y="228" type="curve" smooth="yes"/>
			<point x="299" y="228"/>
			<point x="320" y="230"/>
			<point x="340" y="236" type="curve" smooth="yes"/>
			<point x="384" y="248"/>
			<point x="403" y="278"/>
			<point x="424" y="319" type="curve" smooth="yes"/>
			<point x="427" y="326" type="line"/>
			<point x="422" y="182"/>
			<point x="386" y="118"/>
			<point x="319" y="118" type="curve" smooth="yes"/>
			<point x="296" y="118"/>
			<point x="278" y="123"/>
			<point x="264" y="135" type="curve" smooth="yes"/>
			<point x="232" y="165"/>
			<point x="229" y="206"/>
			<point x="185" y="218" type="curve" smooth="yes"/>
			<point x="177" y="220"/>
			<point x="167" y="221"/>
			<point x="158" y="221" type="curve" smooth="yes"/>
			<point x="141" y="221"/>
			<point x="121" y="219"/>
			<point x="103" y="214" type="curve" smooth="yes"/>
			<point x="66" y="203"/>
			<point x="54" y="162"/>
			<point x="74" y="113" type="curve" smooth="yes"/>
			<point x="108" y="33"/>
			<point x="185" y="-14"/>
			<point x="309" y="-14" type="curve" smooth="yes"/>
			<point x="493" y="-14"/>
			<point x="608" y="120"/>
			<point x="608" y="358" type="curve" smooth="yes"/>
			<point x="608" y="597"/>
			<point x="514" y="704"/>
		</contour>
		<contour>
			<point x="330" y="360" type="curve" smooth="yes"/>
			<point x="271" y="360"/>
			<point x="237" y="402"/>
			<point x="237" y="469" type="curve" smooth="yes"/>
			<point x="237" y="523"/>
			<point x="267" y="572"/>
			<point x="328" y="572" type="curve" smooth="yes"/>
			<point x="385" y="572"/>
			<point x="420" y="530"/>
			<point x="420" y="465" type="curve" smooth="yes"/>
			<point x="420" y="398"/>
			<point x="379" y="360"/>
		</contour>
	</outline>
</glyph>
<glyph name="colon" format="2">
	<advance width="266"/>
	<unicode hex="003A"/>
	<note>
		colon
	</note>
	<outline>
		<contour>
			<point x="61" y="365"/>
			<point x="101" y="347" type="curve" smooth="yes"/>
			<point x="114" y="341"/>
			<point x="127" y="339"/>
			<point x="141" y="339" type="curve" smooth="yes"/>
			<point x="195" y="339"/>
			<point x="240" y="383"/>
			<point x="240" y="437" type="curve" smooth="yes"/>
			<point x="240" y="459" type="line" smooth="yes"/>
			<point x="240" y="513"/>
			<point x="196" y="558"/>
			<point x="141" y="558" type="curve" smooth="yes"/>
			<point x="127" y="558"/>
			<point x="114" y="555"/>
			<point x="101" y="549" type="curve" smooth="yes"/>
			<point x="61" y="531"/>
			<point x="31" y="493"/>
			<point x="31" y="448" type="curve" smooth="yes"/>
			<point x="31" y="403"/>
		</contour>
		<contour>
			<point x="61" y="3"/>
			<point x="101" y="-15" type="curve" smooth="yes"/>
			<point x="114" y="-21"/>
			<point x="127" y="-23"/>
			<point x="141" y="-23" type="curve" smooth="yes"/>
			<point x="195" y="-23"/>
			<point x="240" y="21"/>
			<point x="240" y="75" type="curve" smooth="yes"/>
			<point x="240" y="97" type="line" smooth="yes"/>
			<point x="240" y="151"/>
			<point x="196" y="196"/>
			<point x="141" y="196" type="curve" smooth="yes"/>
			<point x="127" y="196"/>
			<point x="114" y="193"/>
			<point x="101" y="187" type="curve" smooth="yes"/>
			<point x="61" y="169"/>
			<point x="31" y="131"/>
			<point x="31" y="86" type="curve" smooth="yes"/>
			<point x="31" y="41"/>
		</contour>
	</outline>
</glyph>
<glyph name="semicolon" format="2">
	<advance width="266"/>
	<unicode hex="003B"/>
	<note>
		semicolon
	</note>
	<outline>
		<contour>
			<point x="126" y="-89" type="curve" smooth="yes"/>
			<point x="192" y="78" type="line" smooth="yes"/>
			<point x="212" y="128"/>
			<point x="210" y="182"/>
			<point x="157" y="197" type="curve" smooth="yes"/>
			<point x="148" y="200"/>
			<point x="138" y="201"/>
			<point x="128" y="201" type="curve" smooth="yes"/>
			<point x="75" y="201"/>
			<point x="51" y="161"/>
			<point x="38" y="112" type="curve" smooth="yes"/>
			<point x="-5" y="-46" type="line" smooth="yes"/>
			<point x="-6" y="-51"/>
			<point x="-7" y="-58"/>
			<point x="-7" y="-64" type="curve" smooth="yes"/>
			<point x="-7" y="-102"/>
			<point x="24" y="-133"/>
			<point x="62" y="-133" type="curve" smooth="yes"/>
			<point x="91" y="-133"/>
			<point x="116" y="-114"/>
		</contour>
		<contour>
			<point x="62" y="363"/>
			<point x="102" y="345" type="curve" smooth="yes"/>
			<point x="115" y="339"/>
			<point x="128" y="337"/>
			<point x="142" y="337" type="curve" smooth="yes"/>
			<point x="196" y="337"/>
			<point x="241" y="381"/>
			<point x="241" y="435" type="curve" smooth="yes"/>
			<point x="241" y="457" type="line" smooth="yes"/>
			<point x="241" y="511"/>
			<point x="197" y="556"/>
			<point x="142" y="556" type="curve" smooth="yes"/>
			<point x="128" y="556"/>
			<point x="115" y="553"/>
			<point x="102" y="547" type="curve" smooth="yes"/>
			<point x="62" y="529"/>
			<point x="32" y="491"/>
			<point x="32" y="446" type="curve" smooth="yes"/>
			<point x="32" y="401"/>
		</contour>
	</outline>
</glyph>
<glyph name="less" format="2">
	<advance width="662"/>
	<unicode hex="003C"/>
	<note>
		less
	</note>
	<outline>
		<contour>
			<point x="223" y="266" type="line"/>
			<point x="550" y="382" type="line" smooth="yes"/>
			<point x="571" y="390"/>
			<point x="587" y="410"/>
			<point x="587" y="434" type="curve" smooth="yes"/>
			<point x="587" y="464"/>
			<point x="562" y="489"/>
			<point x="532" y="489" type="curve" smooth="yes"/>
			<point x="525" y="489"/>
			<point x="519" y="487"/>
			<point x="513" y="485" type="curve" smooth="yes"/>
			<point x="158" y="352" type="line" smooth="yes"/>
			<point x="123" y="339"/>
			<point x="98" y="305"/>
			<point x="98" y="265" type="curve" smooth="yes"/>
			<point x="98" y="225"/>
			<point x="124" y="191"/>
			<point x="159" y="178" type="curve" smooth="yes"/>
			<point x="512" y="45" type="line" smooth="yes"/>
			<point x="518" y="43"/>
			<point x="525" y="41"/>
			<point x="532" y="41" type="curve" smooth="yes"/>
			<point x="562" y="41"/>
			<point x="587" y="66"/>
			<point x="587" y="97" type="curve" smooth="yes"/>
			<point x="587" y="121"/>
			<point x="571" y="141"/>
			<point x="550" y="149" type="curve" smooth="yes"/>
		</contour>
	</outline>
</glyph>
<glyph name="equal" format="2">
	<advance width="662"/>
	<unicode hex="003D"/>
	<note>
		equal
	</note>
	<outline>
		<contour>
			<point x="121" y="373" type="curve" smooth="yes"/>
			<point x="541" y="373" type="line" smooth="yes"/>
			<point x="565" y="373"/>
			<point x="585" y="393"/>
			<point x="585" y="417" type="curve" smooth="yes"/>
			<point x="585" y="441"/>
			<point x="565" y="461"/>
			<point x="541" y="461" type="curve" smooth="yes"/>
			<point x="121" y="461" type="line" smooth="yes"/>
			<point x="97" y="461"/>
			<point x="77" y="441"/>
			<point x="77" y="417" type="curve" smooth="yes"/>
			<point x="77" y="393"/>
			<point x="97" y="373"/>
		</contour>
		<contour>
			<point x="121" y="173" type="curve" smooth="yes"/>
			<point x="541" y="173" type="line" smooth="yes"/>
			<point x="565" y="173"/>
			<point x="585" y="193"/>
			<point x="585" y="217" type="curve" smooth="yes"/>
			<point x="585" y="241"/>
			<point x="565" y="261"/>
			<point x="541" y="261" type="curve" smooth="yes"/>
			<point x="121" y="261" type="line" smooth="yes"/>
			<point x="97" y="261"/>
			<point x="77" y="241"/>
			<point x="77" y="217" type="curve" smooth="yes"/>
			<point x="77" y="193"/>
			<point x="97" y="173"/>
		</contour>
	</outline>
</glyph>
<glyph name="question" format="2">
	<advance width="589"/>
	<unicode hex="003F"/>
	<note>
		question
	</note>
	<outline>
		<contour>
			<point x="296" y="704" type="curve" smooth="yes"/>
			<point x="188" y="704"/>
			<point x="106" y="665"/>
			<point x="64" y="593" type="curve" smooth="yes"/>
			<point x="57" y="580"/>
			<point x="52" y="565"/>
			<point x="52" y="549" type="curve" smooth="yes"/>
			<point x="52" y="501"/>
			<point x="91" y="462"/>
			<point x="139" y="462" type="curve" smooth="yes"/>
			<point x="177" y="462"/>
			<point x="208" y="487"/>
			<point x="219" y="522" type="curve" smooth="yes"/>
			<point x="230" y="557"/>
			<point x="252" y="572"/>
			<point x="283" y="572" type="curve" smooth="yes"/>
			<point x="331" y="572"/>
			<point x="353" y="546"/>
			<point x="353" y="496" type="curve" smooth="yes"/>
			<point x="353" y="461"/>
			<point x="333" y="430"/>
			<point x="279" y="373" type="curve" smooth="yes"/>
			<point x="257" y="350"/>
			<point x="241" y="329"/>
			<point x="230" y="302" type="curve" smooth="yes"/>
			<point x="227" y="293"/>
			<point x="225" y="284"/>
			<point x="225" y="274" type="curve" smooth="yes"/>
			<point x="225" y="233"/>
			<point x="259" y="199"/>
			<point x="300" y="199" type="curve" smooth="yes"/>
			<point x="333" y="199"/>
			<point x="360" y="220"/>
			<point x="370" y="249" type="curve" smooth="yes"/>
			<point x="381" y="279"/>
			<point x="400" y="300"/>
			<point x="435" y="328" type="curve" smooth="yes"/>
			<point x="507" y="386"/>
			<point x="541" y="431"/>
			<point x="541" y="511" type="curve" smooth="yes"/>
			<point x="541" y="634"/>
			<point x="450" y="704"/>
		</contour>
		<contour>
			<point x="238" y="-8"/>
			<point x="282" y="-21" type="curve" smooth="yes"/>
			<point x="287" y="-22"/>
			<point x="294" y="-23"/>
			<point x="300" y="-23" type="curve" smooth="yes"/>
			<point x="337" y="-23"/>
			<point x="366" y="7"/>
			<point x="366" y="43" type="curve" smooth="yes"/>
			<point x="366" y="107" type="line" smooth="yes"/>
			<point x="366" y="143"/>
			<point x="337" y="173"/>
			<point x="300" y="173" type="curve" smooth="yes"/>
			<point x="294" y="173"/>
			<point x="287" y="172"/>
			<point x="282" y="171" type="curve" smooth="yes"/>
			<point x="238" y="158"/>
			<point x="204" y="120"/>
			<point x="204" y="75" type="curve" smooth="yes"/>
			<point x="204" y="30"/>
		</contour>
	</outline>
</glyph>
<glyph name="at" format="2">
	<advance width="930"/>
	<unicode hex="0040"/>
	<note>
		at
	</note>
	<outline>
		<contour>
			<point x="635" y="472"/>
			<point x="578" y="472" type="curve" smooth="yes"/>
			<point x="560" y="472"/>
			<point x="544" y="451"/>
			<point x="531" y="409" type="curve"/>
			<point x="523" y="436" type="line" smooth="yes"/>
			<point x="517" y="456"/>
			<point x="504" y="482"/>
			<point x="459" y="488" type="curve" smooth="yes"/>
			<point x="452" y="489"/>
			<point x="445" y="490"/>
			<point x="437" y="490" type="curve" smooth="yes"/>
			<point x="325" y="490"/>
			<point x="247" y="386"/>
			<point x="247" y="243" type="curve" smooth="yes"/>
			<point x="247" y="113"/>
			<point x="312" y="74"/>
			<point x="382" y="74" type="curve" smooth="yes"/>
			<point x="397" y="74"/>
			<point x="413" y="76"/>
			<point x="428" y="81" type="curve" smooth="yes"/>
			<point x="461" y="92"/>
			<point x="478" y="120"/>
			<point x="498" y="160" type="curve" smooth="yes"/>
			<point x="501" y="167" type="line"/>
			<point x="523" y="101"/>
			<point x="575" y="68"/>
			<point x="653" y="68" type="curve" smooth="yes"/>
			<point x="783" y="68"/>
			<point x="891" y="144"/>
			<point x="891" y="352" type="curve" smooth="yes"/>
			<point x="891" y="530"/>
			<point x="759" y="702"/>
			<point x="504" y="702" type="curve" smooth="yes"/>
			<point x="244" y="702"/>
			<point x="44" y="512"/>
			<point x="44" y="251" type="curve" smooth="yes"/>
			<point x="44" y="-31"/>
			<point x="260" y="-134"/>
			<point x="439" y="-134" type="curve" smooth="yes"/>
			<point x="515" y="-134"/>
			<point x="602" y="-117"/>
			<point x="684" y="-74" type="curve" smooth="yes"/>
			<point x="698" y="-66"/>
			<point x="709" y="-52"/>
			<point x="709" y="-34" type="curve" smooth="yes"/>
			<point x="709" y="-9"/>
			<point x="689" y="11"/>
			<point x="664" y="11" type="curve" smooth="yes"/>
			<point x="656" y="11"/>
			<point x="649" y="9"/>
			<point x="643" y="6" type="curve" smooth="yes"/>
			<point x="585" y="-24"/>
			<point x="522" y="-38"/>
			<point x="453" y="-38" type="curve" smooth="yes"/>
			<point x="254" y="-38"/>
			<point x="152" y="79"/>
			<point x="152" y="258" type="curve" smooth="yes"/>
			<point x="152" y="478"/>
			<point x="324" y="606"/>
			<point x="500" y="606" type="curve" smooth="yes"/>
			<point x="676" y="606"/>
			<point x="783" y="507"/>
			<point x="783" y="342" type="curve" smooth="yes"/>
			<point x="783" y="226"/>
			<point x="742" y="164"/>
			<point x="692" y="164" type="curve" smooth="yes"/>
			<point x="664" y="164"/>
			<point x="651" y="189"/>
			<point x="651" y="229" type="curve" smooth="yes"/>
			<point x="651" y="247"/>
			<point x="653" y="266"/>
			<point x="677" y="331" type="curve" smooth="yes"/>
			<point x="681" y="343"/>
			<point x="683" y="355"/>
			<point x="683" y="367" type="curve" smooth="yes"/>
			<point x="683" y="425"/>
		</contour>
		<contour>
			<point x="445" y="196" type="curve" smooth="yes"/>
			<point x="424" y="196"/>
			<point x="411" y="212"/>
			<point x="411" y="255" type="curve" smooth="yes"/>
			<point x="411" y="322"/>
			<point x="442" y="368"/>
			<point x="479" y="368" type="curve" smooth="yes"/>
			<point x="504" y="368"/>
			<point x="512" y="347"/>
			<point x="506" y="319" type="curve" smooth="yes"/>
			<point x="490" y="248" type="line" smooth="yes"/>
			<point x="483" y="219"/>
			<point x="470" y="196"/>
		</contour>
	</outline>
</glyph>
<glyph name="A" format="2">
	<advance width="707"/>
	<unicode hex="0041"/>
	<note>
		A
	</note>
	<outline>
		<contour>
			<point x="253" y="179" type="line"/>
			<point x="468" y="179" type="line"/>
			<point x="508" y="54" type="line" smooth="yes"/>
			<point x="520" y="18"/>
			<point x="555" y="-9"/>
			<point x="595" y="-9" type="curve" smooth="yes"/>
			<point x="646" y="-9"/>
			<point x="687" y="32"/>
			<point x="687" y="82" type="curve" smooth="yes"/>
			<point x="687" y="93"/>
			<point x="684" y="103"/>
			<point x="681" y="113" type="curve" smooth="yes"/>
			<point x="500" y="614" type="line" smooth="yes"/>
			<point x="481" y="665"/>
			<point x="447" y="690"/>
			<point x="392" y="690" type="curve" smooth="yes"/>
			<point x="334" y="690" type="line" smooth="yes"/>
			<point x="279" y="690"/>
			<point x="245" y="665"/>
			<point x="226" y="614" type="curve" smooth="yes"/>
			<point x="44" y="110" type="line" smooth="yes"/>
			<point x="41" y="101"/>
			<point x="38" y="91"/>
			<point x="38" y="80" type="curve" smooth="yes"/>
			<point x="38" y="31"/>
			<point x="78" y="-9"/>
			<point x="127" y="-9" type="curve" smooth="yes"/>
			<point x="167" y="-9"/>
			<point x="201" y="18"/>
			<point x="212" y="53" type="curve" smooth="yes"/>
		</contour>
		<contour>
			<point x="297" y="319" type="line"/>
			<point x="361" y="531" type="line"/>
			<point x="425" y="319" type="line"/>
		</contour>
	</outline>
</glyph>
<glyph name="F" format="2">
	<advance width="615"/>
	<unicode hex="0046"/>
	<note>
		F
	</note>
	<outline>
		<contour>
			<point x="260" y="416" type="line"/>
			<point x="260" y="550" type="line"/>
			<point x="538" y="550" type="line" smooth="yes"/>
			<point x="576" y="550"/>
			<point x="608" y="581"/>
			<point x="608" y="620" type="curve" smooth="yes"/>
			<point x="608" y="659"/>
			<point x="576" y="690"/>
			<point x="538" y="690" type="curve" smooth="yes"/>
			<point x="175" y="690" type="line" smooth="yes"/>
			<point x="114" y="690"/>
			<point x="80" y="656"/>
			<point x="80" y="595" type="curve" smooth="yes"/>
			<point x="80" y="81" type="line" smooth="yes"/>
			<point x="80" y="32"/>
			<point x="120" y="-9"/>
			<point x="170" y="-9" type="curve" smooth="yes"/>
			<point x="220" y="-9"/>
			<point x="260" y="32"/>
			<point x="260" y="81" type="curve" smooth="yes"/>
			<point x="260" y="276" type="line"/>
			<point x="508" y="276" type="line" smooth="yes"/>
			<point x="546" y="276"/>
			<point x="578" y="307"/>
			<point x="578" y="346" type="curve" smooth="yes"/>
			<point x="578" y="385"/>
			<point x="546" y="416"/>
			<point x="508" y="416" type="curve" smooth="yes"/>
		</contour>
	</outline>
</glyph>
<glyph name="G" format="2">
	<advance width="759"/>
	<unicode hex="0047"/>
	<note>
		G
	</note>
	<outline>
		<contour>
			<point x="618" y="368" type="curve" smooth="yes"/>
			<point x="470" y="368" type="line" smooth="yes"/>
			<point x="432" y="368"/>
			<point x="400" y="337"/>
			<point x="400" y="298" type="curve" smooth="yes"/>
			<point x="400" y="259"/>
			<point x="432" y="228"/>
			<point x="470" y="228" type="curve" smooth="yes"/>
			<point x="543" y="228" type="line"/>
			<point x="518" y="152"/>
			<point x="472" y="118"/>
			<point x="402" y="118" type="curve" smooth="yes"/>
			<point x="317" y="118"/>
			<point x="242" y="177"/>
			<point x="242" y="351" type="curve" smooth="yes"/>
			<point x="242" y="500"/>
			<point x="315" y="572"/>
			<point x="403" y="572" type="curve" smooth="yes"/>
			<point x="453" y="572"/>
			<point x="490" y="556"/>
			<point x="513" y="522" type="curve" smooth="yes"/>
			<point x="539" y="482"/>
			<point x="545" y="443"/>
			<point x="589" y="431" type="curve" smooth="yes"/>
			<point x="598" y="429"/>
			<point x="607" y="428"/>
			<point x="616" y="428" type="curve" smooth="yes"/>
			<point x="633" y="428"/>
			<point x="653" y="430"/>
			<point x="671" y="435" type="curve" smooth="yes"/>
			<point x="708" y="446"/>
			<point x="719" y="486"/>
			<point x="700" y="536" type="curve" smooth="yes"/>
			<point x="662" y="635"/>
			<point x="565" y="704"/>
			<point x="405" y="704" type="curve" smooth="yes"/>
			<point x="216" y="704"/>
			<point x="54" y="580"/>
			<point x="54" y="340" type="curve" smooth="yes"/>
			<point x="54" y="108"/>
			<point x="183" y="-14"/>
			<point x="367" y="-14" type="curve" smooth="yes"/>
			<point x="409" y="-14"/>
			<point x="443" y="-10"/>
			<point x="471" y="-1" type="curve" smooth="yes"/>
			<point x="515" y="14"/>
			<point x="532" y="47"/>
			<point x="549" y="89" type="curve" smooth="yes"/>
			<point x="556" y="106" type="line"/>
			<point x="564" y="54" type="line" smooth="yes"/>
			<point x="570" y="19"/>
			<point x="601" y="-9"/>
			<point x="638" y="-9" type="curve" smooth="yes"/>
			<point x="680" y="-9"/>
			<point x="713" y="25"/>
			<point x="713" y="66" type="curve" smooth="yes"/>
			<point x="713" y="273" type="line" smooth="yes"/>
			<point x="713" y="334"/>
			<point x="679" y="368"/>
		</contour>
	</outline>
</glyph>
<glyph name="I" format="2">
	<advance width="314"/>
	<unicode hex="0049"/>
	<note>
		I
	</note>
	<outline>
		<contour>
			<point x="260" y="32"/>
			<point x="260" y="81" type="curve" smooth="yes"/>
			<point x="260" y="609" type="line" smooth="yes"/>
			<point x="260" y="658"/>
			<point x="220" y="699"/>
			<point x="170" y="699" type="curve" smooth="yes"/>
			<point x="120" y="699"/>
			<point x="80" y="658"/>
			<point x="80" y="609" type="curve" smooth="yes"/>
			<point x="80" y="81" type="line" smooth="yes"/>
			<point x="80" y="32"/>
			<point x="120" y="-9"/>
			<point x="170" y="-9" type="curve" smooth="yes"/>
			<point x="220" y="-9"/>
		</contour>
	</outline>
</glyph>
<glyph name="J" format="2">
	<advance width="638"/>
	<unicode hex="004A"/>
	<note>
		J
	</note>
	<outline>
		<contour>
			<point x="586" y="299" type="curve" smooth="yes"/>
			<point x="586" y="609" type="line" smooth="yes"/>
			<point x="586" y="658"/>
			<point x="546" y="699"/>
			<point x="496" y="699" type="curve" smooth="yes"/>
			<point x="446" y="699"/>
			<point x="406" y="658"/>
			<point x="406" y="609" type="curve" smooth="yes"/>
			<point x="406" y="271" type="line" smooth="yes"/>
			<point x="406" y="250"/>
			<point x="406" y="228"/>
			<point x="404" y="205" type="curve" smooth="yes"/>
			<point x="399" y="150"/>
			<point x="373" y="118"/>
			<point x="323" y="118" type="curve" smooth="yes"/>
			<point x="287" y="118"/>
			<point x="258" y="131"/>
			<point x="242" y="172" type="curve" smooth="yes"/>
			<point x="225" y="216"/>
			<point x="225" y="255"/>
			<point x="185" y="275" type="curve" smooth="yes"/>
			<point x="172" y="281"/>
			<point x="157" y="284"/>
			<point x="142" y="284" type="curve" smooth="yes"/>
			<point x="123" y="284"/>
			<point x="105" y="279"/>
			<point x="89" y="271" type="curve" smooth="yes"/>
			<point x="54" y="252"/>
			<point x="47" y="215"/>
			<point x="57" y="168" type="curve" smooth="yes"/>
			<point x="81" y="56"/>
			<point x="160" y="-14"/>
			<point x="318" y="-14" type="curve" smooth="yes"/>
			<point x="497" y="-14"/>
			<point x="576" y="73"/>
			<point x="583" y="194" type="curve" smooth="yes"/>
			<point x="586" y="245"/>
			<point x="586" y="267"/>
		</contour>
	</outline>
</glyph>
<glyph name="N" format="2">
	<advance width="794"/>
	<unicode hex="004E"/>
	<note>
		N
	</note>
	<outline>
		<contour>
			<point x="740" y="57"/>
			<point x="740" y="136" type="curve" smooth="yes"/>
			<point x="740" y="609" type="line" smooth="yes"/>
			<point x="740" y="658"/>
			<point x="700" y="699"/>
			<point x="650" y="699" type="curve" smooth="yes"/>
			<point x="600" y="699"/>
			<point x="560" y="658"/>
			<point x="560" y="609" type="curve" smooth="yes"/>
			<point x="560" y="395" type="line" smooth="yes"/>
			<point x="560" y="355"/>
			<point x="561" y="284"/>
			<point x="566" y="214" type="curve"/>
			<point x="338" y="628" type="line" smooth="yes"/>
			<point x="315" y="670"/>
			<point x="270" y="699"/>
			<point x="218" y="699" type="curve" smooth="yes"/>
			<point x="142" y="699"/>
			<point x="80" y="637"/>
			<point x="80" y="561" type="curve" smooth="yes"/>
			<point x="80" y="81" type="line" smooth="yes"/>
			<point x="80" y="32"/>
			<point x="120" y="-9"/>
			<point x="170" y="-9" type="curve" smooth="yes"/>
			<point x="220" y="-9"/>
			<point x="260" y="32"/>
			<point x="260" y="81" type="curve" smooth="yes"/>
			<point x="260" y="285" type="line" smooth="yes"/>
			<point x="260" y="325"/>
			<point x="260" y="386"/>
			<point x="254" y="456" type="curve"/>
			<point x="469" y="66" type="line" smooth="yes"/>
			<point x="493" y="22"/>
			<point x="541" y="-9"/>
			<point x="595" y="-9" type="curve" smooth="yes"/>
			<point x="675" y="-9"/>
		</contour>
	</outline>
</glyph>
<glyph name="Q" format="2">
	<advance width="791"/>
	<unicode hex="0051"/>
	<note>
		Q
	</note>
	<outline>
		<contour>
			<point x="672" y="127" type="curve"/>
			<point x="731" y="182"/>
			<point x="760" y="261"/>
			<point x="760" y="345" type="curve" smooth="yes"/>
			<point x="760" y="567"/>
			<point x="622" y="705"/>
			<point x="407" y="705" type="curve" smooth="yes"/>
			<point x="192" y="705"/>
			<point x="54" y="567"/>
			<point x="54" y="345" type="curve" smooth="yes"/>
			<point x="54" y="124"/>
			<point x="192" y="-14"/>
			<point x="407" y="-14" type="curve" smooth="yes"/>
			<point x="433" y="-14"/>
			<point x="456" y="-12"/>
			<point x="478" y="-7" type="curve" smooth="yes"/>
			<point x="506" y="-1"/>
			<point x="523" y="2"/>
			<point x="551" y="2" type="curve" smooth="yes"/>
			<point x="584" y="2"/>
			<point x="610" y="-4"/>
			<point x="647" y="-23" type="curve" smooth="yes"/>
			<point x="657" y="-28"/>
			<point x="668" y="-31"/>
			<point x="681" y="-31" type="curve" smooth="yes"/>
			<point x="721" y="-31"/>
			<point x="755" y="3"/>
			<point x="755" y="43" type="curve" smooth="yes"/>
			<point x="755" y="72"/>
			<point x="739" y="97"/>
			<point x="715" y="110" type="curve" smooth="yes"/>
			<point x="701" y="117"/>
			<point x="687" y="123"/>
		</contour>
		<contour>
			<point x="238" y="345" type="curve" smooth="yes"/>
			<point x="238" y="492"/>
			<point x="303" y="573"/>
			<point x="407" y="573" type="curve" smooth="yes"/>
			<point x="511" y="573"/>
			<point x="576" y="492"/>
			<point x="576" y="345" type="curve" smooth="yes"/>
			<point x="576" y="199"/>
			<point x="511" y="118"/>
			<point x="407" y="118" type="curve" smooth="yes"/>
			<point x="303" y="118"/>
			<point x="238" y="199"/>
		</contour>
	</outline>
</glyph>
<glyph name="V" format="2">
	<advance width="742"/>
	<unicode hex="0056"/>
	<note>
		V
	</note>
	<outline>
		<contour>
			<point x="362" y="0" type="curve" smooth="yes"/>
			<point x="420" y="0" type="line" smooth="yes"/>
			<point x="475" y="0"/>
			<point x="509" y="25"/>
			<point x="528" y="76" type="curve" smooth="yes"/>
			<point x="711" y="581" type="line" smooth="yes"/>
			<point x="714" y="590"/>
			<point x="716" y="600"/>
			<point x="716" y="611" type="curve" smooth="yes"/>
			<point x="716" y="659"/>
			<point x="676" y="699"/>
			<point x="627" y="699" type="curve" smooth="yes"/>
			<point x="587" y="699"/>
			<point x="554" y="673"/>
			<point x="543" y="636" type="curve" smooth="yes"/>
			<point x="393" y="139" type="line"/>
			<point x="245" y="634" type="line" smooth="yes"/>
			<point x="234" y="672"/>
			<point x="199" y="699"/>
			<point x="158" y="699" type="curve" smooth="yes"/>
			<point x="108" y="699"/>
			<point x="67" y="658"/>
			<point x="67" y="608" type="curve" smooth="yes"/>
			<point x="67" y="598"/>
			<point x="70" y="588"/>
			<point x="73" y="578" type="curve" smooth="yes"/>
			<point x="254" y="76" type="line" smooth="yes"/>
			<point x="273" y="25"/>
			<point x="307" y="0"/>
		</contour>
	</outline>
</glyph>
<glyph name="W" format="2">
	<advance width="1016"/>
	<unicode hex="0057"/>
	<note>
		W
	</note>
	<outline>
		<contour>
			<point x="874" y="82" type="curve" smooth="yes"/>
			<point x="1004" y="590" type="line" smooth="yes"/>
			<point x="1006" y="596"/>
			<point x="1006" y="605"/>
			<point x="1006" y="612" type="curve" smooth="yes"/>
			<point x="1006" y="660"/>
			<point x="967" y="699"/>
			<point x="919" y="699" type="curve" smooth="yes"/>
			<point x="877" y="699"/>
			<point x="841" y="667"/>
			<point x="834" y="627" type="curve" smooth="yes"/>
			<point x="745" y="138" type="line"/>
			<point x="672" y="593" type="line" smooth="yes"/>
			<point x="663" y="650"/>
			<point x="628" y="680"/>
			<point x="570" y="680" type="curve" smooth="yes"/>
			<point x="487" y="680" type="line" smooth="yes"/>
			<point x="429" y="680"/>
			<point x="395" y="652"/>
			<point x="385" y="594" type="curve" smooth="yes"/>
			<point x="309" y="140" type="line"/>
			<point x="228" y="623" type="line" smooth="yes"/>
			<point x="221" y="666"/>
			<point x="184" y="699"/>
			<point x="139" y="699" type="curve" smooth="yes"/>
			<point x="89" y="699"/>
			<point x="48" y="658"/>
			<point x="48" y="608" type="curve" smooth="yes"/>
			<point x="48" y="601"/>
			<point x="49" y="593"/>
			<point x="51" y="587" type="curve" smooth="yes"/>
			<point x="172" y="82" type="line" smooth="yes"/>
			<point x="185" y="26"/>
			<point x="220" y="0"/>
			<point x="277" y="0" type="curve" smooth="yes"/>
			<point x="346" y="0" type="line" smooth="yes"/>
			<point x="404" y="0"/>
			<point x="438" y="28"/>
			<point x="448" y="86" type="curve" smooth="yes"/>
			<point x="526" y="537" type="line"/>
			<point x="599" y="87" type="line" smooth="yes"/>
			<point x="608" y="30"/>
			<point x="643" y="0"/>
			<point x="701" y="0" type="curve" smooth="yes"/>
			<point x="769" y="0" type="line" smooth="yes"/>
			<point x="825" y="0"/>
			<point x="860" y="27"/>
		</contour>
	</outline>
</glyph>
<glyph name="X" format="2">
	<advance width="717"/>
	<unicode hex="0058"/>
	<note>
		X
	</note>
	<outline>
		<contour>
			<point x="365" y="233" type="line"/>
			<point x="491" y="31" type="line" smooth="yes"/>
			<point x="506" y="6"/>
			<point x="532" y="-9"/>
			<point x="563" y="-9" type="curve" smooth="yes"/>
			<point x="610" y="-9"/>
			<point x="649" y="29"/>
			<point x="649" y="76" type="curve" smooth="yes"/>
			<point x="649" y="95"/>
			<point x="642" y="112"/>
			<point x="633" y="125" type="curve" smooth="yes"/>
			<point x="477" y="351" type="line"/>
			<point x="631" y="568" type="line" smooth="yes"/>
			<point x="640" y="581"/>
			<point x="646" y="598"/>
			<point x="646" y="616" type="curve" smooth="yes"/>
			<point x="646" y="662"/>
			<point x="609" y="699"/>
			<point x="563" y="699" type="curve" smooth="yes"/>
			<point x="533" y="699"/>
			<point x="506" y="683"/>
			<point x="492" y="659" type="curve" smooth="yes"/>
			<point x="371" y="460" type="line"/>
			<point x="261" y="655" type="line" smooth="yes"/>
			<point x="246" y="681"/>
			<point x="218" y="699"/>
			<point x="186" y="699" type="curve" smooth="yes"/>
			<point x="139" y="699"/>
			<point x="100" y="661"/>
			<point x="100" y="613" type="curve" smooth="yes"/>
			<point x="100" y="596"/>
			<point x="106" y="578"/>
			<point x="115" y="565" type="curve" smooth="yes"/>
			<point x="261" y="348" type="line"/>
			<point x="96" y="115" type="line" smooth="yes"/>
			<point x="51" y="51"/>
			<point x="77" y="0"/>
			<point x="155" y="0" type="curve" smooth="yes"/>
			<point x="156" y="0" type="line" smooth="yes"/>
			<point x="208" y="0"/>
			<point x="243" y="19"/>
			<point x="269" y="65" type="curve" smooth="yes"/>
		</contour>
	</outline>
</glyph>
<glyph name="bracketleft" format="2">
	<advance width="410"/>
	<unicode hex="005B"/>
	<note>
		bracketleft
	</note>
	<outline>
		<contour>
			<point x="391" y="732"/>
			<point x="325" y="763" type="line" smooth="yes"/>
			<point x="285" y="782"/>
			<point x="250" y="794"/>
			<point x="209" y="777" type="curve" smooth="yes"/>
			<point x="150" y="753"/>
			<point x="109" y="696"/>
			<point x="109" y="629" type="curve" smooth="yes"/>
			<point x="109" y="15" type="line" smooth="yes"/>
			<point x="109" y="-46"/>
			<point x="143" y="-80"/>
			<point x="204" y="-80" type="curve" smooth="yes"/>
			<point x="343" y="-80" type="line" smooth="yes"/>
			<point x="369" y="-80"/>
			<point x="391" y="-59"/>
			<point x="391" y="-32" type="curve" smooth="yes"/>
			<point x="391" y="-5"/>
			<point x="369" y="16"/>
			<point x="343" y="16" type="curve" smooth="yes"/>
			<point x="209" y="16" type="line"/>
			<point x="209" y="684" type="line"/>
			<point x="343" y="684" type="line" smooth="yes"/>
			<point x="369" y="684"/>
			<point x="391" y="705"/>
		</contour>
	</outline>
</glyph>
<glyph name="backslash" format="2">
	<advance width="346"/>
	<unicode hex="005C"/>
	<note>
		backslash
	</note>
	<outline>
		<contour>
			<point x="334" y="22"/>
			<point x="332" y="27" type="curve" smooth="yes"/>
			<point x="108" y="695" type="line" smooth="yes"/>
			<point x="102" y="714"/>
			<point x="83" y="729"/>
			<point x="61" y="729" type="curve" smooth="yes"/>
			<point x="34" y="729"/>
			<point x="11" y="707"/>
			<point x="11" y="679" type="curve" smooth="yes"/>
			<point x="11" y="674"/>
			<point x="12" y="668"/>
			<point x="14" y="663" type="curve" smooth="yes"/>
			<point x="238" y="-5" type="line" smooth="yes"/>
			<point x="244" y="-24"/>
			<point x="263" y="-39"/>
			<point x="285" y="-39" type="curve" smooth="yes"/>
			<point x="312" y="-39"/>
			<point x="335" y="-17"/>
			<point x="335" y="11" type="curve" smooth="yes"/>
			<point x="335" y="16"/>
		</contour>
	</outline>
</glyph>
<glyph name="underscore" format="2">
	<advance width="500"/>
	<unicode hex="005F"/>
	<note>
		underscore
	</note>
	<outline>
		<contour>
			<point x="89" y="-88" type="curve" smooth="yes"/>
			<point x="411" y="-88" type="line" smooth="yes"/>
			<point x="437" y="-88"/>
			<point x="459" y="-67"/>
			<point x="459" y="-40" type="curve" smooth="yes"/>
			<point x="459" y="-13"/>
			<point x="437" y="8"/>
			<point x="411" y="8" type="curve" smooth="yes"/>
			<point x="89" y="8" type="line" smooth="yes"/>
			<point x="63" y="8"/>
			<point x="41" y="-13"/>
			<point x="41" y="-40" type="curve" smooth="yes"/>
			<point x="41" y="-67"/>
			<point x="63" y="-88"/>
		</contour>
	</outline>
</glyph>
<glyph name="grave" format="2">
	<advance width="300"/>
	<unicode hex="0060"/>
	<note>
		grave
	</note>
	<outline>
		<contour>
			<point x="188" y="601"/>
			<point x="187" y="602" type="curve" smooth="yes"/>
			<point x="124" y="678"/>
			<point x="48" y="688"/>
			<point x="47" y="658" type="curve" smooth="yes"/>
			<point x="47" y="657"/>
			<point x="47" y="657"/>
			<point x="47" y="656" type="curve" smooth="yes"/>
			<point x="47" y="640"/>
			<point x="54" y="626"/>
			<point x="65" y="617" type="curve" smooth="yes"/>
			<point x="123" y="571" type="line" smooth="yes"/>
			<point x="130" y="565"/>
			<point x="139" y="562"/>
			<point x="148" y="562" type="curve" smooth="yes"/>
			<point x="170" y="562"/>
			<point x="188" y="580"/>
			<point x="188" y="601" type="curve"/>
			<point x="188" y="601"/>
		</contour>
	</outline>
</glyph>
<glyph name="g" format="2">
	<advance width="669"/>
	<unicode hex="0067"/>
	<note>
		g
	</note>
	<outline>
		<contour>
			<point x="615" y="136" type="curve" smooth="yes"/>
			<point x="615" y="453" type="line" smooth="yes"/>
			<point x="615" y="502"/>
			<point x="575" y="543"/>
			<point x="525" y="543" type="curve" smooth="yes"/>
			<point x="479" y="543"/>
			<point x="441" y="509"/>
			<point x="435" y="465" type="curve"/>
			<point x="418" y="494" type="line" smooth="yes"/>
			<point x="406" y="514"/>
			<point x="385" y="533"/>
			<point x="339" y="542" type="curve" smooth="yes"/>
			<point x="319" y="546"/>
			<point x="297" y="548"/>
			<point x="277" y="548" type="curve" smooth="yes"/>
			<point x="140" y="548"/>
			<point x="24" y="453"/>
			<point x="24" y="263" type="curve" smooth="yes"/>
			<point x="24" y="105"/>
			<point x="124" y="6"/>
			<point x="269" y="6" type="curve" smooth="yes"/>
			<point x="296" y="6"/>
			<point x="319" y="9"/>
			<point x="340" y="14" type="curve" smooth="yes"/>
			<point x="383" y="25"/>
			<point x="404" y="53"/>
			<point x="429" y="89" type="curve" smooth="yes"/>
			<point x="435" y="98" type="line"/>
			<point x="435" y="83" type="line" smooth="yes"/>
			<point x="435" y="54"/>
			<point x="434" y="29"/>
			<point x="433" y="13" type="curve" smooth="yes"/>
			<point x="428" y="-59"/>
			<point x="379" y="-88"/>
			<point x="312" y="-88" type="curve" smooth="yes"/>
			<point x="287" y="-88"/>
			<point x="264" y="-84"/>
			<point x="247" y="-76" type="curve" smooth="yes"/>
			<point x="208" y="-57"/>
			<point x="204" y="-14"/>
			<point x="162" y="-1" type="curve" smooth="yes"/>
			<point x="152" y="2"/>
			<point x="142" y="4"/>
			<point x="131" y="4" type="curve" smooth="yes"/>
			<point x="114" y="4"/>
			<point x="96" y="2"/>
			<point x="79" y="-4" type="curve" smooth="yes"/>
			<point x="45" y="-16"/>
			<point x="34" y="-56"/>
			<point x="57" y="-104" type="curve" smooth="yes"/>
			<point x="95" y="-180"/>
			<point x="181" y="-220"/>
			<point x="307" y="-220" type="curve" smooth="yes"/>
			<point x="488" y="-220"/>
			<point x="608" y="-142"/>
			<point x="614" y="33" type="curve" smooth="yes"/>
			<point x="615" y="62"/>
			<point x="615" y="103"/>
		</contour>
		<contour>
			<point x="321" y="128" type="curve" smooth="yes"/>
			<point x="258" y="128"/>
			<point x="208" y="176"/>
			<point x="208" y="276" type="curve" smooth="yes"/>
			<point x="208" y="385"/>
			<point x="256" y="426"/>
			<point x="326" y="426" type="curve" smooth="yes"/>
			<point x="380" y="426"/>
			<point x="435" y="390"/>
			<point x="435" y="283" type="curve" smooth="yes"/>
			<point x="435" y="280" type="line" smooth="yes"/>
			<point x="435" y="168"/>
			<point x="387" y="128"/>
		</contour>
	</outline>
</glyph>
<glyph name="o" format="2">
	<advance width="622"/>
	<unicode hex="006F"/>
	<note>
		o
	</note>
	<outline>
		<contour>
			<point x="311" y="548" type="curve" smooth="yes"/>
			<point x="136" y="548"/>
			<point x="24" y="439"/>
			<point x="24" y="267" type="curve" smooth="yes"/>
			<point x="24" y="96"/>
			<point x="136" y="-14"/>
			<point x="311" y="-14" type="curve" smooth="yes"/>
			<point x="486" y="-14"/>
			<point x="598" y="96"/>
			<point x="598" y="267" type="curve" smooth="yes"/>
			<point x="598" y="439"/>
			<point x="486" y="548"/>
		</contour>
		<contour>
			<point x="311" y="108" type="curve" smooth="yes"/>
			<point x="247" y="108"/>
			<point x="208" y="161"/>
			<point x="208" y="267" type="curve" smooth="yes"/>
			<point x="208" y="374"/>
			<point x="247" y="426"/>
			<point x="311" y="426" type="curve" smooth="yes"/>
			<point x="375" y="426"/>
			<point x="414" y="374"/>
			<point x="414" y="267" type="curve" smooth="yes"/>
			<point x="414" y="161"/>
			<point x="375" y="108"/>
		</contour>
	</outline>
</glyph>
<glyph name="r" format="2">
	<advance width="420"/>
	<unicode hex="0072"/>
	<note>
		r
	</note>
	<outline>
		<contour>
			<point x="320" y="535" type="curve" smooth="yes"/>
			<point x="320" y="535"/>
			<point x="320" y="535"/>
			<point x="320" y="535" type="curve" smooth="yes"/>
			<point x="279" y="519"/>
			<point x="265" y="486"/>
			<point x="245" y="448" type="curve" smooth="yes"/>
			<point x="234" y="426" type="line"/>
			<point x="234" y="453" type="line" smooth="yes"/>
			<point x="234" y="502"/>
			<point x="194" y="543"/>
			<point x="144" y="543" type="curve" smooth="yes"/>
			<point x="94" y="543"/>
			<point x="54" y="502"/>
			<point x="54" y="453" type="curve" smooth="yes"/>
			<point x="54" y="81" type="line" smooth="yes"/>
			<point x="54" y="32"/>
			<point x="94" y="-9"/>
			<point x="144" y="-9" type="curve" smooth="yes"/>
			<point x="194" y="-9"/>
			<point x="234" y="32"/>
			<point x="234" y="81" type="curve" smooth="yes"/>
			<point x="234" y="196" type="line" smooth="yes"/>
			<point x="234" y="329"/>
			<point x="267" y="386"/>
			<point x="360" y="397" type="curve" smooth="yes"/>
			<point x="398" y="402"/>
			<point x="427" y="434"/>
			<point x="427" y="473" type="curve" smooth="yes"/>
			<point x="427" y="490"/>
			<point x="422" y="505"/>
			<point x="414" y="518" type="curve" smooth="yes"/>
			<point x="395" y="547"/>
			<point x="359" y="553"/>
		</contour>
	</outline>
</glyph>
<glyph name="t" format="2">
	<advance width="400"/>
	<unicode hex="0074"/>
	<note>
		t
	</note>
	<outline>
		<contour>
			<point x="270" y="221" type="curve" smooth="yes"/>
			<point x="270" y="418" type="line"/>
			<point x="341" y="418" type="line" smooth="yes"/>
			<point x="372" y="418"/>
			<point x="397" y="443"/>
			<point x="397" y="474" type="curve" smooth="yes"/>
			<point x="397" y="505"/>
			<point x="372" y="530"/>
			<point x="341" y="530" type="curve" smooth="yes"/>
			<point x="270" y="530" type="line"/>
			<point x="270" y="587" type="line" smooth="yes"/>
			<point x="270" y="636"/>
			<point x="230" y="677"/>
			<point x="180" y="677" type="curve" smooth="yes"/>
			<point x="130" y="677"/>
			<point x="90" y="636"/>
			<point x="90" y="587" type="curve" smooth="yes"/>
			<point x="90" y="530" type="line"/>
			<point x="52" y="530" type="line" smooth="yes"/>
			<point x="21" y="530"/>
			<point x="-4" y="505"/>
			<point x="-4" y="474" type="curve" smooth="yes"/>
			<point x="-4" y="443"/>
			<point x="21" y="418"/>
			<point x="52" y="418" type="curve" smooth="yes"/>
			<point x="90" y="418" type="line"/>
			<point x="90" y="195" type="line" smooth="yes"/>
			<point x="90" y="165"/>
			<point x="90" y="140"/>
			<point x="92" y="109" type="curve" smooth="yes"/>
			<point x="98" y="27"/>
			<point x="138" y="-14"/>
			<point x="271" y="-14" type="curve" smooth="yes"/>
			<point x="292" y="-14"/>
			<point x="311" y="-13"/>
			<point x="332" y="-11" type="curve" smooth="yes"/>
			<point x="362" y="-8"/>
			<point x="386" y="17"/>
			<point x="386" y="48" type="curve" smooth="yes"/>
			<point x="386" y="79"/>
			<point x="361" y="105"/>
			<point x="331" y="107" type="curve" smooth="yes"/>
			<point x="285" y="111"/>
			<point x="274" y="128"/>
			<point x="271" y="169" type="curve" smooth="yes"/>
			<point x="270" y="183"/>
			<point x="270" y="203"/>
		</contour>
	</outline>
</glyph>
<glyph name="v" format="2">
	<advance width="608"/>
	<unicode hex="0076"/>
	<note>
		v
	</note>
	<outline>
		<contour>
			<point x="436" y="78" type="curve" smooth="yes"/>
			<point x="572" y="422" type="line" smooth="yes"/>
			<point x="576" y="432"/>
			<point x="578" y="443"/>
			<point x="578" y="454" type="curve" smooth="yes"/>
			<point x="578" y="503"/>
			<point x="538" y="543"/>
			<point x="489" y="543" type="curve" smooth="yes"/>
			<point x="448" y="543"/>
			<point x="413" y="515"/>
			<point x="403" y="478" type="curve" smooth="yes"/>
			<point x="310" y="143" type="line"/>
			<point x="216" y="477" type="line" smooth="yes"/>
			<point x="205" y="515"/>
			<point x="170" y="543"/>
			<point x="129" y="543" type="curve" smooth="yes"/>
			<point x="79" y="543"/>
			<point x="39" y="503"/>
			<point x="39" y="453" type="curve" smooth="yes"/>
			<point x="39" y="441"/>
			<point x="41" y="431"/>
			<point x="45" y="420" type="curve" smooth="yes"/>
			<point x="180" y="78" type="line" smooth="yes"/>
			<point x="200" y="27"/>
			<point x="250" y="-9"/>
			<point x="308" y="-9" type="curve" smooth="yes"/>
			<point x="366" y="-9"/>
			<point x="416" y="27"/>
		</contour>
	</outline>
</glyph>
<glyph name="x" format="2">
	<advance width="590"/>
	<unicode hex="0078"/>
	<note>
		x
	</note>
	<outline>
		<contour>
			<point x="507" y="123" type="curve" smooth="yes"/>
			<point x="407" y="269" type="line"/>
			<point x="506" y="412" type="line" smooth="yes"/>
			<point x="515" y="426"/>
			<point x="520" y="442"/>
			<point x="520" y="460" type="curve" smooth="yes"/>
			<point x="520" y="506"/>
			<point x="483" y="543"/>
			<point x="437" y="543" type="curve" smooth="yes"/>
			<point x="405" y="543"/>
			<point x="377" y="526"/>
			<point x="363" y="499" type="curve" smooth="yes"/>
			<point x="300" y="380" type="line"/>
			<point x="235" y="499" type="line" smooth="yes"/>
			<point x="221" y="525"/>
			<point x="193" y="543"/>
			<point x="161" y="543" type="curve" smooth="yes"/>
			<point x="114" y="543"/>
			<point x="76" y="505"/>
			<point x="76" y="458" type="curve" smooth="yes"/>
			<point x="76" y="440"/>
			<point x="81" y="424"/>
			<point x="90" y="410" type="curve" smooth="yes"/>
			<point x="185" y="271" type="line"/>
			<point x="83" y="122" type="line" smooth="yes"/>
			<point x="74" y="108"/>
			<point x="68" y="92"/>
			<point x="68" y="75" type="curve" smooth="yes"/>
			<point x="68" y="28"/>
			<point x="106" y="-9"/>
			<point x="152" y="-9" type="curve" smooth="yes"/>
			<point x="183" y="-9"/>
			<point x="211" y="8"/>
			<point x="225" y="34" type="curve" smooth="yes"/>
			<point x="296" y="161" type="line"/>
			<point x="362" y="36" type="line" smooth="yes"/>
			<point x="376" y="10"/>
			<point x="404" y="-9"/>
			<point x="437" y="-9" type="curve" smooth="yes"/>
			<point x="483" y="-9"/>
			<point x="521" y="29"/>
			<point x="521" y="76" type="curve" smooth="yes"/>
			<point x="521" y="93"/>
			<point x="516" y="109"/>
		</contour>
	</outline>
</glyph>
<glyph name="braceleft" format="2">
	<advance width="430"/>
	<unicode hex="007B"/>
	<note>
		braceleft
	</note>
	<outline>
		<contour>
			<point x="362" y="703" type="curve" smooth="yes"/>
			<point x="368" y="711"/>
			<point x="372" y="721"/>
			<point x="372" y="732" type="curve" smooth="yes"/>
			<point x="372" y="760"/>
			<point x="349" y="783"/>
			<point x="321" y="783" type="curve" smooth="yes"/>
			<point x="293" y="783"/>
			<point x="270" y="760"/>
			<point x="270" y="732" type="curve" smooth="yes"/>
			<point x="270" y="704"/>
			<point x="293" y="681"/>
			<point x="321" y="681" type="curve" smooth="yes"/>
			<point x="324" y="681"/>
			<point x="323" y="706"/>
			<point x="321" y="730" type="curve" smooth="yes"/>
			<point x="320" y="763"/>
			<point x="316" y="780"/>
			<point x="309" y="780" type="curve" smooth="yes"/>
			<point x="209" y="780"/>
			<point x="174" y="743"/>
			<point x="174" y="664" type="curve" smooth="yes"/>
			<point x="174" y="630"/>
			<point x="178" y="597"/>
			<point x="186" y="545" type="curve" smooth="yes"/>
			<point x="192" y="505"/>
			<point x="195" y="478"/>
			<point x="195" y="455" type="curve" smooth="yes"/>
			<point x="195" y="435"/>
			<point x="187" y="414"/>
			<point x="146" y="404" type="curve" smooth="yes"/>
			<point x="122" y="398"/>
			<point x="104" y="376"/>
			<point x="104" y="350" type="curve" smooth="yes"/>
			<point x="104" y="324"/>
			<point x="122" y="302"/>
			<point x="146" y="296" type="curve" smooth="yes"/>
			<point x="187" y="286"/>
			<point x="195" y="265"/>
			<point x="195" y="245" type="curve" smooth="yes"/>
			<point x="195" y="222"/>
			<point x="192" y="195"/>
			<point x="186" y="155" type="curve" smooth="yes"/>
			<point x="178" y="103"/>
			<point x="174" y="70"/>
			<point x="174" y="36" type="curve" smooth="yes"/>
			<point x="174" y="-43"/>
			<point x="209" y="-80"/>
			<point x="309" y="-80" type="curve" smooth="yes"/>
			<point x="321" y="-80" type="line" smooth="yes"/>
			<point x="347" y="-80"/>
			<point x="369" y="-59"/>
			<point x="369" y="-32" type="curve" smooth="yes"/>
			<point x="369" y="-22"/>
			<point x="366" y="-12"/>
			<point x="361" y="-3" type="curve" smooth="yes"/>
			<point x="349" y="15"/>
			<point x="303" y="-7"/>
			<point x="279" y="31" type="curve" smooth="yes"/>
			<point x="275" y="37"/>
			<point x="274" y="45"/>
			<point x="274" y="56" type="curve" smooth="yes"/>
			<point x="274" y="70"/>
			<point x="276" y="91"/>
			<point x="284" y="145" type="curve" smooth="yes"/>
			<point x="291" y="190"/>
			<point x="295" y="232"/>
			<point x="295" y="248" type="curve" smooth="yes"/>
			<point x="295" y="303"/>
			<point x="268" y="339"/>
			<point x="210" y="353" type="curve"/>
			<point x="268" y="365"/>
			<point x="295" y="397"/>
			<point x="295" y="452" type="curve" smooth="yes"/>
			<point x="295" y="468"/>
			<point x="291" y="510"/>
			<point x="284" y="555" type="curve" smooth="yes"/>
			<point x="276" y="609"/>
			<point x="274" y="630"/>
			<point x="274" y="644" type="curve" smooth="yes"/>
			<point x="274" y="664"/>
			<point x="279" y="674"/>
			<point x="293" y="679" type="curve" smooth="yes"/>
			<point x="324" y="691"/>
			<point x="349" y="684"/>
		</contour>
	</outline>
</glyph>
<glyph name="asciitilde" format="2">
	<advance width="662"/>
	<unicode hex="007E"/>
	<note>
		asciitilde
	</note>
	<outline>
		<contour>
			<point x="481" y="398"/>
			<point x="477" y="375" type="curve" smooth="yes"/>
			<point x="472" y="341"/>
			<point x="458" y="330"/>
			<point x="435" y="330" type="curve" smooth="yes"/>
			<point x="412" y="330"/>
			<point x="390" y="341"/>
			<point x="345" y="365" type="curve" smooth="yes"/>
			<point x="297" y="390"/>
			<point x="264" y="406"/>
			<point x="219" y="406" type="curve" smooth="yes"/>
			<point x="146" y="406"/>
			<point x="101" y="364"/>
			<point x="90" y="268" type="curve" smooth="yes"/>
			<point x="87" y="241"/>
			<point x="108" y="214"/>
			<point x="138" y="214" type="curve" smooth="yes"/>
			<point x="162" y="214"/>
			<point x="182" y="231"/>
			<point x="186" y="254" type="curve" smooth="yes"/>
			<point x="191" y="285"/>
			<point x="203" y="299"/>
			<point x="228" y="299" type="curve" smooth="yes"/>
			<point x="248" y="299"/>
			<point x="268" y="290"/>
			<point x="318" y="264" type="curve" smooth="yes"/>
			<point x="369" y="238"/>
			<point x="401" y="223"/>
			<point x="444" y="223" type="curve" smooth="yes"/>
			<point x="517" y="223"/>
			<point x="561" y="265"/>
			<point x="573" y="361" type="curve" smooth="yes"/>
			<point x="576" y="388"/>
			<point x="555" y="415"/>
			<point x="525" y="415" type="curve" smooth="yes"/>
			<point x="501" y="415"/>
		</contour>
	</outline>
</glyph>
<glyph name="exclamdown" format="2">
	<advance width="280"/>
	<unicode hex="00A1"/>
	<note>
		exclamdown
	</note>
	<outline>
		<contour>
			<point x="71" y="299"/>
			<point x="70" y="260" type="curve" smooth="yes"/>
			<point x="61" y="-88" type="line" smooth="yes"/>
			<point x="60" y="-128"/>
			<point x="92" y="-169"/>
			<point x="140" y="-169" type="curve" smooth="yes"/>
			<point x="188" y="-169"/>
			<point x="220" y="-128"/>
			<point x="219" y="-88" type="curve" smooth="yes"/>
			<point x="210" y="260" type="line" smooth="yes"/>
			<point x="209" y="299"/>
			<point x="178" y="329"/>
			<point x="140" y="329" type="curve" smooth="yes"/>
			<point x="102" y="329"/>
		</contour>
		<contour>
			<point x="88" y="369"/>
			<point x="132" y="356" type="curve" smooth="yes"/>
			<point x="137" y="355"/>
			<point x="144" y="354"/>
			<point x="150" y="354" type="curve" smooth="yes"/>
			<point x="187" y="354"/>
			<point x="216" y="384"/>
			<point x="216" y="420" type="curve" smooth="yes"/>
			<point x="216" y="484" type="line" smooth="yes"/>
			<point x="216" y="520"/>
			<point x="187" y="550"/>
			<point x="150" y="550" type="curve" smooth="yes"/>
			<point x="144" y="550"/>
			<point x="137" y="549"/>
			<point x="132" y="548" type="curve" smooth="yes"/>
			<point x="88" y="535"/>
			<point x="54" y="497"/>
			<point x="54" y="452" type="curve" smooth="yes"/>
			<point x="54" y="407"/>
		</contour>
	</outline>
</glyph>
<glyph name="cent" format="2">
	<advance width="662"/>
	<unicode hex="00A2"/>
	<note>
		cent
	</note>
	<outline>
		<contour>
			<point x="447" y="191"/>
			<point x="435" y="166" type="curve" smooth="yes"/>
			<point x="424" y="143"/>
			<point x="407" y="128"/>
			<point x="388" y="119" type="curve"/>
			<point x="388" y="412" type="line"/>
			<point x="408" y="403"/>
			<point x="426" y="388"/>
			<point x="438" y="361" type="curve" smooth="yes"/>
			<point x="449" y="335"/>
			<point x="475" y="316"/>
			<point x="506" y="316" type="curve" smooth="yes"/>
			<point x="547" y="316"/>
			<point x="580" y="349"/>
			<point x="580" y="390" type="curve" smooth="yes"/>
			<point x="580" y="403"/>
			<point x="577" y="417"/>
			<point x="571" y="428" type="curve" smooth="yes"/>
			<point x="536" y="488"/>
			<point x="473" y="531"/>
			<point x="388" y="541" type="curve"/>
			<point x="388" y="579" type="line" smooth="yes"/>
			<point x="388" y="606"/>
			<point x="366" y="629"/>
			<point x="338" y="629" type="curve" smooth="yes"/>
			<point x="310" y="629"/>
			<point x="288" y="606"/>
			<point x="288" y="579" type="curve" smooth="yes"/>
			<point x="288" y="539" type="line"/>
			<point x="159" y="518"/>
			<point x="63" y="420"/>
			<point x="63" y="259" type="curve" smooth="yes"/>
			<point x="63" y="108"/>
			<point x="157" y="7"/>
			<point x="288" y="-11" type="curve"/>
			<point x="288" y="-49" type="line" smooth="yes"/>
			<point x="288" y="-76"/>
			<point x="310" y="-99"/>
			<point x="338" y="-99" type="curve" smooth="yes"/>
			<point x="366" y="-99"/>
			<point x="388" y="-76"/>
			<point x="388" y="-49" type="curve" smooth="yes"/>
			<point x="388" y="-10" type="line"/>
			<point x="463" y="0"/>
			<point x="525" y="34"/>
			<point x="563" y="91" type="curve" smooth="yes"/>
			<point x="571" y="103"/>
			<point x="576" y="117"/>
			<point x="576" y="133" type="curve" smooth="yes"/>
			<point x="576" y="174"/>
			<point x="542" y="207"/>
			<point x="501" y="207" type="curve" smooth="yes"/>
			<point x="472" y="207"/>
		</contour>
		<contour>
			<point x="227" y="270" type="curve" smooth="yes"/>
			<point x="227" y="341"/>
			<point x="252" y="387"/>
			<point x="288" y="408" type="curve"/>
			<point x="288" y="123" type="line"/>
			<point x="252" y="145"/>
			<point x="227" y="192"/>
		</contour>
	</outline>
</glyph>
<glyph name="yen" format="2">
	<advance width="662"/>
	<unicode hex="00A5"/>
	<note>
		yen
	</note>
	<outline>
		<contour>
			<point x="532" y="380" type="curve" smooth="yes"/>
			<point x="466" y="380" type="line"/>
			<point x="580" y="585" type="line" smooth="yes"/>
			<point x="586" y="596"/>
			<point x="589" y="609"/>
			<point x="589" y="622" type="curve" smooth="yes"/>
			<point x="589" y="665"/>
			<point x="555" y="699"/>
			<point x="512" y="699" type="curve" smooth="yes"/>
			<point x="480" y="699"/>
			<point x="452" y="679"/>
			<point x="441" y="651" type="curve" smooth="yes"/>
			<point x="335" y="390" type="line"/>
			<point x="227" y="650" type="line" smooth="yes"/>
			<point x="215" y="678"/>
			<point x="186" y="699"/>
			<point x="153" y="699" type="curve" smooth="yes"/>
			<point x="110" y="699"/>
			<point x="74" y="664"/>
			<point x="74" y="620" type="curve" smooth="yes"/>
			<point x="74" y="606"/>
			<point x="78" y="592"/>
			<point x="84" y="581" type="curve" smooth="yes"/>
			<point x="196" y="380" type="line"/>
			<point x="130" y="380" type="line" smooth="yes"/>
			<point x="104" y="380"/>
			<point x="82" y="359"/>
			<point x="82" y="332" type="curve" smooth="yes"/>
			<point x="82" y="305"/>
			<point x="104" y="284"/>
			<point x="130" y="284" type="curve" smooth="yes"/>
			<point x="241" y="284" type="line"/>
			<point x="241" y="227" type="line"/>
			<point x="130" y="227" type="line" smooth="yes"/>
			<point x="104" y="227"/>
			<point x="82" y="206"/>
			<point x="82" y="179" type="curve" smooth="yes"/>
			<point x="82" y="152"/>
			<point x="104" y="131"/>
			<point x="130" y="131" type="curve" smooth="yes"/>
			<point x="241" y="131" type="line"/>
			<point x="241" y="81" type="line" smooth="yes"/>
			<point x="241" y="32"/>
			<point x="281" y="-9"/>
			<point x="331" y="-9" type="curve" smooth="yes"/>
			<point x="381" y="-9"/>
			<point x="421" y="32"/>
			<point x="421" y="81" type="curve" smooth="yes"/>
			<point x="421" y="131" type="line"/>
			<point x="532" y="131" type="line" smooth="yes"/>
			<point x="558" y="131"/>
			<point x="580" y="152"/>
			<point x="580" y="179" type="curve" smooth="yes"/>
			<point x="580" y="206"/>
			<point x="558" y="227"/>
			<point x="532" y="227" type="curve" smooth="yes"/>
			<point x="421" y="227" type="line"/>
			<point x="421" y="284" type="line"/>
			<point x="532" y="284" type="line" smooth="yes"/>
			<point x="558" y="284"/>
			<point x="580" y="305"/>
			<point x="580" y="332" type="curve" smooth="yes"/>
			<point x="580" y="359"/>
			<point x="558" y="380"/>
		</contour>
	</outline>
</glyph>
<glyph name="brokenbar" format="2">
	<advance width="296"/>
	<unicode hex="00A6"/>
	<note>
		brokenbar
	</note>
	<outline>
		<contour>
			<point x="198" y="364"/>
			<point x="198" y="391" type="curve" smooth="yes"/>
			<point x="198" y="649" type="line" smooth="yes"/>
			<point x="198" y="676"/>
			<point x="176" y="699"/>
			<point x="148" y="699" type="curve" smooth="yes"/>
			<point x="120" y="699"/>
			<point x="98" y="676"/>
			<point x="98" y="649" type="curve" smooth="yes"/>
			<point x="98" y="391" type="line" smooth="yes"/>
			<point x="98" y="364"/>
			<point x="120" y="341"/>
			<point x="148" y="341" type="curve" smooth="yes"/>
			<point x="176" y="341"/>
		</contour>
		<contour>
			<point x="198" y="-146"/>
			<point x="198" y="-119" type="curve" smooth="yes"/>
			<point x="198" y="139" type="line" smooth="yes"/>
			<point x="198" y="166"/>
			<point x="176" y="189"/>
			<point x="148" y="189" type="curve" smooth="yes"/>
			<point x="120" y="189"/>
			<point x="98" y="166"/>
			<point x="98" y="139" type="curve" smooth="yes"/>
			<point x="98" y="-119" type="line" smooth="yes"/>
			<point x="98" y="-146"/>
			<point x="120" y="-169"/>
			<point x="148" y="-169" type="curve" smooth="yes"/>
			<point x="176" y="-169"/>
		</contour>
	</outline>
</glyph>
<glyph name="section" format="2">
	<advance width="630"/>
	<unicode hex="00A7"/>
	<note>
		section
	</note>
	<outline>
		<contour>
			<point x="607" y="234" type="curve" smooth="yes"/>
			<point x="607" y="341"/>
			<point x="537" y="398"/>
			<point x="386" y="438" type="curve" smooth="yes"/>
			<point x="284" y="465"/>
			<point x="263" y="485"/>
			<point x="263" y="536" type="curve" smooth="yes"/>
			<point x="263" y="572"/>
			<point x="283" y="592"/>
			<point x="308" y="592" type="curve" smooth="yes"/>
			<point x="329" y="592"/>
			<point x="343" y="583"/>
			<point x="353" y="561" type="curve" smooth="yes"/>
			<point x="364" y="535"/>
			<point x="391" y="516"/>
			<point x="422" y="516" type="curve" smooth="yes"/>
			<point x="463" y="516"/>
			<point x="497" y="550"/>
			<point x="497" y="592" type="curve" smooth="yes"/>
			<point x="497" y="614"/>
			<point x="490" y="638"/>
			<point x="475" y="652" type="curve" smooth="yes"/>
			<point x="438" y="685"/>
			<point x="385" y="704"/>
			<point x="318" y="704" type="curve" smooth="yes"/>
			<point x="176" y="704"/>
			<point x="83" y="621"/>
			<point x="83" y="505" type="curve" smooth="yes"/>
			<point x="83" y="481"/>
			<point x="88" y="460"/>
			<point x="98" y="441" type="curve"/>
			<point x="50" y="408"/>
			<point x="22" y="358"/>
			<point x="22" y="296" type="curve" smooth="yes"/>
			<point x="22" y="183"/>
			<point x="91" y="139"/>
			<point x="211" y="102" type="curve" smooth="yes"/>
			<point x="337" y="63"/>
			<point x="365" y="33"/>
			<point x="365" y="-9" type="curve" smooth="yes"/>
			<point x="365" y="-44"/>
			<point x="340" y="-62"/>
			<point x="308" y="-62" type="curve" smooth="yes"/>
			<point x="281" y="-62"/>
			<point x="256" y="-48"/>
			<point x="241" y="-22" type="curve" smooth="yes"/>
			<point x="228" y="1"/>
			<point x="204" y="16"/>
			<point x="176" y="16" type="curve" smooth="yes"/>
			<point x="135" y="16"/>
			<point x="101" y="-18"/>
			<point x="101" y="-59" type="curve" smooth="yes"/>
			<point x="101" y="-84"/>
			<point x="110" y="-112"/>
			<point x="128" y="-125" type="curve" smooth="yes"/>
			<point x="173" y="-158"/>
			<point x="235" y="-174"/>
			<point x="306" y="-174" type="curve" smooth="yes"/>
			<point x="441" y="-174"/>
			<point x="545" y="-107"/>
			<point x="545" y="8" type="curve" smooth="yes"/>
			<point x="545" y="39"/>
			<point x="538" y="65"/>
			<point x="523" y="87" type="curve"/>
			<point x="574" y="117"/>
			<point x="607" y="166"/>
		</contour>
		<contour>
			<point x="303" y="214" type="curve" smooth="yes"/>
			<point x="235" y="237"/>
			<point x="202" y="259"/>
			<point x="202" y="302" type="curve" smooth="yes"/>
			<point x="202" y="322"/>
			<point x="207" y="337"/>
			<point x="217" y="347" type="curve"/>
			<point x="245" y="335"/>
			<point x="276" y="324"/>
			<point x="313" y="314" type="curve" smooth="yes"/>
			<point x="398" y="290"/>
			<point x="427" y="262"/>
			<point x="427" y="218" type="curve" smooth="yes"/>
			<point x="427" y="198"/>
			<point x="419" y="184"/>
			<point x="407" y="174" type="curve"/>
			<point x="377" y="188"/>
			<point x="342" y="201"/>
		</contour>
	</outline>
</glyph>
<glyph name="logicalnot" format="2">
	<advance width="662"/>
	<unicode hex="00AC"/>
	<note>
		logicalnot
	</note>
	<outline>
		<contour>
			<point x="482" y="163"/>
			<point x="511" y="217" type="line" smooth="yes"/>
			<point x="533" y="258"/>
			<point x="549" y="291"/>
			<point x="526" y="333" type="curve" smooth="yes"/>
			<point x="505" y="372"/>
			<point x="463" y="399"/>
			<point x="415" y="399" type="curve" smooth="yes"/>
			<point x="344" y="399"/>
			<point x="287" y="342"/>
			<point x="287" y="272" type="curve" smooth="yes"/>
			<point x="287" y="201"/>
			<point x="344" y="144"/>
			<point x="415" y="144" type="curve" smooth="yes"/>
			<point x="429" y="144"/>
			<point x="420" y="232"/>
			<point x="414" y="304" type="curve" smooth="yes"/>
			<point x="409" y="366"/>
			<point x="381" y="398"/>
			<point x="320" y="398" type="curve" smooth="yes"/>
			<point x="159" y="398" type="line" smooth="yes"/>
			<point x="133" y="398"/>
			<point x="111" y="377"/>
			<point x="111" y="350" type="curve" smooth="yes"/>
			<point x="111" y="323"/>
			<point x="133" y="302"/>
			<point x="159" y="302" type="curve" smooth="yes"/>
			<point x="432" y="302" type="line"/>
			<point x="432" y="213" type="line" smooth="yes"/>
			<point x="432" y="186"/>
			<point x="454" y="163"/>
		</contour>
	</outline>
</glyph>
<glyph name="macron" format="2">
	<advance width="300"/>
	<unicode hex="00AF"/>
	<note>
		macron
	</note>
	<outline>
		<contour>
			<point x="39" y="586" type="curve" smooth="yes"/>
			<point x="261" y="586" type="line" smooth="yes"/>
			<point x="287" y="586"/>
			<point x="309" y="607"/>
			<point x="309" y="634" type="curve" smooth="yes"/>
			<point x="309" y="661"/>
			<point x="287" y="682"/>
			<point x="261" y="682" type="curve" smooth="yes"/>
			<point x="39" y="682" type="line" smooth="yes"/>
			<point x="13" y="682"/>
			<point x="-9" y="661"/>
			<point x="-9" y="634" type="curve" smooth="yes"/>
			<point x="-9" y="607"/>
			<point x="13" y="586"/>
		</contour>
	</outline>
</glyph>
<glyph name="degree" format="2">
	<advance width="320"/>
	<unicode hex="00B0"/>
	<note>
		degree
	</note>
	<outline>
		<contour>
			<point x="160" y="704" type="curve" smooth="yes"/>
			<point x="78" y="704"/>
			<point x="20" y="648"/>
			<point x="20" y="569" type="curve" smooth="yes"/>
			<point x="20" y="490"/>
			<point x="78" y="434"/>
			<point x="160" y="434" type="curve" smooth="yes"/>
			<point x="242" y="434"/>
			<point x="300" y="490"/>
			<point x="300" y="569" type="curve" smooth="yes"/>
			<point x="300" y="648"/>
			<point x="242" y="704"/>
		</contour>
		<contour>
			<point x="160" y="616" type="curve" smooth="yes"/>
			<point x="184" y="616"/>
			<point x="206" y="597"/>
			<point x="206" y="569" type="curve" smooth="yes"/>
			<point x="206" y="541"/>
			<point x="184" y="522"/>
			<point x="160" y="522" type="curve" smooth="yes"/>
			<point x="136" y="522"/>
			<point x="114" y="541"/>
			<point x="114" y="569" type="curve" smooth="yes"/>
			<point x="114" y="597"/>
			<point x="136" y="616"/>
		</contour>
	</outline>
</glyph>
<glyph name="plusminus" format="2">
	<advance width="662"/>
	<unicode hex="00B1"/>
	<note>
		plusminus
	</note>
	<outline>
		<contour>
			<point x="492" y="366" type="curve" smooth="yes"/>
			<point x="381" y="366" type="line"/>
			<point x="381" y="467" type="line" smooth="yes"/>
			<point x="381" y="494"/>
			<point x="359" y="517"/>
			<point x="331" y="517" type="curve" smooth="yes"/>
			<point x="303" y="517"/>
			<point x="281" y="494"/>
			<point x="281" y="467" type="curve" smooth="yes"/>
			<point x="281" y="366" type="line"/>
			<point x="170" y="366" type="line" smooth="yes"/>
			<point x="144" y="366"/>
			<point x="122" y="345"/>
			<point x="122" y="318" type="curve" smooth="yes"/>
			<point x="122" y="291"/>
			<point x="144" y="270"/>
			<point x="170" y="270" type="curve" smooth="yes"/>
			<point x="281" y="270" type="line"/>
			<point x="281" y="167" type="line" smooth="yes"/>
			<point x="281" y="140"/>
			<point x="303" y="117"/>
			<point x="331" y="117" type="curve" smooth="yes"/>
			<point x="359" y="117"/>
			<point x="381" y="140"/>
			<point x="381" y="167" type="curve" smooth="yes"/>
			<point x="381" y="270" type="line"/>
			<point x="492" y="270" type="line" smooth="yes"/>
			<point x="518" y="270"/>
			<point x="540" y="291"/>
			<point x="540" y="318" type="curve" smooth="yes"/>
			<point x="540" y="345"/>
			<point x="518" y="366"/>
		</contour>
		<contour>
			<point x="166" y="0" type="curve" smooth="yes"/>
			<point x="496" y="0" type="line" smooth="yes"/>
			<point x="520" y="0"/>
			<point x="540" y="20"/>
			<point x="540" y="44" type="curve" smooth="yes"/>
			<point x="540" y="68"/>
			<point x="520" y="88"/>
			<point x="496" y="88" type="curve" smooth="yes"/>
			<point x="166" y="88" type="line" smooth="yes"/>
			<point x="142" y="88"/>
			<point x="122" y="68"/>
			<point x="122" y="44" type="curve" smooth="yes"/>
			<point x="122" y="20"/>
			<point x="142" y="0"/>
		</contour>
	</outline>
</glyph>
<glyph name="paragraph" format="2">
	<advance width="618"/>
	<unicode hex="00B6"/>
	<note>
		paragraph
	</note>
	<outline>
		<contour>
			<point x="564" y="-69" type="curve" smooth="yes"/>
			<point x="564" y="595" type="line" smooth="yes"/>
			<point x="564" y="656"/>
			<point x="530" y="690"/>
			<point x="469" y="690" type="curve" smooth="yes"/>
			<point x="251" y="690" type="line" smooth="yes"/>
			<point x="233" y="690"/>
			<point x="212" y="690"/>
			<point x="195" y="689" type="curve" smooth="yes"/>
			<point x="93" y="683"/>
			<point x="38" y="600"/>
			<point x="38" y="505" type="curve" smooth="yes"/>
			<point x="38" y="410"/>
			<point x="93" y="327"/>
			<point x="195" y="321" type="curve" smooth="yes"/>
			<point x="212" y="320"/>
			<point x="233" y="320"/>
			<point x="251" y="320" type="curve"/>
			<point x="251" y="-69" type="line" smooth="yes"/>
			<point x="251" y="-96"/>
			<point x="273" y="-119"/>
			<point x="301" y="-119" type="curve" smooth="yes"/>
			<point x="329" y="-119"/>
			<point x="351" y="-96"/>
			<point x="351" y="-69" type="curve" smooth="yes"/>
			<point x="351" y="594" type="line"/>
			<point x="464" y="594" type="line"/>
			<point x="464" y="-69" type="line" smooth="yes"/>
			<point x="464" y="-96"/>
			<point x="486" y="-119"/>
			<point x="514" y="-119" type="curve" smooth="yes"/>
			<point x="542" y="-119"/>
			<point x="564" y="-96"/>
		</contour>
	</outline>
</glyph>
<glyph name="guillemotright" format="2">
	<advance width="664"/>
	<unicode hex="00BB"/>
	<note>
		guillemotright
	</note>
	<outline>
		<contour>
			<point x="261" y="296"/>
			<point x="250" y="322" type="curve" smooth="yes"/>
			<point x="239" y="351"/>
			<point x="219" y="376"/>
			<point x="195" y="395" type="curve" smooth="yes"/>
			<point x="160" y="422"/>
			<point x="111" y="431"/>
			<point x="95" y="391" type="curve" smooth="yes"/>
			<point x="93" y="385"/>
			<point x="92" y="379"/>
			<point x="92" y="373" type="curve" smooth="yes"/>
			<point x="92" y="361"/>
			<point x="97" y="350"/>
			<point x="104" y="342" type="curve" smooth="yes"/>
			<point x="181" y="248" type="line"/>
			<point x="113" y="165" type="line" smooth="yes"/>
			<point x="76" y="120"/>
			<point x="75" y="82"/>
			<point x="110" y="82" type="curve" smooth="yes"/>
			<point x="197" y="82"/>
			<point x="269" y="153"/>
			<point x="269" y="241" type="curve" smooth="yes"/>
			<point x="269" y="269"/>
		</contour>
		<contour>
			<point x="501" y="296"/>
			<point x="490" y="322" type="curve" smooth="yes"/>
			<point x="479" y="351"/>
			<point x="459" y="376"/>
			<point x="435" y="395" type="curve" smooth="yes"/>
			<point x="400" y="422"/>
			<point x="351" y="431"/>
			<point x="335" y="391" type="curve" smooth="yes"/>
			<point x="333" y="385"/>
			<point x="332" y="379"/>
			<point x="332" y="373" type="curve" smooth="yes"/>
			<point x="332" y="361"/>
			<point x="337" y="350"/>
			<point x="344" y="342" type="curve" smooth="yes"/>
			<point x="421" y="248" type="line"/>
			<point x="353" y="165" type="line" smooth="yes"/>
			<point x="316" y="120"/>
			<point x="315" y="82"/>
			<point x="350" y="82" type="curve" smooth="yes"/>
			<point x="437" y="82"/>
			<point x="509" y="153"/>
			<point x="509" y="241" type="curve" smooth="yes"/>
			<point x="509" y="269"/>
		</contour>
	</outline>
</glyph>
<glyph name="Atilde" format="2">
	<advance width="707"/>
	<unicode hex="00C3"/>
	<note>
		Atilde
	</note>
	<outline>
		<contour>
			<point x="310" y="773" type="curve" smooth="yes"/>
			<point x="318" y="773"/>
			<point x="331" y="768"/>
			<point x="355" y="758" type="curve" smooth="yes"/>
			<point x="392" y="742"/>
			<point x="408" y="739"/>
			<point x="437" y="739" type="curve" smooth="yes"/>
			<point x="486" y="739"/>
			<point x="514" y="765"/>
			<point x="523" y="826" type="curve" smooth="yes"/>
			<point x="527" y="855"/>
			<point x="505" y="882"/>
			<point x="475" y="882" type="curve" smooth="yes"/>
			<point x="454" y="882"/>
			<point x="435" y="869"/>
			<point x="428" y="851" type="curve" smooth="yes"/>
			<point x="425" y="844"/>
			<point x="422" y="842"/>
			<point x="416" y="842" type="curve" smooth="yes"/>
			<point x="408" y="842"/>
			<point x="395" y="846"/>
			<point x="371" y="857" type="curve" smooth="yes"/>
			<point x="335" y="873"/>
			<point x="318" y="876"/>
			<point x="289" y="876" type="curve" smooth="yes"/>
			<point x="240" y="876"/>
			<point x="212" y="850"/>
			<point x="203" y="789" type="curve" smooth="yes"/>
			<point x="199" y="760"/>
			<point x="221" y="733"/>
			<point x="251" y="733" type="curve" smooth="yes"/>
			<point x="272" y="733"/>
			<point x="291" y="746"/>
			<point x="298" y="764" type="curve" smooth="yes"/>
			<point x="301" y="771"/>
			<point x="304" y="773"/>
		</contour>
		<contour>
			<point x="253" y="179" type="line"/>
			<point x="468" y="179" type="line"/>
			<point x="508" y="54" type="line" smooth="yes"/>
			<point x="520" y="18"/>
			<point x="555" y="-9"/>
			<point x="595" y="-9" type="curve" smooth="yes"/>
			<point x="646" y="-9"/>
			<point x="687" y="32"/>
			<point x="687" y="82" type="curve" smooth="yes"/>
			<point x="687" y="93"/>
			<point x="684" y="103"/>
			<point x="681" y="113" type="curve" smooth="yes"/>
			<point x="500" y="614" type="line" smooth="yes"/>
			<point x="481" y="665"/>
			<point x="447" y="690"/>
			<point x="392" y="690" type="curve" smooth="yes"/>
			<point x="334" y="690" type="line" smooth="yes"/>
			<point x="279" y="690"/>
			<point x="245" y="665"/>
			<point x="226" y="614" type="curve" smooth="yes"/>
			<point x="44" y="110" type="line" smooth="yes"/>
			<point x="41" y="101"/>
			<point x="38" y="91"/>
			<point x="38" y="80" type="curve" smooth="yes"/>
			<point x="38" y="31"/>
			<point x="78" y="-9"/>
			<point x="127" y="-9" type="curve" smooth="yes"/>
			<point x="167" y="-9"/>
			<point x="201" y="18"/>
			<point x="212" y="53" type="curve" smooth="yes"/>
		</contour>
		<contour>
			<point x="297" y="319" type="line"/>
			<point x="361" y="531" type="line"/>
			<point x="425" y="319" type="line"/>
		</contour>
	</outline>
</glyph>
<glyph name="Adieresis" format="2">
	<advance width="707"/>
	<unicode hex="00C4"/>
	<note>
		Adieresis
	</note>
	<outline>
		<contour>
			<point x="253" y="179" type="line"/>
			<point x="468" y="179" type="line"/>
			<point x="508" y="54" type="line" smooth="yes"/>
			<point x="520" y="18"/>
			<point x="555" y="-9"/>
			<point x="595" y="-9" type="curve" smooth="yes"/>
			<point x="646" y="-9"/>
			<point x="687" y="32"/>
			<point x="687" y="82" type="curve" smooth="yes"/>
			<point x="687" y="93"/>
			<point x="684" y="103"/>
			<point x="681" y="113" type="curve" smooth="yes"/>
			<point x="500" y="614" type="line" smooth="yes"/>
			<point x="481" y="665"/>
			<point x="447" y="690"/>
			<point x="392" y="690" type="curve" smooth="yes"/>
			<point x="334" y="690" type="line" smooth="yes"/>
			<point x="279" y="690"/>
			<point x="245" y="665"/>
			<point x="226" y="614" type="curve" smooth="yes"/>
			<point x="44" y="110" type="line" smooth="yes"/>
			<point x="41" y="101"/>
			<point x="38" y="91"/>
			<point x="38" y="80" type="curve" smooth="yes"/>
			<point x="38" y="31"/>
			<point x="78" y="-9"/>
			<point x="127" y="-9" type="curve" smooth="yes"/>
			<point x="167" y="-9"/>
			<point x="201" y="18"/>
			<point x="212" y="53" type="curve" smooth="yes"/>
		</contour>
		<contour>
			<point x="297" y="319" type="line"/>
			<point x="361" y="531" type="line"/>
			<point x="425" y="319" type="line"/>
		</contour>
		<contour>
			<point x="214" y="724"/>
			<point x="254" y="724" type="curve" smooth="yes"/>
			<point x="276" y="724" type="line" smooth="yes"/>
			<point x="315" y="724"/>
			<point x="348" y="756"/>
			<point x="348" y="796" type="curve" smooth="yes"/>
			<point x="348" y="806"/>
			<point x="346" y="816"/>
			<point x="342" y="824" type="curve" smooth="yes"/>
			<point x="328" y="856"/>
			<point x="299" y="880"/>
			<point x="264" y="880" type="curve" smooth="yes"/>
			<point x="252" y="880"/>
			<point x="241" y="877"/>
			<point x="231" y="872" type="curve" smooth="yes"/>
			<point x="202" y="858"/>
			<point x="180" y="830"/>
			<point x="180" y="798" type="curve" smooth="yes"/>
			<point x="180" y="757"/>
		</contour>
		<contour>
			<point x="415" y="724"/>
			<point x="455" y="724" type="curve" smooth="yes"/>
			<point x="477" y="724" type="line" smooth="yes"/>
			<point x="516" y="724"/>
			<point x="549" y="756"/>
			<point x="549" y="796" type="curve" smooth="yes"/>
			<point x="549" y="806"/>
			<point x="547" y="816"/>
			<point x="543" y="824" type="curve" smooth="yes"/>
			<point x="529" y="856"/>
			<point x="500" y="880"/>
			<point x="465" y="880" type="curve" smooth="yes"/>
			<point x="453" y="880"/>
			<point x="442" y="877"/>
			<point x="432" y="872" type="curve" smooth="yes"/>
			<point x="403" y="858"/>
			<point x="381" y="830"/>
			<point x="381" y="798" type="curve" smooth="yes"/>
			<point x="381" y="757"/>
		</contour>
	</outline>
</glyph>
<glyph name="AE" format="2">
	<advance width="996"/>
	<unicode hex="00C6"/>
	<note>
		AE
	</note>
	<outline>
		<contour>
			<point x="943" y="140"/>
			<point x="905" y="140" type="curve" smooth="yes"/>
			<point x="634" y="140" type="line"/>
			<point x="618" y="276" type="line"/>
			<point x="875" y="276" type="line" smooth="yes"/>
			<point x="913" y="276"/>
			<point x="945" y="307"/>
			<point x="945" y="346" type="curve" smooth="yes"/>
			<point x="945" y="385"/>
			<point x="913" y="416"/>
			<point x="875" y="416" type="curve" smooth="yes"/>
			<point x="602" y="416" type="line"/>
			<point x="585" y="560" type="line"/>
			<point x="588" y="555" type="line" smooth="yes"/>
			<point x="590" y="551"/>
			<point x="614" y="550"/>
			<point x="666" y="550" type="curve" smooth="yes"/>
			<point x="895" y="550" type="line" smooth="yes"/>
			<point x="933" y="550"/>
			<point x="965" y="581"/>
			<point x="965" y="620" type="curve" smooth="yes"/>
			<point x="965" y="659"/>
			<point x="933" y="690"/>
			<point x="895" y="690" type="curve" smooth="yes"/>
			<point x="394" y="690" type="line" smooth="yes"/>
			<point x="341" y="690"/>
			<point x="306" y="669"/>
			<point x="282" y="622" type="curve" smooth="yes"/>
			<point x="17" y="114" type="line" smooth="yes"/>
			<point x="11" y="103"/>
			<point x="8" y="89"/>
			<point x="8" y="75" type="curve" smooth="yes"/>
			<point x="8" y="29"/>
			<point x="45" y="-9"/>
			<point x="92" y="-9" type="curve" smooth="yes"/>
			<point x="125" y="-9"/>
			<point x="154" y="11"/>
			<point x="167" y="39" type="curve" smooth="yes"/>
			<point x="248" y="209" type="line"/>
			<point x="446" y="209" type="line"/>
			<point x="460" y="89" type="line" smooth="yes"/>
			<point x="467" y="31"/>
			<point x="501" y="0"/>
			<point x="560" y="0" type="curve" smooth="yes"/>
			<point x="905" y="0" type="line" smooth="yes"/>
			<point x="943" y="0"/>
			<point x="975" y="31"/>
			<point x="975" y="70" type="curve" smooth="yes"/>
			<point x="975" y="109"/>
		</contour>
		<contour>
			<point x="407" y="543" type="line"/>
			<point x="430" y="349" type="line"/>
			<point x="315" y="349" type="line"/>
		</contour>
	</outline>
</glyph>
<glyph name="Ecircumflex" format="2">
	<advance width="639"/>
	<unicode hex="00CA"/>
	<note>
		Ecircumflex
	</note>
	<outline>
		<contour>
			<point x="308" y="737"/>
			<point x="315" y="754" type="curve" smooth="yes"/>
			<point x="339" y="811" type="line"/>
			<point x="356" y="773" type="line" smooth="yes"/>
			<point x="368" y="747"/>
			<point x="377" y="735"/>
			<point x="386" y="735" type="curve" smooth="yes"/>
			<point x="420" y="735"/>
			<point x="449" y="763"/>
			<point x="449" y="797" type="curve" smooth="yes"/>
			<point x="449" y="832"/>
			<point x="420" y="860"/>
			<point x="386" y="860" type="curve" smooth="yes"/>
			<point x="300" y="860" type="line" smooth="yes"/>
			<point x="256" y="860"/>
			<point x="224" y="822"/>
			<point x="227" y="784" type="curve"/>
			<point x="228" y="780"/>
			<point x="227" y="776"/>
			<point x="227" y="772" type="curve" smooth="yes"/>
			<point x="227" y="746"/>
			<point x="248" y="726"/>
			<point x="273" y="726" type="curve" smooth="yes"/>
			<point x="292" y="726"/>
		</contour>
		<contour>
			<point x="586" y="140"/>
			<point x="548" y="140" type="curve" smooth="yes"/>
			<point x="260" y="140" type="line"/>
			<point x="260" y="276" type="line"/>
			<point x="518" y="276" type="line" smooth="yes"/>
			<point x="556" y="276"/>
			<point x="588" y="307"/>
			<point x="588" y="346" type="curve" smooth="yes"/>
			<point x="588" y="385"/>
			<point x="556" y="416"/>
			<point x="518" y="416" type="curve" smooth="yes"/>
			<point x="260" y="416" type="line"/>
			<point x="260" y="550" type="line"/>
			<point x="538" y="550" type="line" smooth="yes"/>
			<point x="576" y="550"/>
			<point x="608" y="581"/>
			<point x="608" y="620" type="curve" smooth="yes"/>
			<point x="608" y="659"/>
			<point x="576" y="690"/>
			<point x="538" y="690" type="curve" smooth="yes"/>
			<point x="175" y="690" type="line" smooth="yes"/>
			<point x="114" y="690"/>
			<point x="80" y="656"/>
			<point x="80" y="595" type="curve" smooth="yes"/>
			<point x="80" y="95" type="line" smooth="yes"/>
			<point x="80" y="34"/>
			<point x="114" y="0"/>
			<point x="175" y="0" type="curve" smooth="yes"/>
			<point x="548" y="0" type="line" smooth="yes"/>
			<point x="586" y="0"/>
			<point x="618" y="31"/>
			<point x="618" y="70" type="curve" smooth="yes"/>
			<point x="618" y="109"/>
		</contour>
	</outline>
</glyph>
<glyph name="Edieresis" format="2">
	<advance width="639"/>
	<unicode hex="00CB"/>
	<note>
		Edieresis
	</note>
	<outline>
		<contour>
			<point x="586" y="140"/>
			<point x="548" y="140" type="curve" smooth="yes"/>
			<point x="260" y="140" type="line"/>
			<point x="260" y="276" type="line"/>
			<point x="518" y="276" type="line" smooth="yes"/>
			<point x="556" y="276"/>
			<point x="588" y="307"/>
			<point x="588" y="346" type="curve" smooth="yes"/>
			<point x="588" y="385"/>
			<point x="556" y="416"/>
			<point x="518" y="416" type="curve" smooth="yes"/>
			<point x="260" y="416" type="line"/>
			<point x="260" y="550" type="line"/>
			<point x="538" y="550" type="line" smooth="yes"/>
			<point x="576" y="550"/>
			<point x="608" y="581"/>
			<point x="608" y="620" type="curve" smooth="yes"/>
			<point x="608" y="659"/>
			<point x="576" y="690"/>
			<point x="538" y="690" type="curve" smooth="yes"/>
			<point x="175" y="690" type="line" smooth="yes"/>
			<point x="114" y="690"/>
			<point x="80" y="656"/>
			<point x="80" y="595" type="curve" smooth="yes"/>
			<point x="80" y="95" type="line" smooth="yes"/>
			<point x="80" y="34"/>
			<point x="114" y="0"/>
			<point x="175" y="0" type="curve" smooth="yes"/>
			<point x="548" y="0" type="line" smooth="yes"/>
			<point x="586" y="0"/>
			<point x="618" y="31"/>
			<point x="618" y="70" type="curve" smooth="yes"/>
			<point x="618" y="109"/>
		</contour>
		<contour>
			<point x="189" y="722"/>
			<point x="229" y="722" type="curve" smooth="yes"/>
			<point x="251" y="722" type="line" smooth="yes"/>
			<point x="290" y="722"/>
			<point x="323" y="754"/>
			<point x="323" y="794" type="curve" smooth="yes"/>
			<point x="323" y="804"/>
			<point x="321" y="814"/>
			<point x="317" y="822" type="curve" smooth="yes"/>
			<point x="303" y="854"/>
			<point x="274" y="878"/>
			<point x="239" y="878" type="curve" smooth="yes"/>
			<point x="227" y="878"/>
			<point x="216" y="875"/>
			<point x="206" y="870" type="curve" smooth="yes"/>
			<point x="177" y="856"/>
			<point x="155" y="828"/>
			<point x="155" y="796" type="curve" smooth="yes"/>
			<point x="155" y="755"/>
		</contour>
		<contour>
			<point x="390" y="722"/>
			<point x="430" y="722" type="curve" smooth="yes"/>
			<point x="452" y="722" type="line" smooth="yes"/>
			<point x="491" y="722"/>
			<point x="524" y="754"/>
			<point x="524" y="794" type="curve" smooth="yes"/>
			<point x="524" y="804"/>
			<point x="522" y="814"/>
			<point x="518" y="822" type="curve" smooth="yes"/>
			<point x="504" y="854"/>
			<point x="475" y="878"/>
			<point x="440" y="878" type="curve" smooth="yes"/>
			<point x="428" y="878"/>
			<point x="417" y="875"/>
			<point x="407" y="870" type="curve" smooth="yes"/>
			<point x="378" y="856"/>
			<point x="356" y="828"/>
			<point x="356" y="796" type="curve" smooth="yes"/>
			<point x="356" y="755"/>
		</contour>
	</outline>
</glyph>
<glyph name="Iacute" format="2">
	<advance width="314"/>
	<unicode hex="00CD"/>
	<note>
		Iacute
	</note>
	<outline>
		<contour>
			<point x="187" y="726"/>
			<point x="188" y="727" type="curve" smooth="yes"/>
			<point x="262" y="799"/>
			<point x="297" y="874"/>
			<point x="246" y="869" type="curve" smooth="yes"/>
			<point x="244" y="869"/>
			<point x="242" y="868"/>
			<point x="240" y="868" type="curve" smooth="yes"/>
			<point x="193" y="857"/>
			<point x="154" y="822"/>
			<point x="148" y="775" type="curve" smooth="yes"/>
			<point x="147" y="771"/>
			<point x="147" y="768"/>
			<point x="147" y="765" type="curve" smooth="yes"/>
			<point x="147" y="744"/>
			<point x="165" y="726"/>
			<point x="187" y="726" type="curve"/>
			<point x="187" y="726"/>
		</contour>
		<contour>
			<point x="260" y="32"/>
			<point x="260" y="81" type="curve" smooth="yes"/>
			<point x="260" y="609" type="line" smooth="yes"/>
			<point x="260" y="658"/>
			<point x="220" y="699"/>
			<point x="170" y="699" type="curve" smooth="yes"/>
			<point x="120" y="699"/>
			<point x="80" y="658"/>
			<point x="80" y="609" type="curve" smooth="yes"/>
			<point x="80" y="81" type="line" smooth="yes"/>
			<point x="80" y="32"/>
			<point x="120" y="-9"/>
			<point x="170" y="-9" type="curve" smooth="yes"/>
			<point x="220" y="-9"/>
		</contour>
	</outline>
</glyph>
<glyph name="Idieresis" format="2">
	<advance width="314"/>
	<unicode hex="00CF"/>
	<note>
		Idieresis
	</note>
	<outline>
		<contour>
			<point x="260" y="32"/>
			<point x="260" y="81" type="curve" smooth="yes"/>
			<point x="260" y="609" type="line" smooth="yes"/>
			<point x="260" y="658"/>
			<point x="220" y="699"/>
			<point x="170" y="699" type="curve" smooth="yes"/>
			<point x="120" y="699"/>
			<point x="80" y="658"/>
			<point x="80" y="609" type="curve" smooth="yes"/>
			<point x="80" y="81" type="line" smooth="yes"/>
			<point x="80" y="32"/>
			<point x="120" y="-9"/>
			<point x="170" y="-9" type="curve" smooth="yes"/>
			<point x="220" y="-9"/>
		</contour>
		<contour>
			<point x="23" y="721"/>
			<point x="63" y="721" type="curve" smooth="yes"/>
			<point x="85" y="721" type="line" smooth="yes"/>
			<point x="124" y="721"/>
			<point x="157" y="753"/>
			<point x="157" y="793" type="curve" smooth="yes"/>
			<point x="157" y="803"/>
			<point x="155" y="813"/>
			<point x="151" y="821" type="curve" smooth="yes"/>
			<point x="137" y="853"/>
			<point x="108" y="877"/>
			<point x="73" y="877" type="curve" smooth="yes"/>
			<point x="61" y="877"/>
			<point x="50" y="874"/>
			<point x="40" y="869" type="curve" smooth="yes"/>
			<point x="11" y="855"/>
			<point x="-11" y="827"/>
			<point x="-11" y="795" type="curve" smooth="yes"/>
			<point x="-11" y="754"/>
		</contour>
		<contour>
			<point x="224" y="721"/>
			<point x="264" y="721" type="curve" smooth="yes"/>
			<point x="286" y="721" type="line" smooth="yes"/>
			<point x="325" y="721"/>
			<point x="358" y="753"/>
			<point x="358" y="793" type="curve" smooth="yes"/>
			<point x="358" y="803"/>
			<point x="356" y="813"/>
			<point x="352" y="821" type="curve" smooth="yes"/>
			<point x="338" y="853"/>
			<point x="309" y="877"/>
			<point x="274" y="877" type="curve" smooth="yes"/>
			<point x="262" y="877"/>
			<point x="251" y="874"/>
			<point x="241" y="869" type="curve" smooth="yes"/>
			<point x="212" y="855"/>
			<point x="190" y="827"/>
			<point x="190" y="795" type="curve" smooth="yes"/>
			<point x="190" y="754"/>
		</contour>
	</outline>
</glyph>
<glyph name="Odieresis" format="2">
	<advance width="788"/>
	<unicode hex="00D6"/>
	<note>
		Odieresis
	</note>
	<outline>
		<contour>
			<point x="407" y="704" type="curve" smooth="yes"/>
			<point x="192" y="704"/>
			<point x="54" y="567"/>
			<point x="54" y="345" type="curve" smooth="yes"/>
			<point x="54" y="124"/>
			<point x="192" y="-14"/>
			<point x="407" y="-14" type="curve" smooth="yes"/>
			<point x="622" y="-14"/>
			<point x="760" y="124"/>
			<point x="760" y="345" type="curve" smooth="yes"/>
			<point x="760" y="567"/>
			<point x="622" y="704"/>
		</contour>
		<contour>
			<point x="407" y="118" type="curve" smooth="yes"/>
			<point x="303" y="118"/>
			<point x="238" y="199"/>
			<point x="238" y="345" type="curve" smooth="yes"/>
			<point x="238" y="492"/>
			<point x="303" y="572"/>
			<point x="407" y="572" type="curve" smooth="yes"/>
			<point x="511" y="572"/>
			<point x="576" y="492"/>
			<point x="576" y="345" type="curve" smooth="yes"/>
			<point x="576" y="199"/>
			<point x="511" y="118"/>
		</contour>
		<contour>
			<point x="258" y="724"/>
			<point x="298" y="724" type="curve" smooth="yes"/>
			<point x="320" y="724" type="line" smooth="yes"/>
			<point x="359" y="724"/>
			<point x="392" y="756"/>
			<point x="392" y="796" type="curve" smooth="yes"/>
			<point x="392" y="806"/>
			<point x="390" y="816"/>
			<point x="386" y="824" type="curve" smooth="yes"/>
			<point x="372" y="856"/>
			<point x="343" y="880"/>
			<point x="308" y="880" type="curve" smooth="yes"/>
			<point x="296" y="880"/>
			<point x="285" y="877"/>
			<point x="275" y="872" type="curve" smooth="yes"/>
			<point x="246" y="858"/>
			<point x="224" y="830"/>
			<point x="224" y="798" type="curve" smooth="yes"/>
			<point x="224" y="757"/>
		</contour>
		<contour>
			<point x="459" y="724"/>
			<point x="499" y="724" type="curve" smooth="yes"/>
			<point x="521" y="724" type="line" smooth="yes"/>
			<point x="560" y="724"/>
			<point x="593" y="756"/>
			<point x="593" y="796" type="curve" smooth="yes"/>
			<point x="593" y="806"/>
			<point x="591" y="816"/>
			<point x="587" y="824" type="curve" smooth="yes"/>
			<point x="573" y="856"/>
			<point x="544" y="880"/>
			<point x="509" y="880" type="curve" smooth="yes"/>
			<point x="497" y="880"/>
			<point x="486" y="877"/>
			<point x="476" y="872" type="curve" smooth="yes"/>
			<point x="447" y="858"/>
			<point x="425" y="830"/>
			<point x="425" y="798" type="curve" smooth="yes"/>
			<point x="425" y="757"/>
		</contour>
	</outline>
</glyph>
<glyph name="multiply" format="2">
	<advance width="662"/>
	<unicode hex="00D7"/>
	<note>
		multiply
	</note>
	<outline>
		<contour>
			<point x="526" y="204" type="curve" smooth="yes"/>
			<point x="401" y="329" type="line"/>
			<point x="526" y="454" type="line" smooth="yes"/>
			<point x="535" y="463"/>
			<point x="541" y="476"/>
			<point x="541" y="489" type="curve" smooth="yes"/>
			<point x="541" y="517"/>
			<point x="519" y="539"/>
			<point x="491" y="539" type="curve" smooth="yes"/>
			<point x="478" y="539"/>
			<point x="465" y="533"/>
			<point x="456" y="524" type="curve" smooth="yes"/>
			<point x="331" y="399" type="line"/>
			<point x="206" y="524" type="line" smooth="yes"/>
			<point x="197" y="533"/>
			<point x="184" y="539"/>
			<point x="171" y="539" type="curve" smooth="yes"/>
			<point x="143" y="539"/>
			<point x="121" y="517"/>
			<point x="121" y="489" type="curve" smooth="yes"/>
			<point x="121" y="476"/>
			<point x="127" y="463"/>
			<point x="136" y="454" type="curve" smooth="yes"/>
			<point x="261" y="329" type="line"/>
			<point x="136" y="204" type="line" smooth="yes"/>
			<point x="127" y="195"/>
			<point x="121" y="182"/>
			<point x="121" y="169" type="curve" smooth="yes"/>
			<point x="121" y="141"/>
			<point x="143" y="119"/>
			<point x="171" y="119" type="curve" smooth="yes"/>
			<point x="184" y="119"/>
			<point x="197" y="125"/>
			<point x="206" y="134" type="curve" smooth="yes"/>
			<point x="331" y="259" type="line"/>
			<point x="456" y="134" type="line" smooth="yes"/>
			<point x="465" y="125"/>
			<point x="478" y="119"/>
			<point x="491" y="119" type="curve" smooth="yes"/>
			<point x="519" y="119"/>
			<point x="541" y="141"/>
			<point x="541" y="169" type="curve" smooth="yes"/>
			<point x="541" y="182"/>
			<point x="535" y="195"/>
		</contour>
	</outline>
</glyph>
<glyph name="Oslash" format="2">
	<advance width="790"/>
	<unicode hex="00D8"/>
	<note>
		Oslash
	</note>
	<outline>
		<contour>
			<point x="699" y="566" type="curve"/>
			<point x="737" y="604" type="line" smooth="yes"/>
			<point x="746" y="613"/>
			<point x="752" y="626"/>
			<point x="752" y="639" type="curve" smooth="yes"/>
			<point x="752" y="667"/>
			<point x="730" y="689"/>
			<point x="702" y="689" type="curve" smooth="yes"/>
			<point x="689" y="689"/>
			<point x="676" y="683"/>
			<point x="667" y="674" type="curve" smooth="yes"/>
			<point x="631" y="638" type="line"/>
			<point x="572" y="681"/>
			<point x="497" y="704"/>
			<point x="408" y="704" type="curve" smooth="yes"/>
			<point x="193" y="704"/>
			<point x="55" y="567"/>
			<point x="55" y="345" type="curve" smooth="yes"/>
			<point x="55" y="257"/>
			<point x="77" y="182"/>
			<point x="117" y="124" type="curve"/>
			<point x="79" y="86" type="line" smooth="yes"/>
			<point x="70" y="77"/>
			<point x="64" y="64"/>
			<point x="64" y="51" type="curve" smooth="yes"/>
			<point x="64" y="23"/>
			<point x="86" y="1"/>
			<point x="114" y="1" type="curve" smooth="yes"/>
			<point x="127" y="1"/>
			<point x="140" y="7"/>
			<point x="149" y="16" type="curve" smooth="yes"/>
			<point x="186" y="53" type="line"/>
			<point x="244" y="9"/>
			<point x="319" y="-14"/>
			<point x="408" y="-14" type="curve" smooth="yes"/>
			<point x="623" y="-14"/>
			<point x="761" y="124"/>
			<point x="761" y="345" type="curve" smooth="yes"/>
			<point x="761" y="433"/>
			<point x="739" y="508"/>
		</contour>
		<contour>
			<point x="239" y="345" type="curve" smooth="yes"/>
			<point x="239" y="492"/>
			<point x="304" y="572"/>
			<point x="408" y="572" type="curve" smooth="yes"/>
			<point x="454" y="572"/>
			<point x="492" y="557"/>
			<point x="520" y="527" type="curve"/>
			<point x="249" y="256" type="line"/>
			<point x="242" y="282"/>
			<point x="239" y="312"/>
		</contour>
		<contour>
			<point x="577" y="345" type="curve" smooth="yes"/>
			<point x="577" y="199"/>
			<point x="512" y="118"/>
			<point x="408" y="118" type="curve" smooth="yes"/>
			<point x="362" y="118"/>
			<point x="324" y="133"/>
			<point x="296" y="163" type="curve"/>
			<point x="567" y="434" type="line"/>
			<point x="574" y="408"/>
			<point x="577" y="378"/>
		</contour>
	</outline>
</glyph>
<glyph name="Ugrave" format="2">
	<advance width="718"/>
	<unicode hex="00D9"/>
	<note>
		Ugrave
	</note>
	<outline>
		<contour>
			<point x="404" y="765"/>
			<point x="403" y="766" type="curve" smooth="yes"/>
			<point x="340" y="842"/>
			<point x="264" y="852"/>
			<point x="263" y="822" type="curve" smooth="yes"/>
			<point x="263" y="821"/>
			<point x="263" y="821"/>
			<point x="263" y="820" type="curve" smooth="yes"/>
			<point x="263" y="804"/>
			<point x="270" y="790"/>
			<point x="281" y="781" type="curve" smooth="yes"/>
			<point x="339" y="735" type="line" smooth="yes"/>
			<point x="346" y="729"/>
			<point x="355" y="726"/>
			<point x="364" y="726" type="curve" smooth="yes"/>
			<point x="386" y="726"/>
			<point x="404" y="744"/>
			<point x="404" y="765" type="curve"/>
			<point x="404" y="765"/>
		</contour>
		<contour>
			<point x="680" y="303" type="curve" smooth="yes"/>
			<point x="680" y="609" type="line" smooth="yes"/>
			<point x="680" y="658"/>
			<point x="640" y="699"/>
			<point x="590" y="699" type="curve" smooth="yes"/>
			<point x="540" y="699"/>
			<point x="500" y="658"/>
			<point x="500" y="609" type="curve" smooth="yes"/>
			<point x="500" y="270" type="line" smooth="yes"/>
			<point x="500" y="251"/>
			<point x="500" y="241"/>
			<point x="499" y="229" type="curve" smooth="yes"/>
			<point x="494" y="157"/>
			<point x="453" y="118"/>
			<point x="374" y="118" type="curve" smooth="yes"/>
			<point x="295" y="118"/>
			<point x="254" y="157"/>
			<point x="249" y="229" type="curve" smooth="yes"/>
			<point x="248" y="241"/>
			<point x="248" y="251"/>
			<point x="248" y="270" type="curve" smooth="yes"/>
			<point x="248" y="609" type="line" smooth="yes"/>
			<point x="248" y="658"/>
			<point x="208" y="699"/>
			<point x="158" y="699" type="curve" smooth="yes"/>
			<point x="108" y="699"/>
			<point x="68" y="658"/>
			<point x="68" y="609" type="curve" smooth="yes"/>
			<point x="68" y="303" type="line" smooth="yes"/>
			<point x="68" y="268"/>
			<point x="68" y="247"/>
			<point x="71" y="206" type="curve" smooth="yes"/>
			<point x="79" y="90"/>
			<point x="161" y="-14"/>
			<point x="374" y="-14" type="curve" smooth="yes"/>
			<point x="587" y="-14"/>
			<point x="669" y="90"/>
			<point x="677" y="206" type="curve" smooth="yes"/>
			<point x="680" y="247"/>
			<point x="680" y="268"/>
		</contour>
	</outline>
</glyph>
<glyph name="Uacute" format="2">
	<advance width="718"/>
	<unicode hex="00DA"/>
	<note>
		Uacute
	</note>
	<outline>
		<contour>
			<point x="391" y="726"/>
			<point x="392" y="727" type="curve" smooth="yes"/>
			<point x="466" y="799"/>
			<point x="501" y="874"/>
			<point x="450" y="869" type="curve" smooth="yes"/>
			<point x="448" y="869"/>
			<point x="446" y="868"/>
			<point x="444" y="868" type="curve" smooth="yes"/>
			<point x="397" y="857"/>
			<point x="358" y="822"/>
			<point x="352" y="775" type="curve" smooth="yes"/>
			<point x="351" y="771"/>
			<point x="351" y="768"/>
			<point x="351" y="765" type="curve" smooth="yes"/>
			<point x="351" y="744"/>
			<point x="369" y="726"/>
			<point x="391" y="726" type="curve"/>
			<point x="391" y="726"/>
		</contour>
		<contour>
			<point x="680" y="303" type="curve" smooth="yes"/>
			<point x="680" y="609" type="line" smooth="yes"/>
			<point x="680" y="658"/>
			<point x="640" y="699"/>
			<point x="590" y="699" type="curve" smooth="yes"/>
			<point x="540" y="699"/>
			<point x="500" y="658"/>
			<point x="500" y="609" type="curve" smooth="yes"/>
			<point x="500" y="270" type="line" smooth="yes"/>
			<point x="500" y="251"/>
			<point x="500" y="241"/>
			<point x="499" y="229" type="curve" smooth="yes"/>
			<point x="494" y="157"/>
			<point x="453" y="118"/>
			<point x="374" y="118" type="curve" smooth="yes"/>
			<point x="295" y="118"/>
			<point x="254" y="157"/>
			<point x="249" y="229" type="curve" smooth="yes"/>
			<point x="248" y="241"/>
			<point x="248" y="251"/>
			<point x="248" y="270" type="curve" smooth="yes"/>
			<point x="248" y="609" type="line" smooth="yes"/>
			<point x="248" y="658"/>
			<point x="208" y="699"/>
			<point x="158" y="699" type="curve" smooth="yes"/>
			<point x="108" y="699"/>
			<point x="68" y="658"/>
			<point x="68" y="609" type="curve" smooth="yes"/>
			<point x="68" y="303" type="line" smooth="yes"/>
			<point x="68" y="268"/>
			<point x="68" y="247"/>
			<point x="71" y="206" type="curve" smooth="yes"/>
			<point x="79" y="90"/>
			<point x="161" y="-14"/>
			<point x="374" y="-14" type="curve" smooth="yes"/>
			<point x="587" y="-14"/>
			<point x="669" y="90"/>
			<point x="677" y="206" type="curve" smooth="yes"/>
			<point x="680" y="247"/>
			<point x="680" y="268"/>
		</contour>
	</outline>
</glyph>
<glyph name="Ucircumflex" format="2">
	<advance width="718"/>
	<unicode hex="00DB"/>
	<note>
		Ucircumflex
	</note>
	<outline>
		<contour>
			<point x="342" y="737"/>
			<point x="349" y="754" type="curve" smooth="yes"/>
			<point x="373" y="811" type="line"/>
			<point x="390" y="773" type="line" smooth="yes"/>
			<point x="402" y="747"/>
			<point x="411" y="735"/>
			<point x="420" y="735" type="curve" smooth="yes"/>
			<point x="454" y="735"/>
			<point x="483" y="763"/>
			<point x="483" y="797" type="curve" smooth="yes"/>
			<point x="483" y="832"/>
			<point x="454" y="860"/>
			<point x="420" y="860" type="curve" smooth="yes"/>
			<point x="334" y="860" type="line" smooth="yes"/>
			<point x="290" y="860"/>
			<point x="258" y="822"/>
			<point x="261" y="784" type="curve"/>
			<point x="262" y="780"/>
			<point x="261" y="776"/>
			<point x="261" y="772" type="curve" smooth="yes"/>
			<point x="261" y="746"/>
			<point x="282" y="726"/>
			<point x="307" y="726" type="curve" smooth="yes"/>
			<point x="326" y="726"/>
		</contour>
		<contour>
			<point x="680" y="303" type="curve" smooth="yes"/>
			<point x="680" y="609" type="line" smooth="yes"/>
			<point x="680" y="658"/>
			<point x="640" y="699"/>
			<point x="590" y="699" type="curve" smooth="yes"/>
			<point x="540" y="699"/>
			<point x="500" y="658"/>
			<point x="500" y="609" type="curve" smooth="yes"/>
			<point x="500" y="270" type="line" smooth="yes"/>
			<point x="500" y="251"/>
			<point x="500" y="241"/>
			<point x="499" y="229" type="curve" smooth="yes"/>
			<point x="494" y="157"/>
			<point x="453" y="118"/>
			<point x="374" y="118" type="curve" smooth="yes"/>
			<point x="295" y="118"/>
			<point x="254" y="157"/>
			<point x="249" y="229" type="curve" smooth="yes"/>
			<point x="248" y="241"/>
			<point x="248" y="251"/>
			<point x="248" y="270" type="curve" smooth="yes"/>
			<point x="248" y="609" type="line" smooth="yes"/>
			<point x="248" y="658"/>
			<point x="208" y="699"/>
			<point x="158" y="699" type="curve" smooth="yes"/>
			<point x="108" y="699"/>
			<point x="68" y="658"/>
			<point x="68" y="609" type="curve" smooth="yes"/>
			<point x="68" y="303" type="line" smooth="yes"/>
			<point x="68" y="268"/>
			<point x="68" y="247"/>
			<point x="71" y="206" type="curve" smooth="yes"/>
			<point x="79" y="90"/>
			<point x="161" y="-14"/>
			<point x="374" y="-14" type="curve" smooth="yes"/>
			<point x="587" y="-14"/>
			<point x="669" y="90"/>
			<point x="677" y="206" type="curve" smooth="yes"/>
			<point x="680" y="247"/>
			<point x="680" y="268"/>
		</contour>
	</outline>
</glyph>
<glyph name="Thorn" format="2">
	<advance width="653"/>
	<unicode hex="00DE"/>
	<note>
		Thorn
	</note>
	<outline>
		<contour>
			<point x="457" y="597" type="curve" smooth="yes"/>
			<point x="422" y="601"/>
			<point x="395" y="602"/>
			<point x="356" y="609" type="curve" smooth="yes"/>
			<point x="332" y="614"/>
			<point x="280" y="629"/>
			<point x="260" y="609" type="curve"/>
			<point x="260" y="658"/>
			<point x="220" y="699"/>
			<point x="170" y="699" type="curve" smooth="yes"/>
			<point x="120" y="699"/>
			<point x="80" y="658"/>
			<point x="80" y="609" type="curve" smooth="yes"/>
			<point x="80" y="81" type="line" smooth="yes"/>
			<point x="80" y="32"/>
			<point x="120" y="-9"/>
			<point x="170" y="-9" type="curve" smooth="yes"/>
			<point x="220" y="-9"/>
			<point x="260" y="32"/>
			<point x="260" y="81" type="curve" smooth="yes"/>
			<point x="260" y="174" type="line"/>
			<point x="349" y="174" type="line" smooth="yes"/>
			<point x="392" y="174"/>
			<point x="420" y="175"/>
			<point x="457" y="179" type="curve" smooth="yes"/>
			<point x="557" y="191"/>
			<point x="639" y="255"/>
			<point x="639" y="388" type="curve" smooth="yes"/>
			<point x="639" y="521"/>
			<point x="557" y="585"/>
		</contour>
		<contour>
			<point x="378" y="315" type="curve" smooth="yes"/>
			<point x="365" y="314"/>
			<point x="349" y="314"/>
			<point x="330" y="314" type="curve" smooth="yes"/>
			<point x="260" y="314" type="line"/>
			<point x="260" y="462" type="line"/>
			<point x="330" y="462" type="line" smooth="yes"/>
			<point x="349" y="462"/>
			<point x="365" y="462"/>
			<point x="378" y="461" type="curve" smooth="yes"/>
			<point x="424" y="457"/>
			<point x="451" y="435"/>
			<point x="451" y="388" type="curve" smooth="yes"/>
			<point x="451" y="341"/>
			<point x="424" y="319"/>
		</contour>
	</outline>
</glyph>
<glyph name="aring" format="2">
	<advance width="587"/>
	<unicode hex="00E5"/>
	<note>
		aring
	</note>
	<outline>
		<contour>
			<point x="293" y="567" type="curve" smooth="yes"/>
			<point x="363" y="567"/>
			<point x="412" y="610"/>
			<point x="412" y="674" type="curve" smooth="yes"/>
			<point x="412" y="738"/>
			<point x="363" y="781"/>
			<point x="293" y="781" type="curve" smooth="yes"/>
			<point x="223" y="781"/>
			<point x="174" y="738"/>
			<point x="174" y="674" type="curve" smooth="yes"/>
			<point x="174" y="610"/>
			<point x="223" y="567"/>
		</contour>
		<contour>
			<point x="293" y="715" type="curve" smooth="yes"/>
			<point x="314" y="715"/>
			<point x="329" y="700"/>
			<point x="329" y="674" type="curve" smooth="yes"/>
			<point x="329" y="648"/>
			<point x="314" y="633"/>
			<point x="293" y="633" type="curve" smooth="yes"/>
			<point x="272" y="633"/>
			<point x="257" y="648"/>
			<point x="257" y="674" type="curve" smooth="yes"/>
			<point x="257" y="700"/>
			<point x="272" y="715"/>
		</contour>
		<contour>
			<point x="355" y="78" type="curve"/>
			<point x="357" y="67" type="line" smooth="yes"/>
			<point x="363" y="25"/>
			<point x="400" y="-9"/>
			<point x="445" y="-9" type="curve" smooth="yes"/>
			<point x="499" y="-9"/>
			<point x="537" y="38"/>
			<point x="534" y="85" type="curve" smooth="yes"/>
			<point x="533" y="103"/>
			<point x="533" y="119"/>
			<point x="533" y="135" type="curve" smooth="yes"/>
			<point x="533" y="285" type="line" smooth="yes"/>
			<point x="533" y="318"/>
			<point x="532" y="349"/>
			<point x="530" y="376" type="curve" smooth="yes"/>
			<point x="522" y="473"/>
			<point x="464" y="548"/>
			<point x="295" y="548" type="curve" smooth="yes"/>
			<point x="215" y="548"/>
			<point x="143" y="523"/>
			<point x="97" y="474" type="curve" smooth="yes"/>
			<point x="84" y="459"/>
			<point x="76" y="440"/>
			<point x="76" y="419" type="curve" smooth="yes"/>
			<point x="76" y="374"/>
			<point x="112" y="337"/>
			<point x="157" y="337" type="curve" smooth="yes"/>
			<point x="190" y="337"/>
			<point x="215" y="360"/>
			<point x="227" y="388" type="curve" smooth="yes"/>
			<point x="238" y="414"/>
			<point x="258" y="426"/>
			<point x="287" y="426" type="curve" smooth="yes"/>
			<point x="326" y="426"/>
			<point x="348" y="402"/>
			<point x="351" y="375" type="curve" smooth="yes"/>
			<point x="353" y="358"/>
			<point x="353" y="347"/>
			<point x="353" y="336" type="curve" smooth="yes"/>
			<point x="353" y="328" type="line"/>
			<point x="319" y="328" type="line" smooth="yes"/>
			<point x="138" y="328"/>
			<point x="30" y="258"/>
			<point x="30" y="144" type="curve" smooth="yes"/>
			<point x="30" y="41"/>
			<point x="113" y="-14"/>
			<point x="201" y="-14" type="curve" smooth="yes"/>
			<point x="226" y="-14"/>
			<point x="250" y="-11"/>
			<point x="272" y="-5" type="curve" smooth="yes"/>
			<point x="318" y="8"/>
			<point x="339" y="38"/>
		</contour>
		<contour>
			<point x="275" y="108" type="curve" smooth="yes"/>
			<point x="239" y="108"/>
			<point x="214" y="126"/>
			<point x="214" y="158" type="curve" smooth="yes"/>
			<point x="214" y="211"/>
			<point x="272" y="232"/>
			<point x="353" y="226" type="curve"/>
			<point x="353" y="191" type="line" smooth="yes"/>
			<point x="353" y="135"/>
			<point x="311" y="108"/>
		</contour>
	</outline>
</glyph>
<glyph name="ccedilla" format="2">
	<advance width="587"/>
	<unicode hex="00E7"/>
	<note>
		ccedilla
	</note>
	<outline>
		<contour>
			<point x="388" y="187"/>
			<point x="375" y="159" type="curve" smooth="yes"/>
			<point x="359" y="124"/>
			<point x="333" y="108"/>
			<point x="303" y="108" type="curve" smooth="yes"/>
			<point x="242" y="108"/>
			<point x="208" y="158"/>
			<point x="208" y="272" type="curve" smooth="yes"/>
			<point x="208" y="375"/>
			<point x="241" y="426"/>
			<point x="301" y="426" type="curve" smooth="yes"/>
			<point x="334" y="426"/>
			<point x="362" y="412"/>
			<point x="378" y="372" type="curve" smooth="yes"/>
			<point x="389" y="342"/>
			<point x="419" y="320"/>
			<point x="453" y="320" type="curve" smooth="yes"/>
			<point x="497" y="320"/>
			<point x="533" y="356"/>
			<point x="533" y="401" type="curve" smooth="yes"/>
			<point x="533" y="418"/>
			<point x="530" y="436"/>
			<point x="521" y="449" type="curve" smooth="yes"/>
			<point x="478" y="510"/>
			<point x="403" y="548"/>
			<point x="305" y="548" type="curve" smooth="yes"/>
			<point x="148" y="548"/>
			<point x="24" y="445"/>
			<point x="24" y="261" type="curve" smooth="yes"/>
			<point x="24" y="106"/>
			<point x="114" y="11"/>
			<point x="240" y="-10" type="curve"/>
			<point x="221" y="-49" type="line" smooth="yes"/>
			<point x="209" y="-74"/>
			<point x="288" y="-46"/>
			<point x="299" y="-110" type="curve" smooth="yes"/>
			<point x="299" y="-111"/>
			<point x="299" y="-113"/>
			<point x="299" y="-114" type="curve" smooth="yes"/>
			<point x="299" y="-132"/>
			<point x="282" y="-141"/>
			<point x="239" y="-141" type="curve" smooth="yes"/>
			<point x="232" y="-141"/>
			<point x="222" y="-141"/>
			<point x="210" y="-139" type="curve" smooth="yes"/>
			<point x="191" y="-137"/>
			<point x="181" y="-147"/>
			<point x="181" y="-169" type="curve" smooth="yes"/>
			<point x="181" y="-192"/>
			<point x="238" y="-210"/>
			<point x="238" y="-210" type="curve" smooth="yes"/>
			<point x="330" y="-210"/>
			<point x="407" y="-188"/>
			<point x="407" y="-119" type="curve" smooth="yes"/>
			<point x="407" y="-74"/>
			<point x="375" y="-49"/>
			<point x="312" y="-42" type="curve"/>
			<point x="326" y="-13" type="line"/>
			<point x="403" y="-6"/>
			<point x="468" y="22"/>
			<point x="511" y="74" type="curve" smooth="yes"/>
			<point x="523" y="89"/>
			<point x="530" y="106"/>
			<point x="530" y="126" type="curve" smooth="yes"/>
			<point x="530" y="172"/>
			<point x="493" y="209"/>
			<point x="448" y="209" type="curve" smooth="yes"/>
			<point x="414" y="209"/>
		</contour>
	</outline>
</glyph>
<glyph name="ecircumflex" format="2">
	<advance width="601"/>
	<unicode hex="00EA"/>
	<note>
		ecircumflex
	</note>
	<outline>
		<contour>
			<point x="270" y="573"/>
			<point x="277" y="590" type="curve" smooth="yes"/>
			<point x="301" y="647" type="line"/>
			<point x="318" y="609" type="line" smooth="yes"/>
			<point x="330" y="583"/>
			<point x="339" y="571"/>
			<point x="348" y="571" type="curve" smooth="yes"/>
			<point x="382" y="571"/>
			<point x="411" y="599"/>
			<point x="411" y="633" type="curve" smooth="yes"/>
			<point x="411" y="668"/>
			<point x="382" y="696"/>
			<point x="348" y="696" type="curve" smooth="yes"/>
			<point x="262" y="696" type="line" smooth="yes"/>
			<point x="218" y="696"/>
			<point x="186" y="658"/>
			<point x="189" y="620" type="curve"/>
			<point x="190" y="616"/>
			<point x="189" y="612"/>
			<point x="189" y="608" type="curve" smooth="yes"/>
			<point x="189" y="582"/>
			<point x="210" y="562"/>
			<point x="235" y="562" type="curve" smooth="yes"/>
			<point x="254" y="562"/>
		</contour>
		<contour>
			<point x="577" y="274" type="curve" smooth="yes"/>
			<point x="577" y="412"/>
			<point x="487" y="548"/>
			<point x="309" y="548" type="curve" smooth="yes"/>
			<point x="131" y="548"/>
			<point x="24" y="421"/>
			<point x="24" y="265" type="curve" smooth="yes"/>
			<point x="24" y="77"/>
			<point x="146" y="-14"/>
			<point x="299" y="-14" type="curve" smooth="yes"/>
			<point x="380" y="-14"/>
			<point x="447" y="10"/>
			<point x="496" y="55" type="curve" smooth="yes"/>
			<point x="510" y="69"/>
			<point x="520" y="89"/>
			<point x="520" y="111" type="curve" smooth="yes"/>
			<point x="520" y="153"/>
			<point x="486" y="188"/>
			<point x="443" y="188" type="curve" smooth="yes"/>
			<point x="415" y="188"/>
			<point x="391" y="171"/>
			<point x="378" y="147" type="curve" smooth="yes"/>
			<point x="364" y="121"/>
			<point x="338" y="108"/>
			<point x="301" y="108" type="curve" smooth="yes"/>
			<point x="250" y="108"/>
			<point x="211" y="133"/>
			<point x="202" y="222" type="curve"/>
			<point x="482" y="222" type="line" smooth="yes"/>
			<point x="542" y="222"/>
			<point x="577" y="274"/>
		</contour>
		<contour>
			<point x="300" y="426" type="curve" smooth="yes"/>
			<point x="348" y="426"/>
			<point x="379" y="395"/>
			<point x="389" y="332" type="curve"/>
			<point x="208" y="332" type="line"/>
			<point x="220" y="398"/>
			<point x="253" y="426"/>
		</contour>
	</outline>
</glyph>
<glyph name="edieresis" format="2">
	<advance width="601"/>
	<unicode hex="00EB"/>
	<note>
		edieresis
	</note>
	<outline>
		<contour>
			<point x="577" y="274" type="curve" smooth="yes"/>
			<point x="577" y="412"/>
			<point x="487" y="548"/>
			<point x="309" y="548" type="curve" smooth="yes"/>
			<point x="131" y="548"/>
			<point x="24" y="421"/>
			<point x="24" y="265" type="curve" smooth="yes"/>
			<point x="24" y="77"/>
			<point x="146" y="-14"/>
			<point x="299" y="-14" type="curve" smooth="yes"/>
			<point x="380" y="-14"/>
			<point x="447" y="10"/>
			<point x="496" y="55" type="curve" smooth="yes"/>
			<point x="510" y="69"/>
			<point x="520" y="89"/>
			<point x="520" y="111" type="curve" smooth="yes"/>
			<point x="520" y="153"/>
			<point x="486" y="188"/>
			<point x="443" y="188" type="curve" smooth="yes"/>
			<point x="415" y="188"/>
			<point x="391" y="171"/>
			<point x="378" y="147" type="curve" smooth="yes"/>
			<point x="364" y="121"/>
			<point x="338" y="108"/>
			<point x="301" y="108" type="curve" smooth="yes"/>
			<point x="250" y="108"/>
			<point x="211" y="133"/>
			<point x="202" y="222" type="curve"/>
			<point x="482" y="222" type="line" smooth="yes"/>
			<point x="542" y="222"/>
			<point x="577" y="274"/>
		</contour>
		<contour>
			<point x="300" y="426" type="curve" smooth="yes"/>
			<point x="348" y="426"/>
			<point x="379" y="395"/>
			<point x="389" y="332" type="curve"/>
			<point x="208" y="332" type="line"/>
			<point x="220" y="398"/>
			<point x="253" y="426"/>
		</contour>
		<contour>
			<point x="153" y="567"/>
			<point x="193" y="567" type="curve" smooth="yes"/>
			<point x="215" y="567" type="line" smooth="yes"/>
			<point x="254" y="567"/>
			<point x="287" y="599"/>
			<point x="287" y="639" type="curve" smooth="yes"/>
			<point x="287" y="649"/>
			<point x="285" y="659"/>
			<point x="281" y="667" type="curve" smooth="yes"/>
			<point x="267" y="699"/>
			<point x="238" y="723"/>
			<point x="203" y="723" type="curve" smooth="yes"/>
			<point x="191" y="723"/>
			<point x="180" y="720"/>
			<point x="170" y="715" type="curve" smooth="yes"/>
			<point x="141" y="701"/>
			<point x="119" y="673"/>
			<point x="119" y="641" type="curve" smooth="yes"/>
			<point x="119" y="600"/>
		</contour>
		<contour>
			<point x="354" y="567"/>
			<point x="394" y="567" type="curve" smooth="yes"/>
			<point x="416" y="567" type="line" smooth="yes"/>
			<point x="455" y="567"/>
			<point x="488" y="599"/>
			<point x="488" y="639" type="curve" smooth="yes"/>
			<point x="488" y="649"/>
			<point x="486" y="659"/>
			<point x="482" y="667" type="curve" smooth="yes"/>
			<point x="468" y="699"/>
			<point x="439" y="723"/>
			<point x="404" y="723" type="curve" smooth="yes"/>
			<point x="392" y="723"/>
			<point x="381" y="720"/>
			<point x="371" y="715" type="curve" smooth="yes"/>
			<point x="342" y="701"/>
			<point x="320" y="673"/>
			<point x="320" y="641" type="curve" smooth="yes"/>
			<point x="320" y="600"/>
		</contour>
	</outline>
</glyph>
<glyph name="igrave" format="2">
	<advance width="288"/>
	<unicode hex="00EC"/>
	<note>
		igrave
	</note>
	<outline>
		<contour>
			<point x="182" y="601"/>
			<point x="181" y="602" type="curve" smooth="yes"/>
			<point x="118" y="678"/>
			<point x="42" y="688"/>
			<point x="41" y="658" type="curve" smooth="yes"/>
			<point x="41" y="657"/>
			<point x="41" y="657"/>
			<point x="41" y="656" type="curve" smooth="yes"/>
			<point x="41" y="640"/>
			<point x="48" y="626"/>
			<point x="59" y="617" type="curve" smooth="yes"/>
			<point x="117" y="571" type="line" smooth="yes"/>
			<point x="124" y="565"/>
			<point x="133" y="562"/>
			<point x="142" y="562" type="curve" smooth="yes"/>
			<point x="164" y="562"/>
			<point x="182" y="580"/>
			<point x="182" y="601" type="curve"/>
			<point x="182" y="601"/>
		</contour>
		<contour>
			<point x="234" y="32"/>
			<point x="234" y="81" type="curve" smooth="yes"/>
			<point x="234" y="453" type="line" smooth="yes"/>
			<point x="234" y="502"/>
			<point x="194" y="543"/>
			<point x="144" y="543" type="curve" smooth="yes"/>
			<point x="94" y="543"/>
			<point x="54" y="502"/>
			<point x="54" y="453" type="curve" smooth="yes"/>
			<point x="54" y="81" type="line" smooth="yes"/>
			<point x="54" y="32"/>
			<point x="94" y="-9"/>
			<point x="144" y="-9" type="curve" smooth="yes"/>
			<point x="194" y="-9"/>
		</contour>
	</outline>
</glyph>
<glyph name="eth" format="2">
	<advance width="662"/>
	<unicode hex="00F0"/>
	<note>
		eth
	</note>
	<outline>
		<contour>
			<point x="551" y="615" type="curve"/>
			<point x="566" y="618" type="line" smooth="yes"/>
			<point x="583" y="621"/>
			<point x="596" y="636"/>
			<point x="596" y="654" type="curve" smooth="yes"/>
			<point x="596" y="678"/>
			<point x="574" y="695"/>
			<point x="553" y="691" type="curve" smooth="yes"/>
			<point x="495" y="680" type="line"/>
			<point x="473" y="699"/>
			<point x="448" y="716"/>
			<point x="418" y="734" type="curve" smooth="yes"/>
			<point x="408" y="740"/>
			<point x="395" y="745"/>
			<point x="382" y="745" type="curve" smooth="yes"/>
			<point x="344" y="745"/>
			<point x="313" y="714"/>
			<point x="313" y="676" type="curve" smooth="yes"/>
			<point x="313" y="667"/>
			<point x="299" y="652"/>
			<point x="302" y="644" type="curve"/>
			<point x="264" y="637" type="line" smooth="yes"/>
			<point x="247" y="634"/>
			<point x="234" y="619"/>
			<point x="234" y="601" type="curve" smooth="yes"/>
			<point x="234" y="577"/>
			<point x="256" y="560"/>
			<point x="277" y="564" type="curve" smooth="yes"/>
			<point x="373" y="582" type="line"/>
			<point x="402" y="546"/>
			<point x="418" y="506"/>
			<point x="423" y="465" type="curve"/>
			<point x="402" y="492" type="line" smooth="yes"/>
			<point x="387" y="511"/>
			<point x="368" y="532"/>
			<point x="324" y="544" type="curve" smooth="yes"/>
			<point x="312" y="547"/>
			<point x="300" y="548"/>
			<point x="288" y="548" type="curve" smooth="yes"/>
			<point x="141" y="548"/>
			<point x="24" y="450"/>
			<point x="24" y="267" type="curve" smooth="yes"/>
			<point x="24" y="102"/>
			<point x="123" y="-14"/>
			<point x="327" y="-14" type="curve" smooth="yes"/>
			<point x="464" y="-14"/>
			<point x="619" y="67"/>
			<point x="619" y="307" type="curve" smooth="yes"/>
			<point x="619" y="447"/>
			<point x="597" y="544"/>
		</contour>
		<contour>
			<point x="435" y="289" type="curve" smooth="yes"/>
			<point x="435" y="260" type="line" smooth="yes"/>
			<point x="435" y="178"/>
			<point x="403" y="118"/>
			<point x="327" y="118" type="curve" smooth="yes"/>
			<point x="256" y="118"/>
			<point x="212" y="163"/>
			<point x="212" y="267" type="curve" smooth="yes"/>
			<point x="212" y="359"/>
			<point x="250" y="416"/>
			<point x="328" y="416" type="curve" smooth="yes"/>
			<point x="394" y="416"/>
			<point x="435" y="364"/>
		</contour>
	</outline>
</glyph>
<glyph name="ntilde" format="2">
	<advance width="644"/>
	<unicode hex="00F1"/>
	<note>
		ntilde
	</note>
	<outline>
		<contour>
			<point x="268" y="605" type="curve" smooth="yes"/>
			<point x="276" y="605"/>
			<point x="289" y="600"/>
			<point x="313" y="590" type="curve" smooth="yes"/>
			<point x="350" y="574"/>
			<point x="366" y="571"/>
			<point x="395" y="571" type="curve" smooth="yes"/>
			<point x="444" y="571"/>
			<point x="472" y="597"/>
			<point x="481" y="658" type="curve" smooth="yes"/>
			<point x="485" y="687"/>
			<point x="463" y="714"/>
			<point x="433" y="714" type="curve" smooth="yes"/>
			<point x="412" y="714"/>
			<point x="393" y="701"/>
			<point x="386" y="683" type="curve" smooth="yes"/>
			<point x="383" y="676"/>
			<point x="380" y="674"/>
			<point x="374" y="674" type="curve" smooth="yes"/>
			<point x="366" y="674"/>
			<point x="353" y="678"/>
			<point x="329" y="689" type="curve" smooth="yes"/>
			<point x="293" y="705"/>
			<point x="276" y="708"/>
			<point x="247" y="708" type="curve" smooth="yes"/>
			<point x="198" y="708"/>
			<point x="170" y="682"/>
			<point x="161" y="621" type="curve" smooth="yes"/>
			<point x="157" y="592"/>
			<point x="179" y="565"/>
			<point x="209" y="565" type="curve" smooth="yes"/>
			<point x="230" y="565"/>
			<point x="249" y="578"/>
			<point x="256" y="596" type="curve" smooth="yes"/>
			<point x="259" y="603"/>
			<point x="262" y="605"/>
		</contour>
		<contour>
			<point x="591" y="403" type="curve" smooth="yes"/>
			<point x="577" y="496"/>
			<point x="512" y="548"/>
			<point x="402" y="548" type="curve" smooth="yes"/>
			<point x="368" y="548"/>
			<point x="339" y="543"/>
			<point x="311" y="534" type="curve" smooth="yes"/>
			<point x="273" y="523"/>
			<point x="242" y="493"/>
			<point x="234" y="453" type="curve"/>
			<point x="234" y="502"/>
			<point x="194" y="543"/>
			<point x="144" y="543" type="curve" smooth="yes"/>
			<point x="94" y="543"/>
			<point x="54" y="502"/>
			<point x="54" y="453" type="curve" smooth="yes"/>
			<point x="54" y="81" type="line" smooth="yes"/>
			<point x="54" y="32"/>
			<point x="94" y="-9"/>
			<point x="144" y="-9" type="curve" smooth="yes"/>
			<point x="194" y="-9"/>
			<point x="234" y="32"/>
			<point x="234" y="81" type="curve" smooth="yes"/>
			<point x="234" y="252" type="line" smooth="yes"/>
			<point x="234" y="373"/>
			<point x="273" y="426"/>
			<point x="328" y="426" type="curve" smooth="yes"/>
			<point x="382" y="426"/>
			<point x="410" y="396"/>
			<point x="414" y="345" type="curve" smooth="yes"/>
			<point x="416" y="318"/>
			<point x="416" y="289"/>
			<point x="416" y="272" type="curve" smooth="yes"/>
			<point x="416" y="81" type="line" smooth="yes"/>
			<point x="416" y="32"/>
			<point x="456" y="-9"/>
			<point x="506" y="-9" type="curve" smooth="yes"/>
			<point x="556" y="-9"/>
			<point x="596" y="32"/>
			<point x="596" y="81" type="curve" smooth="yes"/>
			<point x="596" y="302" type="line" smooth="yes"/>
			<point x="596" y="345"/>
			<point x="595" y="376"/>
		</contour>
	</outline>
</glyph>
<glyph name="oacute" format="2">
	<advance width="622"/>
	<unicode hex="00F3"/>
	<note>
		oacute
	</note>
	<outline>
		<contour>
			<point x="328" y="562"/>
			<point x="329" y="563" type="curve" smooth="yes"/>
			<point x="403" y="635"/>
			<point x="438" y="710"/>
			<point x="387" y="705" type="curve" smooth="yes"/>
			<point x="385" y="705"/>
			<point x="383" y="704"/>
			<point x="381" y="704" type="curve" smooth="yes"/>
			<point x="334" y="693"/>
			<point x="295" y="658"/>
			<point x="289" y="611" type="curve" smooth="yes"/>
			<point x="288" y="607"/>
			<point x="288" y="604"/>
			<point x="288" y="601" type="curve" smooth="yes"/>
			<point x="288" y="580"/>
			<point x="306" y="562"/>
			<point x="328" y="562" type="curve"/>
			<point x="328" y="562"/>
		</contour>
		<contour>
			<point x="311" y="548" type="curve" smooth="yes"/>
			<point x="136" y="548"/>
			<point x="24" y="439"/>
			<point x="24" y="267" type="curve" smooth="yes"/>
			<point x="24" y="96"/>
			<point x="136" y="-14"/>
			<point x="311" y="-14" type="curve" smooth="yes"/>
			<point x="486" y="-14"/>
			<point x="598" y="96"/>
			<point x="598" y="267" type="curve" smooth="yes"/>
			<point x="598" y="439"/>
			<point x="486" y="548"/>
		</contour>
		<contour>
			<point x="311" y="108" type="curve" smooth="yes"/>
			<point x="247" y="108"/>
			<point x="208" y="161"/>
			<point x="208" y="267" type="curve" smooth="yes"/>
			<point x="208" y="374"/>
			<point x="247" y="426"/>
			<point x="311" y="426" type="curve" smooth="yes"/>
			<point x="375" y="426"/>
			<point x="414" y="374"/>
			<point x="414" y="267" type="curve" smooth="yes"/>
			<point x="414" y="161"/>
			<point x="375" y="108"/>
		</contour>
	</outline>
</glyph>
<glyph name="ocircumflex" format="2">
	<advance width="622"/>
	<unicode hex="00F4"/>
	<note>
		ocircumflex
	</note>
	<outline>
		<contour>
			<point x="279" y="573"/>
			<point x="286" y="590" type="curve" smooth="yes"/>
			<point x="310" y="647" type="line"/>
			<point x="327" y="609" type="line" smooth="yes"/>
			<point x="339" y="583"/>
			<point x="348" y="571"/>
			<point x="357" y="571" type="curve" smooth="yes"/>
			<point x="391" y="571"/>
			<point x="420" y="599"/>
			<point x="420" y="633" type="curve" smooth="yes"/>
			<point x="420" y="668"/>
			<point x="391" y="696"/>
			<point x="357" y="696" type="curve" smooth="yes"/>
			<point x="271" y="696" type="line" smooth="yes"/>
			<point x="227" y="696"/>
			<point x="195" y="658"/>
			<point x="198" y="620" type="curve"/>
			<point x="199" y="616"/>
			<point x="198" y="612"/>
			<point x="198" y="608" type="curve" smooth="yes"/>
			<point x="198" y="582"/>
			<point x="219" y="562"/>
			<point x="244" y="562" type="curve" smooth="yes"/>
			<point x="263" y="562"/>
		</contour>
		<contour>
			<point x="311" y="548" type="curve" smooth="yes"/>
			<point x="136" y="548"/>
			<point x="24" y="439"/>
			<point x="24" y="267" type="curve" smooth="yes"/>
			<point x="24" y="96"/>
			<point x="136" y="-14"/>
			<point x="311" y="-14" type="curve" smooth="yes"/>
			<point x="486" y="-14"/>
			<point x="598" y="96"/>
			<point x="598" y="267" type="curve" smooth="yes"/>
			<point x="598" y="439"/>
			<point x="486" y="548"/>
		</contour>
		<contour>
			<point x="311" y="108" type="curve" smooth="yes"/>
			<point x="247" y="108"/>
			<point x="208" y="161"/>
			<point x="208" y="267" type="curve" smooth="yes"/>
			<point x="208" y="374"/>
			<point x="247" y="426"/>
			<point x="311" y="426" type="curve" smooth="yes"/>
			<point x="375" y="426"/>
			<point x="414" y="374"/>
			<point x="414" y="267" type="curve" smooth="yes"/>
			<point x="414" y="161"/>
			<point x="375" y="108"/>
		</contour>
	</outline>
</glyph>
<glyph name="odieresis" format="2">
	<advance width="622"/>
	<unicode hex="00F6"/>
	<note>
		odieresis
	</note>
	<outline>
		<contour>
			<point x="311" y="548" type="curve" smooth="yes"/>
			<point x="136" y="548"/>
			<point x="24" y="439"/>
			<point x="24" y="267" type="curve" smooth="yes"/>
			<point x="24" y="96"/>
			<point x="136" y="-14"/>
			<point x="311" y="-14" type="curve" smooth="yes"/>
			<point x="486" y="-14"/>
			<point x="598" y="96"/>
			<point x="598" y="267" type="curve" smooth="yes"/>
			<point x="598" y="439"/>
			<point x="486" y="548"/>
		</contour>
		<contour>
			<point x="311" y="108" type="curve" smooth="yes"/>
			<point x="247" y="108"/>
			<point x="208" y="161"/>
			<point x="208" y="267" type="curve" smooth="yes"/>
			<point x="208" y="374"/>
			<point x="247" y="426"/>
			<point x="311" y="426" type="curve" smooth="yes"/>
			<point x="375" y="426"/>
			<point x="414" y="374"/>
			<point x="414" y="267" type="curve" smooth="yes"/>
			<point x="414" y="161"/>
			<point x="375" y="108"/>
		</contour>
		<contour>
			<point x="160" y="570"/>
			<point x="200" y="570" type="curve" smooth="yes"/>
			<point x="222" y="570" type="line" smooth="yes"/>
			<point x="261" y="570"/>
			<point x="294" y="602"/>
			<point x="294" y="642" type="curve" smooth="yes"/>
			<point x="294" y="652"/>
			<point x="292" y="662"/>
			<point x="288" y="670" type="curve" smooth="yes"/>
			<point x="274" y="702"/>
			<point x="245" y="726"/>
			<point x="210" y="726" type="curve" smooth="yes"/>
			<point x="198" y="726"/>
			<point x="187" y="723"/>
			<point x="177" y="718" type="curve" smooth="yes"/>
			<point x="148" y="704"/>
			<point x="126" y="676"/>
			<point x="126" y="644" type="curve" smooth="yes"/>
			<point x="126" y="603"/>
		</contour>
		<contour>
			<point x="361" y="570"/>
			<point x="401" y="570" type="curve" smooth="yes"/>
			<point x="423" y="570" type="line" smooth="yes"/>
			<point x="462" y="570"/>
			<point x="495" y="602"/>
			<point x="495" y="642" type="curve" smooth="yes"/>
			<point x="495" y="652"/>
			<point x="493" y="662"/>
			<point x="489" y="670" type="curve" smooth="yes"/>
			<point x="475" y="702"/>
			<point x="446" y="726"/>
			<point x="411" y="726" type="curve" smooth="yes"/>
			<point x="399" y="726"/>
			<point x="388" y="723"/>
			<point x="378" y="718" type="curve" smooth="yes"/>
			<point x="349" y="704"/>
			<point x="327" y="676"/>
			<point x="327" y="644" type="curve" smooth="yes"/>
			<point x="327" y="603"/>
		</contour>
	</outline>
</glyph>
<glyph name="divide" format="2">
	<advance width="662"/>
	<unicode hex="00F7"/>
	<note>
		divide
	</note>
	<outline>
		<contour>
			<point x="331" y="585" type="curve" smooth="yes"/>
			<point x="286" y="585"/>
			<point x="251" y="550"/>
			<point x="251" y="505" type="curve" smooth="yes"/>
			<point x="251" y="460"/>
			<point x="286" y="425"/>
			<point x="331" y="425" type="curve" smooth="yes"/>
			<point x="376" y="425"/>
			<point x="411" y="460"/>
			<point x="411" y="505" type="curve" smooth="yes"/>
			<point x="411" y="550"/>
			<point x="376" y="585"/>
		</contour>
		<contour>
			<point x="125" y="269" type="curve" smooth="yes"/>
			<point x="537" y="269" type="line" smooth="yes"/>
			<point x="563" y="269"/>
			<point x="585" y="290"/>
			<point x="585" y="317" type="curve" smooth="yes"/>
			<point x="585" y="344"/>
			<point x="563" y="365"/>
			<point x="537" y="365" type="curve" smooth="yes"/>
			<point x="125" y="365" type="line" smooth="yes"/>
			<point x="99" y="365"/>
			<point x="77" y="344"/>
			<point x="77" y="317" type="curve" smooth="yes"/>
			<point x="77" y="290"/>
			<point x="99" y="269"/>
		</contour>
		<contour>
			<point x="331" y="209" type="curve" smooth="yes"/>
			<point x="286" y="209"/>
			<point x="251" y="174"/>
			<point x="251" y="129" type="curve" smooth="yes"/>
			<point x="251" y="84"/>
			<point x="286" y="49"/>
			<point x="331" y="49" type="curve" smooth="yes"/>
			<point x="376" y="49"/>
			<point x="411" y="84"/>
			<point x="411" y="129" type="curve" smooth="yes"/>
			<point x="411" y="174"/>
			<point x="376" y="209"/>
		</contour>
	</outline>
</glyph>
<glyph name="ugrave" format="2">
	<advance width="640"/>
	<unicode hex="00F9"/>
	<note>
		ugrave
	</note>
	<outline>
		<contour>
			<point x="257" y="576"/>
			<point x="287" y="565" type="curve" smooth="yes"/>
			<point x="291" y="563"/>
			<point x="297" y="562"/>
			<point x="303" y="562" type="curve" smooth="yes"/>
			<point x="327" y="562"/>
			<point x="348" y="582"/>
			<point x="348" y="607" type="curve" smooth="yes"/>
			<point x="348" y="616"/>
			<point x="344" y="626"/>
			<point x="339" y="633" type="curve" smooth="yes"/>
			<point x="308" y="675"/>
			<point x="242" y="699"/>
			<point x="234" y="643" type="curve" smooth="yes"/>
			<point x="233" y="639"/>
			<point x="233" y="636"/>
			<point x="233" y="633" type="curve" smooth="yes"/>
			<point x="233" y="602"/>
		</contour>
		<contour>
			<point x="586" y="81" type="curve" smooth="yes"/>
			<point x="586" y="453" type="line" smooth="yes"/>
			<point x="586" y="502"/>
			<point x="546" y="543"/>
			<point x="496" y="543" type="curve" smooth="yes"/>
			<point x="446" y="543"/>
			<point x="406" y="502"/>
			<point x="406" y="453" type="curve" smooth="yes"/>
			<point x="406" y="232" type="line" smooth="yes"/>
			<point x="406" y="161"/>
			<point x="372" y="108"/>
			<point x="315" y="108" type="curve" smooth="yes"/>
			<point x="258" y="108"/>
			<point x="234" y="138"/>
			<point x="228" y="189" type="curve" smooth="yes"/>
			<point x="225" y="216"/>
			<point x="224" y="245"/>
			<point x="224" y="262" type="curve" smooth="yes"/>
			<point x="224" y="453" type="line" smooth="yes"/>
			<point x="224" y="502"/>
			<point x="184" y="543"/>
			<point x="134" y="543" type="curve" smooth="yes"/>
			<point x="84" y="543"/>
			<point x="44" y="502"/>
			<point x="44" y="453" type="curve" smooth="yes"/>
			<point x="44" y="222" type="line" smooth="yes"/>
			<point x="44" y="179"/>
			<point x="45" y="148"/>
			<point x="49" y="121" type="curve" smooth="yes"/>
			<point x="61" y="48"/>
			<point x="128" y="-14"/>
			<point x="238" y="-14" type="curve" smooth="yes"/>
			<point x="270" y="-14"/>
			<point x="297" y="-9"/>
			<point x="323" y="-2" type="curve" smooth="yes"/>
			<point x="362" y="9"/>
			<point x="397" y="40"/>
			<point x="406" y="81" type="curve"/>
			<point x="406" y="32"/>
			<point x="446" y="-9"/>
			<point x="496" y="-9" type="curve" smooth="yes"/>
			<point x="546" y="-9"/>
			<point x="586" y="32"/>
		</contour>
	</outline>
</glyph>
<glyph name="ucircumflex" format="2">
	<advance width="640"/>
	<unicode hex="00FB"/>
	<note>
		ucircumflex
	</note>
	<outline>
		<contour>
			<point x="283" y="573"/>
			<point x="290" y="590" type="curve" smooth="yes"/>
			<point x="314" y="647" type="line"/>
			<point x="331" y="609" type="line" smooth="yes"/>
			<point x="343" y="583"/>
			<point x="352" y="571"/>
			<point x="361" y="571" type="curve" smooth="yes"/>
			<point x="395" y="571"/>
			<point x="424" y="599"/>
			<point x="424" y="633" type="curve" smooth="yes"/>
			<point x="424" y="668"/>
			<point x="395" y="696"/>
			<point x="361" y="696" type="curve" smooth="yes"/>
			<point x="275" y="696" type="line" smooth="yes"/>
			<point x="231" y="696"/>
			<point x="199" y="658"/>
			<point x="202" y="620" type="curve"/>
			<point x="203" y="616"/>
			<point x="202" y="612"/>
			<point x="202" y="608" type="curve" smooth="yes"/>
			<point x="202" y="582"/>
			<point x="223" y="562"/>
			<point x="248" y="562" type="curve" smooth="yes"/>
			<point x="267" y="562"/>
		</contour>
		<contour>
			<point x="586" y="81" type="curve" smooth="yes"/>
			<point x="586" y="453" type="line" smooth="yes"/>
			<point x="586" y="502"/>
			<point x="546" y="543"/>
			<point x="496" y="543" type="curve" smooth="yes"/>
			<point x="446" y="543"/>
			<point x="406" y="502"/>
			<point x="406" y="453" type="curve" smooth="yes"/>
			<point x="406" y="232" type="line" smooth="yes"/>
			<point x="406" y="161"/>
			<point x="372" y="108"/>
			<point x="315" y="108" type="curve" smooth="yes"/>
			<point x="258" y="108"/>
			<point x="234" y="138"/>
			<point x="228" y="189" type="curve" smooth="yes"/>
			<point x="225" y="216"/>
			<point x="224" y="245"/>
			<point x="224" y="262" type="curve" smooth="yes"/>
			<point x="224" y="453" type="line" smooth="yes"/>
			<point x="224" y="502"/>
			<point x="184" y="543"/>
			<point x="134" y="543" type="curve" smooth="yes"/>
			<point x="84" y="543"/>
			<point x="44" y="502"/>
			<point x="44" y="453" type="curve" smooth="yes"/>
			<point x="44" y="222" type="line" smooth="yes"/>
			<point x="44" y="179"/>
			<point x="45" y="148"/>
			<point x="49" y="121" type="curve" smooth="yes"/>
			<point x="61" y="48"/>
			<point x="128" y="-14"/>
			<point x="238" y="-14" type="curve" smooth="yes"/>
			<point x="270" y="-14"/>
			<point x="297" y="-9"/>
			<point x="323" y="-2" type="curve" smooth="yes"/>
			<point x="362" y="9"/>
			<point x="397" y="40"/>
			<point x="406" y="81" type="curve"/>
			<point x="406" y="32"/>
			<point x="446" y="-9"/>
			<point x="496" y="-9" type="curve" smooth="yes"/>
			<point x="546" y="-9"/>
			<point x="586" y="32"/>
		</contour>
	</outline>
</glyph>
<glyph name="udieresis" format="2">
	<advance width="640"/>
	<unicode hex="00FC"/>
	<note>
		udieresis
	</note>
	<outline>
		<contour>
			<point x="586" y="81" type="curve" smooth="yes"/>
			<point x="586" y="453" type="line" smooth="yes"/>
			<point x="586" y="502"/>
			<point x="546" y="543"/>
			<point x="496" y="543" type="curve" smooth="yes"/>
			<point x="446" y="543"/>
			<point x="406" y="502"/>
			<point x="406" y="453" type="curve" smooth="yes"/>
			<point x="406" y="232" type="line" smooth="yes"/>
			<point x="406" y="161"/>
			<point x="372" y="108"/>
			<point x="315" y="108" type="curve" smooth="yes"/>
			<point x="258" y="108"/>
			<point x="234" y="138"/>
			<point x="228" y="189" type="curve" smooth="yes"/>
			<point x="225" y="216"/>
			<point x="224" y="245"/>
			<point x="224" y="262" type="curve" smooth="yes"/>
			<point x="224" y="453" type="line" smooth="yes"/>
			<point x="224" y="502"/>
			<point x="184" y="543"/>
			<point x="134" y="543" type="curve" smooth="yes"/>
			<point x="84" y="543"/>
			<point x="44" y="502"/>
			<point x="44" y="453" type="curve" smooth="yes"/>
			<point x="44" y="222" type="line" smooth="yes"/>
			<point x="44" y="179"/>
			<point x="45" y="148"/>
			<point x="49" y="121" type="curve" smooth="yes"/>
			<point x="61" y="48"/>
			<point x="128" y="-14"/>
			<point x="238" y="-14" type="curve" smooth="yes"/>
			<point x="270" y="-14"/>
			<point x="297" y="-9"/>
			<point x="323" y="-2" type="curve" smooth="yes"/>
			<point x="362" y="9"/>
			<point x="397" y="40"/>
			<point x="406" y="81" type="curve"/>
			<point x="406" y="32"/>
			<point x="446" y="-9"/>
			<point x="496" y="-9" type="curve" smooth="yes"/>
			<point x="546" y="-9"/>
			<point x="586" y="32"/>
		</contour>
		<contour>
			<point x="163" y="571"/>
			<point x="203" y="571" type="curve" smooth="yes"/>
			<point x="225" y="571" type="line" smooth="yes"/>
			<point x="264" y="571"/>
			<point x="297" y="603"/>
			<point x="297" y="643" type="curve" smooth="yes"/>
			<point x="297" y="653"/>
			<point x="295" y="663"/>
			<point x="291" y="671" type="curve" smooth="yes"/>
			<point x="277" y="703"/>
			<point x="248" y="727"/>
			<point x="213" y="727" type="curve" smooth="yes"/>
			<point x="201" y="727"/>
			<point x="190" y="724"/>
			<point x="180" y="719" type="curve" smooth="yes"/>
			<point x="151" y="705"/>
			<point x="129" y="677"/>
			<point x="129" y="645" type="curve" smooth="yes"/>
			<point x="129" y="604"/>
		</contour>
		<contour>
			<point x="364" y="571"/>
			<point x="404" y="571" type="curve" smooth="yes"/>
			<point x="426" y="571" type="line" smooth="yes"/>
			<point x="465" y="571"/>
			<point x="498" y="603"/>
			<point x="498" y="643" type="curve" smooth="yes"/>
			<point x="498" y="653"/>
			<point x="496" y="663"/>
			<point x="492" y="671" type="curve" smooth="yes"/>
			<point x="478" y="703"/>
			<point x="449" y="727"/>
			<point x="414" y="727" type="curve" smooth="yes"/>
			<point x="402" y="727"/>
			<point x="391" y="724"/>
			<point x="381" y="719" type="curve" smooth="yes"/>
			<point x="352" y="705"/>
			<point x="330" y="677"/>
			<point x="330" y="645" type="curve" smooth="yes"/>
			<point x="330" y="604"/>
		</contour>
	</outline>
</glyph>
<glyph name="yacute" format="2">
	<advance width="608"/>
	<unicode hex="00FD"/>
	<note>
		yacute
	</note>
	<outline>
		<contour>
			<point x="316" y="562"/>
			<point x="317" y="563" type="curve" smooth="yes"/>
			<point x="391" y="635"/>
			<point x="426" y="710"/>
			<point x="375" y="705" type="curve" smooth="yes"/>
			<point x="373" y="705"/>
			<point x="371" y="704"/>
			<point x="369" y="704" type="curve" smooth="yes"/>
			<point x="322" y="693"/>
			<point x="283" y="658"/>
			<point x="277" y="611" type="curve" smooth="yes"/>
			<point x="276" y="607"/>
			<point x="276" y="604"/>
			<point x="276" y="601" type="curve" smooth="yes"/>
			<point x="276" y="580"/>
			<point x="294" y="562"/>
			<point x="316" y="562" type="curve"/>
			<point x="316" y="562"/>
		</contour>
		<contour>
			<point x="405" y="0" type="curve" smooth="yes"/>
			<point x="572" y="422" type="line" smooth="yes"/>
			<point x="576" y="432"/>
			<point x="578" y="443"/>
			<point x="578" y="454" type="curve" smooth="yes"/>
			<point x="578" y="503"/>
			<point x="538" y="543"/>
			<point x="489" y="543" type="curve" smooth="yes"/>
			<point x="448" y="543"/>
			<point x="413" y="515"/>
			<point x="403" y="478" type="curve" smooth="yes"/>
			<point x="310" y="143" type="line"/>
			<point x="216" y="477" type="line" smooth="yes"/>
			<point x="205" y="515"/>
			<point x="170" y="543"/>
			<point x="129" y="543" type="curve" smooth="yes"/>
			<point x="79" y="543"/>
			<point x="39" y="503"/>
			<point x="39" y="453" type="curve" smooth="yes"/>
			<point x="39" y="441"/>
			<point x="41" y="431"/>
			<point x="45" y="420" type="curve" smooth="yes"/>
			<point x="221" y="-24" type="line"/>
			<point x="214" y="-39" type="line" smooth="yes"/>
			<point x="197" y="-77"/>
			<point x="168" y="-91"/>
			<point x="126" y="-91" type="curve" smooth="yes"/>
			<point x="94" y="-92"/>
			<point x="68" y="-118"/>
			<point x="68" y="-150" type="curve" smooth="yes"/>
			<point x="68" y="-182"/>
			<point x="94" y="-209"/>
			<point x="125" y="-210" type="curve" smooth="yes"/>
			<point x="153" y="-210" type="line" smooth="yes"/>
			<point x="280" y="-210"/>
			<point x="338" y="-169"/>
		</contour>
	</outline>
</glyph>
<glyph name="thorn" format="2">
	<advance width="669"/>
	<unicode hex="00FE"/>
	<note>
		thorn
	</note>
	<outline>
		<contour>
			<point x="410" y="548" type="curve" smooth="yes"/>
			<point x="377" y="548"/>
			<point x="345" y="544"/>
			<point x="318" y="536" type="curve" smooth="yes"/>
			<point x="284" y="525"/>
			<point x="265" y="501"/>
			<point x="240" y="464" type="curve" smooth="yes"/>
			<point x="234" y="456" type="line"/>
			<point x="234" y="654" type="line" smooth="yes"/>
			<point x="234" y="703"/>
			<point x="194" y="744"/>
			<point x="144" y="744" type="curve" smooth="yes"/>
			<point x="94" y="744"/>
			<point x="54" y="703"/>
			<point x="54" y="654" type="curve" smooth="yes"/>
			<point x="54" y="-115" type="line" smooth="yes"/>
			<point x="54" y="-164"/>
			<point x="94" y="-205"/>
			<point x="144" y="-205" type="curve" smooth="yes"/>
			<point x="194" y="-205"/>
			<point x="234" y="-164"/>
			<point x="234" y="-115" type="curve" smooth="yes"/>
			<point x="234" y="69" type="line"/>
			<point x="252" y="41" type="line" smooth="yes"/>
			<point x="264" y="21"/>
			<point x="284" y="1"/>
			<point x="330" y="-8" type="curve" smooth="yes"/>
			<point x="350" y="-12"/>
			<point x="372" y="-14"/>
			<point x="392" y="-14" type="curve" smooth="yes"/>
			<point x="529" y="-14"/>
			<point x="645" y="89"/>
			<point x="645" y="279" type="curve" smooth="yes"/>
			<point x="645" y="437"/>
			<point x="555" y="548"/>
		</contour>
		<contour>
			<point x="343" y="108" type="curve" smooth="yes"/>
			<point x="289" y="108"/>
			<point x="234" y="144"/>
			<point x="234" y="251" type="curve" smooth="yes"/>
			<point x="234" y="274" type="line" smooth="yes"/>
			<point x="234" y="386"/>
			<point x="282" y="426"/>
			<point x="348" y="426" type="curve" smooth="yes"/>
			<point x="411" y="426"/>
			<point x="461" y="370"/>
			<point x="461" y="270" type="curve" smooth="yes"/>
			<point x="461" y="161"/>
			<point x="413" y="108"/>
		</contour>
	</outline>
</glyph>
<glyph name="ydieresis" format="2">
	<advance width="608"/>
	<unicode hex="00FF"/>
	<note>
		ydieresis
	</note>
	<outline>
		<contour>
			<point x="405" y="0" type="curve" smooth="yes"/>
			<point x="572" y="422" type="line" smooth="yes"/>
			<point x="576" y="432"/>
			<point x="578" y="443"/>
			<point x="578" y="454" type="curve" smooth="yes"/>
			<point x="578" y="503"/>
			<point x="538" y="543"/>
			<point x="489" y="543" type="curve" smooth="yes"/>
			<point x="448" y="543"/>
			<point x="413" y="515"/>
			<point x="403" y="478" type="curve" smooth="yes"/>
			<point x="310" y="143" type="line"/>
			<point x="216" y="477" type="line" smooth="yes"/>
			<point x="205" y="515"/>
			<point x="170" y="543"/>
			<point x="129" y="543" type="curve" smooth="yes"/>
			<point x="79" y="543"/>
			<point x="39" y="503"/>
			<point x="39" y="453" type="curve" smooth="yes"/>
			<point x="39" y="441"/>
			<point x="41" y="431"/>
			<point x="45" y="420" type="curve" smooth="yes"/>
			<point x="221" y="-24" type="line"/>
			<point x="214" y="-39" type="line" smooth="yes"/>
			<point x="196" y="-77"/>
			<point x="168" y="-91"/>
			<point x="126" y="-91" type="curve" smooth="yes"/>
			<point x="94" y="-92"/>
			<point x="68" y="-118"/>
			<point x="68" y="-150" type="curve" smooth="yes"/>
			<point x="68" y="-182"/>
			<point x="94" y="-209"/>
			<point x="125" y="-210" type="curve" smooth="yes"/>
			<point x="153" y="-210" type="line" smooth="yes"/>
			<point x="280" y="-210"/>
			<point x="338" y="-169"/>
		</contour>
		<contour>
			<point x="151" y="570"/>
			<point x="191" y="570" type="curve" smooth="yes"/>
			<point x="213" y="570" type="line" smooth="yes"/>
			<point x="252" y="570"/>
			<point x="285" y="602"/>
			<point x="285" y="642" type="curve" smooth="yes"/>
			<point x="285" y="652"/>
			<point x="283" y="662"/>
			<point x="279" y="670" type="curve" smooth="yes"/>
			<point x="265" y="702"/>
			<point x="236" y="726"/>
			<point x="201" y="726" type="curve" smooth="yes"/>
			<point x="189" y="726"/>
			<point x="178" y="723"/>
			<point x="168" y="718" type="curve" smooth="yes"/>
			<point x="139" y="704"/>
			<point x="117" y="676"/>
			<point x="117" y="644" type="curve" smooth="yes"/>
			<point x="117" y="603"/>
		</contour>
		<contour>
			<point x="352" y="570"/>
			<point x="392" y="570" type="curve" smooth="yes"/>
			<point x="414" y="570" type="line" smooth="yes"/>
			<point x="453" y="570"/>
			<point x="486" y="602"/>
			<point x="486" y="642" type="curve" smooth="yes"/>
			<point x="486" y="652"/>
			<point x="484" y="662"/>
			<point x="480" y="670" type="curve" smooth="yes"/>
			<point x="466" y="702"/>
			<point x="437" y="726"/>
			<point x="402" y="726" type="curve" smooth="yes"/>
			<point x="390" y="726"/>
			<point x="379" y="723"/>
			<point x="369" y="718" type="curve" smooth="yes"/>
			<point x="340" y="704"/>
			<point x="318" y="676"/>
			<point x="318" y="644" type="curve" smooth="yes"/>
			<point x="318" y="603"/>
		</contour>
	</outline>
</glyph>
<glyph name="amacron" format="2">
	<advance width="587"/>
	<unicode hex="0101"/>
	<note>
		amacron
	</note>
	<outline>
		<contour>
			<point x="182" y="586" type="curve" smooth="yes"/>
			<point x="404" y="586" type="line" smooth="yes"/>
			<point x="430" y="586"/>
			<point x="452" y="607"/>
			<point x="452" y="634" type="curve" smooth="yes"/>
			<point x="452" y="661"/>
			<point x="430" y="682"/>
			<point x="404" y="682" type="curve" smooth="yes"/>
			<point x="182" y="682" type="line" smooth="yes"/>
			<point x="156" y="682"/>
			<point x="134" y="661"/>
			<point x="134" y="634" type="curve" smooth="yes"/>
			<point x="134" y="607"/>
			<point x="156" y="586"/>
		</contour>
		<contour>
			<point x="355" y="78" type="curve"/>
			<point x="357" y="67" type="line" smooth="yes"/>
			<point x="363" y="25"/>
			<point x="400" y="-9"/>
			<point x="445" y="-9" type="curve" smooth="yes"/>
			<point x="499" y="-9"/>
			<point x="537" y="38"/>
			<point x="534" y="85" type="curve" smooth="yes"/>
			<point x="533" y="103"/>
			<point x="533" y="119"/>
			<point x="533" y="135" type="curve" smooth="yes"/>
			<point x="533" y="285" type="line" smooth="yes"/>
			<point x="533" y="318"/>
			<point x="532" y="349"/>
			<point x="530" y="376" type="curve" smooth="yes"/>
			<point x="522" y="473"/>
			<point x="464" y="548"/>
			<point x="295" y="548" type="curve" smooth="yes"/>
			<point x="215" y="548"/>
			<point x="143" y="523"/>
			<point x="97" y="474" type="curve" smooth="yes"/>
			<point x="84" y="459"/>
			<point x="76" y="440"/>
			<point x="76" y="419" type="curve" smooth="yes"/>
			<point x="76" y="374"/>
			<point x="112" y="337"/>
			<point x="157" y="337" type="curve" smooth="yes"/>
			<point x="190" y="337"/>
			<point x="215" y="360"/>
			<point x="227" y="388" type="curve" smooth="yes"/>
			<point x="238" y="414"/>
			<point x="258" y="426"/>
			<point x="287" y="426" type="curve" smooth="yes"/>
			<point x="326" y="426"/>
			<point x="348" y="402"/>
			<point x="351" y="375" type="curve" smooth="yes"/>
			<point x="353" y="358"/>
			<point x="353" y="347"/>
			<point x="353" y="336" type="curve" smooth="yes"/>
			<point x="353" y="328" type="line"/>
			<point x="319" y="328" type="line" smooth="yes"/>
			<point x="138" y="328"/>
			<point x="30" y="258"/>
			<point x="30" y="144" type="curve" smooth="yes"/>
			<point x="30" y="41"/>
			<point x="113" y="-14"/>
			<point x="201" y="-14" type="curve" smooth="yes"/>
			<point x="226" y="-14"/>
			<point x="250" y="-11"/>
			<point x="272" y="-5" type="curve" smooth="yes"/>
			<point x="318" y="8"/>
			<point x="339" y="38"/>
		</contour>
		<contour>
			<point x="275" y="108" type="curve" smooth="yes"/>
			<point x="239" y="108"/>
			<point x="214" y="126"/>
			<point x="214" y="158" type="curve" smooth="yes"/>
			<point x="214" y="211"/>
			<point x="272" y="232"/>
			<point x="353" y="226" type="curve"/>
			<point x="353" y="191" type="line" smooth="yes"/>
			<point x="353" y="135"/>
			<point x="311" y="108"/>
		</contour>
	</outline>
</glyph>
<glyph name="Aogonek" format="2">
	<advance width="707"/>
	<unicode hex="0104"/>
	<note>
		Aogonek
	</note>
	<outline>
		<contour>
			<point x="604" y="-70" type="curve" smooth="yes"/>
			<point x="604" y="-34"/>
			<point x="622" y="-3"/>
			<point x="646" y="-8" type="curve" smooth="yes"/>
			<point x="676" y="-15"/>
			<point x="705" y="9"/>
			<point x="705" y="40" type="curve" smooth="yes"/>
			<point x="705" y="46"/>
			<point x="704" y="50"/>
			<point x="702" y="56" type="curve" smooth="yes"/>
			<point x="500" y="614" type="line" smooth="yes"/>
			<point x="481" y="665"/>
			<point x="447" y="690"/>
			<point x="392" y="690" type="curve" smooth="yes"/>
			<point x="334" y="690" type="line" smooth="yes"/>
			<point x="279" y="690"/>
			<point x="245" y="665"/>
			<point x="226" y="614" type="curve" smooth="yes"/>
			<point x="44" y="110" type="line" smooth="yes"/>
			<point x="41" y="101"/>
			<point x="38" y="91"/>
			<point x="38" y="80" type="curve" smooth="yes"/>
			<point x="38" y="31"/>
			<point x="78" y="-9"/>
			<point x="127" y="-9" type="curve" smooth="yes"/>
			<point x="167" y="-9"/>
			<point x="201" y="18"/>
			<point x="212" y="53" type="curve" smooth="yes"/>
			<point x="253" y="179" type="line"/>
			<point x="468" y="179" type="line"/>
			<point x="525" y="4" type="line"/>
			<point x="480" y="-21"/>
			<point x="440" y="-78"/>
			<point x="440" y="-137" type="curve" smooth="yes"/>
			<point x="440" y="-201"/>
			<point x="488" y="-223"/>
			<point x="554" y="-223" type="curve" smooth="yes"/>
			<point x="609" y="-223"/>
			<point x="648" y="-207"/>
			<point x="683" y="-184" type="curve" smooth="yes"/>
			<point x="693" y="-177"/>
			<point x="698" y="-167"/>
			<point x="698" y="-155" type="curve" smooth="yes"/>
			<point x="698" y="-133"/>
			<point x="676" y="-116"/>
			<point x="655" y="-120" type="curve" smooth="yes"/>
			<point x="652" y="-121"/>
			<point x="648" y="-121"/>
			<point x="645" y="-121" type="curve" smooth="yes"/>
			<point x="625" y="-121"/>
			<point x="604" y="-108"/>
		</contour>
		<contour>
			<point x="297" y="319" type="line"/>
			<point x="361" y="531" type="line"/>
			<point x="425" y="319" type="line"/>
		</contour>
	</outline>
</glyph>
<glyph name="aogonek" format="2">
	<advance width="587"/>
	<unicode hex="0105"/>
	<note>
		aogonek
	</note>
	<outline>
		<contour>
			<point x="445" y="-70" type="curve" smooth="yes"/>
			<point x="445" y="-32"/>
			<point x="465" y="0"/>
			<point x="490" y="0" type="curve" smooth="yes"/>
			<point x="524" y="0"/>
			<point x="536" y="35"/>
			<point x="534" y="99" type="curve" smooth="yes"/>
			<point x="533" y="111"/>
			<point x="533" y="123"/>
			<point x="533" y="135" type="curve" smooth="yes"/>
			<point x="533" y="285" type="line" smooth="yes"/>
			<point x="533" y="318"/>
			<point x="532" y="349"/>
			<point x="530" y="376" type="curve" smooth="yes"/>
			<point x="522" y="473"/>
			<point x="464" y="548"/>
			<point x="295" y="548" type="curve" smooth="yes"/>
			<point x="215" y="548"/>
			<point x="143" y="523"/>
			<point x="97" y="474" type="curve" smooth="yes"/>
			<point x="84" y="459"/>
			<point x="76" y="440"/>
			<point x="76" y="419" type="curve" smooth="yes"/>
			<point x="76" y="374"/>
			<point x="112" y="337"/>
			<point x="157" y="337" type="curve" smooth="yes"/>
			<point x="190" y="337"/>
			<point x="215" y="360"/>
			<point x="227" y="388" type="curve" smooth="yes"/>
			<point x="238" y="414"/>
			<point x="258" y="426"/>
			<point x="287" y="426" type="curve" smooth="yes"/>
			<point x="326" y="426"/>
			<point x="348" y="402"/>
			<point x="351" y="375" type="curve" smooth="yes"/>
			<point x="353" y="358"/>
			<point x="353" y="347"/>
			<point x="353" y="336" type="curve" smooth="yes"/>
			<point x="353" y="328" type="line"/>
			<point x="319" y="328" type="line" smooth="yes"/>
			<point x="138" y="328"/>
			<point x="30" y="258"/>
			<point x="30" y="144" type="curve" smooth="yes"/>
			<point x="30" y="41"/>
			<point x="113" y="-14"/>
			<point x="201" y="-14" type="curve" smooth="yes"/>
			<point x="226" y="-14"/>
			<point x="250" y="-11"/>
			<point x="272" y="-5" type="curve" smooth="yes"/>
			<point x="318" y="8"/>
			<point x="339" y="38"/>
			<point x="355" y="78" type="curve"/>
			<point x="366" y="5" type="line"/>
			<point x="322" y="-21"/>
			<point x="281" y="-77"/>
			<point x="281" y="-137" type="curve" smooth="yes"/>
			<point x="281" y="-201"/>
			<point x="329" y="-223"/>
			<point x="395" y="-223" type="curve" smooth="yes"/>
			<point x="450" y="-223"/>
			<point x="489" y="-207"/>
			<point x="524" y="-184" type="curve" smooth="yes"/>
			<point x="534" y="-177"/>
			<point x="539" y="-167"/>
			<point x="539" y="-155" type="curve" smooth="yes"/>
			<point x="539" y="-133"/>
			<point x="517" y="-116"/>
			<point x="496" y="-120" type="curve" smooth="yes"/>
			<point x="493" y="-121"/>
			<point x="489" y="-121"/>
			<point x="486" y="-121" type="curve" smooth="yes"/>
			<point x="466" y="-121"/>
			<point x="445" y="-108"/>
		</contour>
		<contour>
			<point x="275" y="108" type="curve" smooth="yes"/>
			<point x="239" y="108"/>
			<point x="214" y="126"/>
			<point x="214" y="158" type="curve" smooth="yes"/>
			<point x="214" y="211"/>
			<point x="272" y="232"/>
			<point x="353" y="226" type="curve"/>
			<point x="353" y="191" type="line" smooth="yes"/>
			<point x="353" y="135"/>
			<point x="311" y="108"/>
		</contour>
	</outline>
</glyph>
<glyph name="Ccaron" format="2">
	<advance width="734"/>
	<unicode hex="010C"/>
	<note>
		Ccaron
	</note>
	<outline>
		<contour>
			<point x="305" y="735"/>
			<point x="339" y="735" type="curve" smooth="yes"/>
			<point x="425" y="735" type="line" smooth="yes"/>
			<point x="469" y="735"/>
			<point x="501" y="773"/>
			<point x="498" y="811" type="curve"/>
			<point x="497" y="815"/>
			<point x="498" y="819"/>
			<point x="498" y="823" type="curve" smooth="yes"/>
			<point x="498" y="849"/>
			<point x="477" y="869"/>
			<point x="452" y="869" type="curve" smooth="yes"/>
			<point x="433" y="869"/>
			<point x="417" y="858"/>
			<point x="410" y="841" type="curve" smooth="yes"/>
			<point x="386" y="784" type="line"/>
			<point x="369" y="822" type="line" smooth="yes"/>
			<point x="357" y="848"/>
			<point x="348" y="860"/>
			<point x="339" y="860" type="curve" smooth="yes"/>
			<point x="305" y="860"/>
			<point x="276" y="832"/>
			<point x="276" y="798" type="curve" smooth="yes"/>
			<point x="276" y="763"/>
		</contour>
		<contour>
			<point x="581" y="285"/>
			<point x="571" y="279" type="curve" smooth="yes"/>
			<point x="531" y="256"/>
			<point x="526" y="218"/>
			<point x="502" y="177" type="curve" smooth="yes"/>
			<point x="479" y="139"/>
			<point x="443" y="118"/>
			<point x="394" y="118" type="curve" smooth="yes"/>
			<point x="314" y="118"/>
			<point x="242" y="177"/>
			<point x="242" y="351" type="curve" smooth="yes"/>
			<point x="242" y="500"/>
			<point x="307" y="572"/>
			<point x="393" y="572" type="curve" smooth="yes"/>
			<point x="443" y="572"/>
			<point x="480" y="556"/>
			<point x="503" y="522" type="curve" smooth="yes"/>
			<point x="529" y="482"/>
			<point x="535" y="443"/>
			<point x="579" y="431" type="curve" smooth="yes"/>
			<point x="588" y="429"/>
			<point x="597" y="428"/>
			<point x="606" y="428" type="curve" smooth="yes"/>
			<point x="623" y="428"/>
			<point x="643" y="430"/>
			<point x="661" y="435" type="curve" smooth="yes"/>
			<point x="698" y="446"/>
			<point x="709" y="486"/>
			<point x="690" y="536" type="curve" smooth="yes"/>
			<point x="652" y="635"/>
			<point x="555" y="704"/>
			<point x="395" y="704" type="curve" smooth="yes"/>
			<point x="208" y="704"/>
			<point x="54" y="580"/>
			<point x="54" y="340" type="curve" smooth="yes"/>
			<point x="54" y="106"/>
			<point x="203" y="-14"/>
			<point x="388" y="-14" type="curve" smooth="yes"/>
			<point x="535" y="-14"/>
			<point x="649" y="48"/>
			<point x="690" y="168" type="curve" smooth="yes"/>
			<point x="706" y="216"/>
			<point x="696" y="260"/>
			<point x="650" y="279" type="curve" smooth="yes"/>
			<point x="636" y="285"/>
			<point x="621" y="288"/>
			<point x="604" y="288" type="curve" smooth="yes"/>
			<point x="591" y="288"/>
		</contour>
	</outline>
</glyph>
<glyph name="ccaron" format="2">
	<advance width="587"/>
	<unicode hex="010D"/>
	<note>
		ccaron
	</note>
	<outline>
		<contour>
			<point x="214" y="571"/>
			<point x="248" y="571" type="curve" smooth="yes"/>
			<point x="334" y="571" type="line" smooth="yes"/>
			<point x="378" y="571"/>
			<point x="410" y="609"/>
			<point x="407" y="647" type="curve"/>
			<point x="406" y="651"/>
			<point x="407" y="655"/>
			<point x="407" y="659" type="curve" smooth="yes"/>
			<point x="407" y="685"/>
			<point x="386" y="705"/>
			<point x="361" y="705" type="curve" smooth="yes"/>
			<point x="342" y="705"/>
			<point x="326" y="694"/>
			<point x="319" y="677" type="curve" smooth="yes"/>
			<point x="295" y="620" type="line"/>
			<point x="278" y="658" type="line" smooth="yes"/>
			<point x="266" y="684"/>
			<point x="257" y="696"/>
			<point x="248" y="696" type="curve" smooth="yes"/>
			<point x="214" y="696"/>
			<point x="185" y="668"/>
			<point x="185" y="634" type="curve" smooth="yes"/>
			<point x="185" y="599"/>
		</contour>
		<contour>
			<point x="388" y="187"/>
			<point x="375" y="159" type="curve" smooth="yes"/>
			<point x="359" y="124"/>
			<point x="333" y="108"/>
			<point x="303" y="108" type="curve" smooth="yes"/>
			<point x="242" y="108"/>
			<point x="208" y="158"/>
			<point x="208" y="272" type="curve" smooth="yes"/>
			<point x="208" y="375"/>
			<point x="241" y="426"/>
			<point x="301" y="426" type="curve" smooth="yes"/>
			<point x="334" y="426"/>
			<point x="362" y="412"/>
			<point x="378" y="372" type="curve" smooth="yes"/>
			<point x="389" y="342"/>
			<point x="419" y="320"/>
			<point x="453" y="320" type="curve" smooth="yes"/>
			<point x="497" y="320"/>
			<point x="533" y="356"/>
			<point x="533" y="401" type="curve" smooth="yes"/>
			<point x="533" y="418"/>
			<point x="530" y="436"/>
			<point x="521" y="449" type="curve" smooth="yes"/>
			<point x="478" y="510"/>
			<point x="403" y="548"/>
			<point x="305" y="548" type="curve" smooth="yes"/>
			<point x="148" y="548"/>
			<point x="24" y="445"/>
			<point x="24" y="261" type="curve" smooth="yes"/>
			<point x="24" y="85"/>
			<point x="140" y="-14"/>
			<point x="293" y="-14" type="curve" smooth="yes"/>
			<point x="385" y="-14"/>
			<point x="462" y="15"/>
			<point x="511" y="74" type="curve" smooth="yes"/>
			<point x="523" y="89"/>
			<point x="530" y="107"/>
			<point x="530" y="127" type="curve" smooth="yes"/>
			<point x="530" y="172"/>
			<point x="493" y="209"/>
			<point x="448" y="209" type="curve" smooth="yes"/>
			<point x="414" y="209"/>
		</contour>
	</outline>
</glyph>
<glyph name="dcroat" format="2">
	<advance width="669"/>
	<unicode hex="0111"/>
	<note>
		dcroat
	</note>
	<outline>
		<contour>
			<point x="615" y="575" type="line"/>
			<point x="616" y="575" type="line" smooth="yes"/>
			<point x="642" y="575"/>
			<point x="664" y="596"/>
			<point x="664" y="623" type="curve" smooth="yes"/>
			<point x="664" y="650"/>
			<point x="642" y="671"/>
			<point x="616" y="671" type="curve" smooth="yes"/>
			<point x="615" y="671" type="line"/>
			<point x="607" y="714"/>
			<point x="570" y="746"/>
			<point x="525" y="746" type="curve" smooth="yes"/>
			<point x="480" y="746"/>
			<point x="443" y="714"/>
			<point x="435" y="671" type="curve"/>
			<point x="354" y="671" type="line" smooth="yes"/>
			<point x="328" y="671"/>
			<point x="306" y="650"/>
			<point x="306" y="623" type="curve" smooth="yes"/>
			<point x="306" y="596"/>
			<point x="328" y="575"/>
			<point x="354" y="575" type="curve" smooth="yes"/>
			<point x="435" y="575" type="line"/>
			<point x="435" y="465" type="line"/>
			<point x="418" y="494" type="line" smooth="yes"/>
			<point x="406" y="514"/>
			<point x="385" y="533"/>
			<point x="339" y="542" type="curve" smooth="yes"/>
			<point x="319" y="546"/>
			<point x="297" y="548"/>
			<point x="277" y="548" type="curve" smooth="yes"/>
			<point x="140" y="548"/>
			<point x="24" y="445"/>
			<point x="24" y="255" type="curve" smooth="yes"/>
			<point x="24" y="97"/>
			<point x="114" y="-14"/>
			<point x="259" y="-14" type="curve" smooth="yes"/>
			<point x="287" y="-14"/>
			<point x="315" y="-11"/>
			<point x="340" y="-5" type="curve" smooth="yes"/>
			<point x="383" y="6"/>
			<point x="404" y="33"/>
			<point x="429" y="70" type="curve" smooth="yes"/>
			<point x="435" y="78" type="line"/>
			<point x="437" y="29"/>
			<point x="476" y="-9"/>
			<point x="525" y="-9" type="curve" smooth="yes"/>
			<point x="575" y="-9"/>
			<point x="615" y="32"/>
			<point x="615" y="81" type="curve" smooth="yes"/>
		</contour>
		<contour>
			<point x="321" y="108" type="curve" smooth="yes"/>
			<point x="258" y="108"/>
			<point x="208" y="164"/>
			<point x="208" y="264" type="curve" smooth="yes"/>
			<point x="208" y="373"/>
			<point x="256" y="426"/>
			<point x="326" y="426" type="curve" smooth="yes"/>
			<point x="380" y="426"/>
			<point x="435" y="390"/>
			<point x="435" y="283" type="curve" smooth="yes"/>
			<point x="435" y="260" type="line" smooth="yes"/>
			<point x="435" y="148"/>
			<point x="387" y="108"/>
		</contour>
	</outline>
</glyph>
<glyph name="emacron" format="2">
	<advance width="601"/>
	<unicode hex="0113"/>
	<note>
		emacron
	</note>
	<outline>
		<contour>
			<point x="191" y="586" type="curve" smooth="yes"/>
			<point x="413" y="586" type="line" smooth="yes"/>
			<point x="439" y="586"/>
			<point x="461" y="607"/>
			<point x="461" y="634" type="curve" smooth="yes"/>
			<point x="461" y="661"/>
			<point x="439" y="682"/>
			<point x="413" y="682" type="curve" smooth="yes"/>
			<point x="191" y="682" type="line" smooth="yes"/>
			<point x="165" y="682"/>
			<point x="143" y="661"/>
			<point x="143" y="634" type="curve" smooth="yes"/>
			<point x="143" y="607"/>
			<point x="165" y="586"/>
		</contour>
		<contour>
			<point x="577" y="274" type="curve" smooth="yes"/>
			<point x="577" y="412"/>
			<point x="487" y="548"/>
			<point x="309" y="548" type="curve" smooth="yes"/>
			<point x="131" y="548"/>
			<point x="24" y="421"/>
			<point x="24" y="265" type="curve" smooth="yes"/>
			<point x="24" y="77"/>
			<point x="146" y="-14"/>
			<point x="299" y="-14" type="curve" smooth="yes"/>
			<point x="380" y="-14"/>
			<point x="447" y="10"/>
			<point x="496" y="55" type="curve" smooth="yes"/>
			<point x="510" y="69"/>
			<point x="520" y="89"/>
			<point x="520" y="111" type="curve" smooth="yes"/>
			<point x="520" y="153"/>
			<point x="486" y="188"/>
			<point x="443" y="188" type="curve" smooth="yes"/>
			<point x="415" y="188"/>
			<point x="391" y="171"/>
			<point x="378" y="147" type="curve" smooth="yes"/>
			<point x="364" y="121"/>
			<point x="338" y="108"/>
			<point x="301" y="108" type="curve" smooth="yes"/>
			<point x="250" y="108"/>
			<point x="211" y="133"/>
			<point x="202" y="222" type="curve"/>
			<point x="482" y="222" type="line" smooth="yes"/>
			<point x="542" y="222"/>
			<point x="577" y="274"/>
		</contour>
		<contour>
			<point x="300" y="426" type="curve" smooth="yes"/>
			<point x="348" y="426"/>
			<point x="379" y="395"/>
			<point x="389" y="332" type="curve"/>
			<point x="208" y="332" type="line"/>
			<point x="220" y="398"/>
			<point x="253" y="426"/>
		</contour>
	</outline>
</glyph>
<glyph name="Ecaron" format="2">
	<advance width="639"/>
	<unicode hex="011A"/>
	<note>
		Ecaron
	</note>
	<outline>
		<contour>
			<point x="261" y="735"/>
			<point x="295" y="735" type="curve" smooth="yes"/>
			<point x="381" y="735" type="line" smooth="yes"/>
			<point x="425" y="735"/>
			<point x="457" y="773"/>
			<point x="454" y="811" type="curve"/>
			<point x="453" y="815"/>
			<point x="454" y="819"/>
			<point x="454" y="823" type="curve" smooth="yes"/>
			<point x="454" y="849"/>
			<point x="433" y="869"/>
			<point x="408" y="869" type="curve" smooth="yes"/>
			<point x="389" y="869"/>
			<point x="373" y="858"/>
			<point x="366" y="841" type="curve" smooth="yes"/>
			<point x="342" y="784" type="line"/>
			<point x="325" y="822" type="line" smooth="yes"/>
			<point x="313" y="848"/>
			<point x="304" y="860"/>
			<point x="295" y="860" type="curve" smooth="yes"/>
			<point x="261" y="860"/>
			<point x="232" y="832"/>
			<point x="232" y="798" type="curve" smooth="yes"/>
			<point x="232" y="763"/>
		</contour>
		<contour>
			<point x="586" y="140"/>
			<point x="548" y="140" type="curve" smooth="yes"/>
			<point x="260" y="140" type="line"/>
			<point x="260" y="276" type="line"/>
			<point x="518" y="276" type="line" smooth="yes"/>
			<point x="556" y="276"/>
			<point x="588" y="307"/>
			<point x="588" y="346" type="curve" smooth="yes"/>
			<point x="588" y="385"/>
			<point x="556" y="416"/>
			<point x="518" y="416" type="curve" smooth="yes"/>
			<point x="260" y="416" type="line"/>
			<point x="260" y="550" type="line"/>
			<point x="538" y="550" type="line" smooth="yes"/>
			<point x="576" y="550"/>
			<point x="608" y="581"/>
			<point x="608" y="620" type="curve" smooth="yes"/>
			<point x="608" y="659"/>
			<point x="576" y="690"/>
			<point x="538" y="690" type="curve" smooth="yes"/>
			<point x="175" y="690" type="line" smooth="yes"/>
			<point x="114" y="690"/>
			<point x="80" y="656"/>
			<point x="80" y="595" type="curve" smooth="yes"/>
			<point x="80" y="95" type="line" smooth="yes"/>
			<point x="80" y="34"/>
			<point x="114" y="0"/>
			<point x="175" y="0" type="curve" smooth="yes"/>
			<point x="548" y="0" type="line" smooth="yes"/>
			<point x="586" y="0"/>
			<point x="618" y="31"/>
			<point x="618" y="70" type="curve" smooth="yes"/>
			<point x="618" y="109"/>
		</contour>
	</outline>
</glyph>
<glyph name="Gbreve" format="2">
	<advance width="759"/>
	<unicode hex="011E"/>
	<note>
		Gbreve
	</note>
	<outline>
		<contour>
			<point x="388" y="728" type="curve" smooth="yes"/>
			<point x="444" y="728"/>
			<point x="496" y="748"/>
			<point x="515" y="810" type="curve" smooth="yes"/>
			<point x="516" y="815"/>
			<point x="517" y="819"/>
			<point x="517" y="824" type="curve" smooth="yes"/>
			<point x="517" y="849"/>
			<point x="496" y="870"/>
			<point x="471" y="870" type="curve" smooth="yes"/>
			<point x="451" y="870"/>
			<point x="434" y="856"/>
			<point x="428" y="839" type="curve" smooth="yes"/>
			<point x="421" y="821"/>
			<point x="408" y="813"/>
			<point x="388" y="813" type="curve" smooth="yes"/>
			<point x="368" y="813"/>
			<point x="355" y="821"/>
			<point x="348" y="839" type="curve" smooth="yes"/>
			<point x="342" y="857"/>
			<point x="325" y="870"/>
			<point x="305" y="870" type="curve" smooth="yes"/>
			<point x="279" y="870"/>
			<point x="259" y="849"/>
			<point x="259" y="824" type="curve" smooth="yes"/>
			<point x="259" y="819"/>
			<point x="260" y="815"/>
			<point x="261" y="810" type="curve" smooth="yes"/>
			<point x="280" y="749"/>
			<point x="331" y="728"/>
		</contour>
		<contour>
			<point x="618" y="368" type="curve" smooth="yes"/>
			<point x="470" y="368" type="line" smooth="yes"/>
			<point x="432" y="368"/>
			<point x="400" y="337"/>
			<point x="400" y="298" type="curve" smooth="yes"/>
			<point x="400" y="259"/>
			<point x="432" y="228"/>
			<point x="470" y="228" type="curve" smooth="yes"/>
			<point x="543" y="228" type="line"/>
			<point x="518" y="152"/>
			<point x="472" y="118"/>
			<point x="402" y="118" type="curve" smooth="yes"/>
			<point x="317" y="118"/>
			<point x="242" y="177"/>
			<point x="242" y="351" type="curve" smooth="yes"/>
			<point x="242" y="500"/>
			<point x="315" y="572"/>
			<point x="403" y="572" type="curve" smooth="yes"/>
			<point x="453" y="572"/>
			<point x="490" y="556"/>
			<point x="513" y="522" type="curve" smooth="yes"/>
			<point x="539" y="482"/>
			<point x="545" y="443"/>
			<point x="589" y="431" type="curve" smooth="yes"/>
			<point x="598" y="429"/>
			<point x="607" y="428"/>
			<point x="616" y="428" type="curve" smooth="yes"/>
			<point x="633" y="428"/>
			<point x="653" y="430"/>
			<point x="671" y="435" type="curve" smooth="yes"/>
			<point x="708" y="446"/>
			<point x="719" y="486"/>
			<point x="700" y="536" type="curve" smooth="yes"/>
			<point x="662" y="635"/>
			<point x="565" y="704"/>
			<point x="405" y="704" type="curve" smooth="yes"/>
			<point x="216" y="704"/>
			<point x="54" y="580"/>
			<point x="54" y="340" type="curve" smooth="yes"/>
			<point x="54" y="108"/>
			<point x="183" y="-14"/>
			<point x="367" y="-14" type="curve" smooth="yes"/>
			<point x="409" y="-14"/>
			<point x="443" y="-10"/>
			<point x="471" y="-1" type="curve" smooth="yes"/>
			<point x="515" y="14"/>
			<point x="532" y="47"/>
			<point x="549" y="89" type="curve" smooth="yes"/>
			<point x="556" y="106" type="line"/>
			<point x="564" y="54" type="line" smooth="yes"/>
			<point x="570" y="19"/>
			<point x="601" y="-9"/>
			<point x="638" y="-9" type="curve" smooth="yes"/>
			<point x="680" y="-9"/>
			<point x="713" y="25"/>
			<point x="713" y="66" type="curve" smooth="yes"/>
			<point x="713" y="273" type="line" smooth="yes"/>
			<point x="713" y="334"/>
			<point x="679" y="368"/>
		</contour>
	</outline>
</glyph>
<glyph name="Hbar" format="2">
	<advance width="770"/>
	<unicode hex="0126"/>
	<note>
		Hbar
	</note>
	<outline>
		<contour>
			<point x="716" y="482" type="line"/>
			<point x="717" y="482" type="line" smooth="yes"/>
			<point x="743" y="482"/>
			<point x="765" y="503"/>
			<point x="765" y="530" type="curve" smooth="yes"/>
			<point x="765" y="557"/>
			<point x="743" y="578"/>
			<point x="717" y="578" type="curve" smooth="yes"/>
			<point x="716" y="578" type="line"/>
			<point x="716" y="609" type="line" smooth="yes"/>
			<point x="716" y="658"/>
			<point x="676" y="699"/>
			<point x="626" y="699" type="curve" smooth="yes"/>
			<point x="576" y="699"/>
			<point x="536" y="658"/>
			<point x="536" y="609" type="curve" smooth="yes"/>
			<point x="536" y="578" type="line"/>
			<point x="260" y="578" type="line"/>
			<point x="260" y="634" type="line" smooth="yes"/>
			<point x="260" y="670"/>
			<point x="226" y="690"/>
			<point x="165" y="690" type="curve" smooth="yes"/>
			<point x="127" y="690" type="line" smooth="yes"/>
			<point x="96" y="690"/>
			<point x="71" y="665"/>
			<point x="71" y="634" type="curve" smooth="yes"/>
			<point x="71" y="617"/>
			<point x="67" y="589"/>
			<point x="79" y="578" type="curve"/>
			<point x="53" y="578"/>
			<point x="31" y="557"/>
			<point x="31" y="530" type="curve" smooth="yes"/>
			<point x="31" y="503"/>
			<point x="53" y="482"/>
			<point x="79" y="482" type="curve" smooth="yes"/>
			<point x="80" y="482" type="line"/>
			<point x="80" y="81" type="line" smooth="yes"/>
			<point x="80" y="32"/>
			<point x="120" y="-9"/>
			<point x="170" y="-9" type="curve" smooth="yes"/>
			<point x="220" y="-9"/>
			<point x="260" y="32"/>
			<point x="260" y="81" type="curve" smooth="yes"/>
			<point x="260" y="268" type="line"/>
			<point x="536" y="268" type="line"/>
			<point x="536" y="81" type="line" smooth="yes"/>
			<point x="536" y="32"/>
			<point x="576" y="-9"/>
			<point x="626" y="-9" type="curve" smooth="yes"/>
			<point x="676" y="-9"/>
			<point x="716" y="32"/>
			<point x="716" y="81" type="curve" smooth="yes"/>
		</contour>
		<contour>
			<point x="260" y="482" type="line"/>
			<point x="536" y="482" type="line"/>
			<point x="536" y="408" type="line"/>
			<point x="260" y="408" type="line"/>
		</contour>
	</outline>
</glyph>
<glyph name="hbar" format="2">
	<advance width="656"/>
	<unicode hex="0127"/>
	<note>
		hbar
	</note>
	<outline>
		<contour>
			<point x="603" y="403" type="curve" smooth="yes"/>
			<point x="589" y="496"/>
			<point x="524" y="548"/>
			<point x="414" y="548" type="curve" smooth="yes"/>
			<point x="390" y="548"/>
			<point x="369" y="545"/>
			<point x="350" y="541" type="curve" smooth="yes"/>
			<point x="307" y="529"/>
			<point x="284" y="503"/>
			<point x="258" y="467" type="curve" smooth="yes"/>
			<point x="246" y="451" type="line"/>
			<point x="246" y="575" type="line"/>
			<point x="315" y="575" type="line" smooth="yes"/>
			<point x="341" y="575"/>
			<point x="363" y="596"/>
			<point x="363" y="623" type="curve" smooth="yes"/>
			<point x="363" y="650"/>
			<point x="341" y="671"/>
			<point x="315" y="671" type="curve" smooth="yes"/>
			<point x="246" y="671" type="line"/>
			<point x="240" y="716"/>
			<point x="202" y="750"/>
			<point x="156" y="750" type="curve" smooth="yes"/>
			<point x="110" y="750"/>
			<point x="72" y="716"/>
			<point x="66" y="671" type="curve"/>
			<point x="53" y="671" type="line" smooth="yes"/>
			<point x="27" y="671"/>
			<point x="5" y="650"/>
			<point x="5" y="623" type="curve" smooth="yes"/>
			<point x="5" y="596"/>
			<point x="27" y="575"/>
			<point x="53" y="575" type="curve" smooth="yes"/>
			<point x="66" y="575" type="line"/>
			<point x="66" y="81" type="line" smooth="yes"/>
			<point x="66" y="32"/>
			<point x="106" y="-9"/>
			<point x="156" y="-9" type="curve" smooth="yes"/>
			<point x="206" y="-9"/>
			<point x="246" y="32"/>
			<point x="246" y="81" type="curve" smooth="yes"/>
			<point x="246" y="252" type="line" smooth="yes"/>
			<point x="246" y="373"/>
			<point x="285" y="426"/>
			<point x="340" y="426" type="curve" smooth="yes"/>
			<point x="394" y="426"/>
			<point x="422" y="396"/>
			<point x="426" y="345" type="curve" smooth="yes"/>
			<point x="428" y="318"/>
			<point x="428" y="289"/>
			<point x="428" y="272" type="curve" smooth="yes"/>
			<point x="428" y="81" type="line" smooth="yes"/>
			<point x="428" y="32"/>
			<point x="468" y="-9"/>
			<point x="518" y="-9" type="curve" smooth="yes"/>
			<point x="568" y="-9"/>
			<point x="608" y="32"/>
			<point x="608" y="81" type="curve" smooth="yes"/>
			<point x="608" y="302" type="line" smooth="yes"/>
			<point x="608" y="345"/>
			<point x="607" y="376"/>
		</contour>
	</outline>
</glyph>
<glyph name="Imacron" format="2">
	<advance width="314"/>
	<unicode hex="012A"/>
	<note>
		Imacron
	</note>
	<outline>
		<contour>
			<point x="59" y="760" type="curve" smooth="yes"/>
			<point x="281" y="760" type="line" smooth="yes"/>
			<point x="307" y="760"/>
			<point x="329" y="781"/>
			<point x="329" y="808" type="curve" smooth="yes"/>
			<point x="329" y="835"/>
			<point x="307" y="856"/>
			<point x="281" y="856" type="curve" smooth="yes"/>
			<point x="59" y="856" type="line" smooth="yes"/>
			<point x="33" y="856"/>
			<point x="11" y="835"/>
			<point x="11" y="808" type="curve" smooth="yes"/>
			<point x="11" y="781"/>
			<point x="33" y="760"/>
		</contour>
		<contour>
			<point x="260" y="32"/>
			<point x="260" y="81" type="curve" smooth="yes"/>
			<point x="260" y="609" type="line" smooth="yes"/>
			<point x="260" y="658"/>
			<point x="220" y="699"/>
			<point x="170" y="699" type="curve" smooth="yes"/>
			<point x="120" y="699"/>
			<point x="80" y="658"/>
			<point x="80" y="609" type="curve" smooth="yes"/>
			<point x="80" y="81" type="line" smooth="yes"/>
			<point x="80" y="32"/>
			<point x="120" y="-9"/>
			<point x="170" y="-9" type="curve" smooth="yes"/>
			<point x="220" y="-9"/>
		</contour>
	</outline>
</glyph>
<glyph name="imacron" format="2">
	<advance width="288"/>
	<unicode hex="012B"/>
	<note>
		imacron
	</note>
	<outline>
		<contour>
			<point x="33" y="586" type="curve" smooth="yes"/>
			<point x="255" y="586" type="line" smooth="yes"/>
			<point x="281" y="586"/>
			<point x="303" y="607"/>
			<point x="303" y="634" type="curve" smooth="yes"/>
			<point x="303" y="661"/>
			<point x="281" y="682"/>
			<point x="255" y="682" type="curve" smooth="yes"/>
			<point x="33" y="682" type="line" smooth="yes"/>
			<point x="7" y="682"/>
			<point x="-15" y="661"/>
			<point x="-15" y="634" type="curve" smooth="yes"/>
			<point x="-15" y="607"/>
			<point x="7" y="586"/>
		</contour>
		<contour>
			<point x="234" y="32"/>
			<point x="234" y="81" type="curve" smooth="yes"/>
			<point x="234" y="453" type="line" smooth="yes"/>
			<point x="234" y="502"/>
			<point x="194" y="543"/>
			<point x="144" y="543" type="curve" smooth="yes"/>
			<point x="94" y="543"/>
			<point x="54" y="502"/>
			<point x="54" y="453" type="curve" smooth="yes"/>
			<point x="54" y="81" type="line" smooth="yes"/>
			<point x="54" y="32"/>
			<point x="94" y="-9"/>
			<point x="144" y="-9" type="curve" smooth="yes"/>
			<point x="194" y="-9"/>
		</contour>
	</outline>
</glyph>
<glyph name="Iogonek" format="2">
	<advance width="314"/>
	<unicode hex="012E"/>
	<note>
		Iogonek
	</note>
	<outline>
		<contour>
			<point x="203" y="0" type="curve" smooth="yes"/>
			<point x="240" y="0"/>
			<point x="260" y="34"/>
			<point x="260" y="95" type="curve" smooth="yes"/>
			<point x="260" y="609" type="line" smooth="yes"/>
			<point x="260" y="658"/>
			<point x="220" y="699"/>
			<point x="170" y="699" type="curve" smooth="yes"/>
			<point x="120" y="699"/>
			<point x="80" y="658"/>
			<point x="80" y="609" type="curve" smooth="yes"/>
			<point x="80" y="5" type="line"/>
			<point x="35" y="-20"/>
			<point x="-6" y="-77"/>
			<point x="-6" y="-137" type="curve" smooth="yes"/>
			<point x="-6" y="-201"/>
			<point x="42" y="-223"/>
			<point x="108" y="-223" type="curve" smooth="yes"/>
			<point x="163" y="-223"/>
			<point x="202" y="-207"/>
			<point x="237" y="-184" type="curve" smooth="yes"/>
			<point x="247" y="-177"/>
			<point x="252" y="-167"/>
			<point x="252" y="-155" type="curve" smooth="yes"/>
			<point x="252" y="-133"/>
			<point x="230" y="-116"/>
			<point x="209" y="-120" type="curve" smooth="yes"/>
			<point x="206" y="-121"/>
			<point x="202" y="-121"/>
			<point x="199" y="-121" type="curve" smooth="yes"/>
			<point x="179" y="-121"/>
			<point x="158" y="-108"/>
			<point x="158" y="-70" type="curve" smooth="yes"/>
			<point x="158" y="-32"/>
			<point x="178" y="0"/>
		</contour>
	</outline>
</glyph>
<glyph name="iogonek" format="2">
	<advance width="288"/>
	<unicode hex="012F"/>
	<note>
		iogonek
	</note>
	<outline>
		<contour>
			<point x="144" y="575" type="curve" smooth="yes"/>
			<point x="200" y="575"/>
			<point x="237" y="609"/>
			<point x="237" y="663" type="curve" smooth="yes"/>
			<point x="237" y="717"/>
			<point x="200" y="751"/>
			<point x="144" y="751" type="curve" smooth="yes"/>
			<point x="88" y="751"/>
			<point x="51" y="717"/>
			<point x="51" y="663" type="curve" smooth="yes"/>
			<point x="51" y="609"/>
			<point x="88" y="575"/>
		</contour>
		<contour>
			<point x="54" y="502"/>
			<point x="54" y="453" type="curve" smooth="yes"/>
			<point x="54" y="5" type="line"/>
			<point x="9" y="-20"/>
			<point x="-32" y="-77"/>
			<point x="-32" y="-137" type="curve" smooth="yes"/>
			<point x="-32" y="-201"/>
			<point x="16" y="-223"/>
			<point x="82" y="-223" type="curve" smooth="yes"/>
			<point x="137" y="-223"/>
			<point x="176" y="-207"/>
			<point x="211" y="-184" type="curve" smooth="yes"/>
			<point x="221" y="-177"/>
			<point x="226" y="-167"/>
			<point x="226" y="-155" type="curve" smooth="yes"/>
			<point x="226" y="-133"/>
			<point x="204" y="-116"/>
			<point x="183" y="-120" type="curve" smooth="yes"/>
			<point x="180" y="-121"/>
			<point x="176" y="-121"/>
			<point x="173" y="-121" type="curve" smooth="yes"/>
			<point x="153" y="-121"/>
			<point x="132" y="-108"/>
			<point x="132" y="-70" type="curve" smooth="yes"/>
			<point x="132" y="-32"/>
			<point x="152" y="0"/>
			<point x="177" y="0" type="curve" smooth="yes"/>
			<point x="214" y="0"/>
			<point x="234" y="34"/>
			<point x="234" y="95" type="curve" smooth="yes"/>
			<point x="234" y="453" type="line" smooth="yes"/>
			<point x="234" y="502"/>
			<point x="194" y="543"/>
			<point x="144" y="543" type="curve" smooth="yes"/>
			<point x="94" y="543"/>
		</contour>
	</outline>
</glyph>
<glyph name="Idotaccent" format="2">
	<advance width="314"/>
	<unicode hex="0130"/>
	<note>
		Idotaccent
	</note>
	<outline>
		<contour>
			<point x="170" y="901" type="curve" smooth="yes"/>
			<point x="114" y="901"/>
			<point x="77" y="867"/>
			<point x="77" y="813" type="curve" smooth="yes"/>
			<point x="77" y="759"/>
			<point x="114" y="725"/>
			<point x="170" y="725" type="curve" smooth="yes"/>
			<point x="226" y="725"/>
			<point x="263" y="759"/>
			<point x="263" y="813" type="curve" smooth="yes"/>
			<point x="263" y="867"/>
			<point x="226" y="901"/>
		</contour>
		<contour>
			<point x="260" y="32"/>
			<point x="260" y="81" type="curve" smooth="yes"/>
			<point x="260" y="609" type="line" smooth="yes"/>
			<point x="260" y="658"/>
			<point x="220" y="699"/>
			<point x="170" y="699" type="curve" smooth="yes"/>
			<point x="120" y="699"/>
			<point x="80" y="658"/>
			<point x="80" y="609" type="curve" smooth="yes"/>
			<point x="80" y="81" type="line" smooth="yes"/>
			<point x="80" y="32"/>
			<point x="120" y="-9"/>
			<point x="170" y="-9" type="curve" smooth="yes"/>
			<point x="220" y="-9"/>
		</contour>
	</outline>
</glyph>
<glyph name="dotlessi" format="2">
	<advance width="288"/>
	<unicode hex="0131"/>
	<note>
		dotlessi
	</note>
	<outline>
		<contour>
			<point x="234" y="32"/>
			<point x="234" y="81" type="curve" smooth="yes"/>
			<point x="234" y="453" type="line" smooth="yes"/>
			<point x="234" y="502"/>
			<point x="194" y="543"/>
			<point x="144" y="543" type="curve" smooth="yes"/>
			<point x="94" y="543"/>
			<point x="54" y="502"/>
			<point x="54" y="453" type="curve" smooth="yes"/>
			<point x="54" y="81" type="line" smooth="yes"/>
			<point x="54" y="32"/>
			<point x="94" y="-9"/>
			<point x="144" y="-9" type="curve" smooth="yes"/>
			<point x="194" y="-9"/>
		</contour>
	</outline>
</glyph>
<glyph name="ij" format="2">
	<advance width="570"/>
	<unicode hex="0133"/>
	<note>
		ij
	</note>
	<outline>
		<contour>
			<point x="234" y="32"/>
			<point x="234" y="81" type="curve" smooth="yes"/>
			<point x="234" y="453" type="line" smooth="yes"/>
			<point x="234" y="502"/>
			<point x="194" y="543"/>
			<point x="144" y="543" type="curve" smooth="yes"/>
			<point x="94" y="543"/>
			<point x="54" y="502"/>
			<point x="54" y="453" type="curve" smooth="yes"/>
			<point x="54" y="81" type="line" smooth="yes"/>
			<point x="54" y="32"/>
			<point x="94" y="-9"/>
			<point x="144" y="-9" type="curve" smooth="yes"/>
			<point x="194" y="-9"/>
		</contour>
		<contour>
			<point x="520" y="16" type="curve" smooth="yes"/>
			<point x="520" y="453" type="line" smooth="yes"/>
			<point x="520" y="502"/>
			<point x="480" y="543"/>
			<point x="430" y="543" type="curve" smooth="yes"/>
			<point x="380" y="543"/>
			<point x="340" y="502"/>
			<point x="340" y="453" type="curve" smooth="yes"/>
			<point x="340" y="15" type="line" smooth="yes"/>
			<point x="340" y="0"/>
			<point x="339" y="-19"/>
			<point x="338" y="-33" type="curve" smooth="yes"/>
			<point x="334" y="-66"/>
			<point x="319" y="-81"/>
			<point x="284" y="-85" type="curve" smooth="yes"/>
			<point x="253" y="-89"/>
			<point x="229" y="-115"/>
			<point x="229" y="-148" type="curve" smooth="yes"/>
			<point x="229" y="-182"/>
			<point x="257" y="-210"/>
			<point x="291" y="-210" type="curve" smooth="yes"/>
			<point x="298" y="-210" type="line" smooth="yes"/>
			<point x="453" y="-210"/>
			<point x="511" y="-148"/>
			<point x="518" y="-48" type="curve" smooth="yes"/>
			<point x="519" y="-30"/>
			<point x="520" y="-4"/>
		</contour>
		<contour>
			<point x="87" y="574"/>
			<point x="136" y="574" type="curve" smooth="yes"/>
			<point x="159" y="574" type="line" smooth="yes"/>
			<point x="207" y="574"/>
			<point x="246" y="613"/>
			<point x="246" y="661" type="curve" smooth="yes"/>
			<point x="246" y="672"/>
			<point x="244" y="683"/>
			<point x="240" y="692" type="curve" smooth="yes"/>
			<point x="224" y="732"/>
			<point x="188" y="762"/>
			<point x="145" y="762" type="curve" smooth="yes"/>
			<point x="130" y="762"/>
			<point x="117" y="758"/>
			<point x="105" y="752" type="curve" smooth="yes"/>
			<point x="71" y="735"/>
			<point x="46" y="702"/>
			<point x="46" y="664" type="curve" smooth="yes"/>
			<point x="46" y="614"/>
		</contour>
		<contour>
			<point x="369" y="575"/>
			<point x="417" y="575" type="curve" smooth="yes"/>
			<point x="444" y="575" type="line" smooth="yes"/>
			<point x="492" y="575"/>
			<point x="532" y="614"/>
			<point x="532" y="663" type="curve" smooth="yes"/>
			<point x="532" y="712"/>
			<point x="492" y="751"/>
			<point x="444" y="751" type="curve" smooth="yes"/>
			<point x="417" y="751" type="line" smooth="yes"/>
			<point x="369" y="751"/>
			<point x="329" y="712"/>
			<point x="329" y="663" type="curve" smooth="yes"/>
			<point x="329" y="614"/>
		</contour>
	</outline>
</glyph>
<glyph name="Lacute" format="2">
	<advance width="628"/>
	<unicode hex="0139"/>
	<note>
		Lacute
	</note>
	<outline>
		<contour>
			<point x="187" y="726"/>
			<point x="188" y="727" type="curve" smooth="yes"/>
			<point x="262" y="799"/>
			<point x="297" y="874"/>
			<point x="246" y="869" type="curve" smooth="yes"/>
			<point x="244" y="869"/>
			<point x="242" y="868"/>
			<point x="240" y="868" type="curve" smooth="yes"/>
			<point x="193" y="857"/>
			<point x="154" y="822"/>
			<point x="148" y="775" type="curve" smooth="yes"/>
			<point x="147" y="771"/>
			<point x="147" y="768"/>
			<point x="147" y="765" type="curve" smooth="yes"/>
			<point x="147" y="744"/>
			<point x="165" y="726"/>
			<point x="187" y="726" type="curve"/>
			<point x="187" y="726"/>
		</contour>
		<contour>
			<point x="584" y="152"/>
			<point x="542" y="152" type="curve" smooth="yes"/>
			<point x="260" y="152" type="line"/>
			<point x="260" y="609" type="line" smooth="yes"/>
			<point x="260" y="658"/>
			<point x="220" y="699"/>
			<point x="170" y="699" type="curve" smooth="yes"/>
			<point x="120" y="699"/>
			<point x="80" y="658"/>
			<point x="80" y="609" type="curve" smooth="yes"/>
			<point x="80" y="95" type="line" smooth="yes"/>
			<point x="80" y="34"/>
			<point x="114" y="0"/>
			<point x="175" y="0" type="curve" smooth="yes"/>
			<point x="542" y="0" type="line" smooth="yes"/>
			<point x="584" y="0"/>
			<point x="618" y="34"/>
			<point x="618" y="76" type="curve" smooth="yes"/>
			<point x="618" y="118"/>
		</contour>
	</outline>
</glyph>
